{"glyphs":{"0":{"ha":743,"x_min":56,"x_max":689,"o":"m 371 -8 q 216 43 288 -8 q 100 204 144 94 q 56 486 56 314 q 100 769 56 660 q 216 929 144 878 q 371 981 288 981 q 528 929 456 981 q 644 769 600 878 q 689 486 689 660 q 644 204 689 314 q 528 43 600 94 q 371 -8 456 -8 m 371 92 q 467 130 421 92 q 542 254 513 168 q 571 486 571 340 q 542 718 571 632 q 467 842 513 804 q 371 881 421 881 q 276 842 321 881 q 202 718 231 804 q 174 486 174 632 q 202 254 174 340 q 276 130 231 168 q 371 92 321 92 z "},"1":{"ha":743,"x_min":65,"x_max":703,"o":"m 97 0 q 69 42 69 0 l 69 58 q 97 100 69 100 l 339 100 l 339 897 l 386 857 l 100 808 q 80 815 88 807 q 69 838 72 824 q 65 865 65 853 q 72 894 65 886 q 90 904 78 901 l 413 975 q 442 967 428 975 q 456 946 456 958 l 456 100 l 675 100 q 703 58 703 100 l 703 42 q 675 0 703 0 l 97 0 z "},"2":{"ha":743,"x_min":71,"x_max":657,"o":"m 93 0 q 80 10 85 0 q 73 34 75 19 q 71 61 71 49 q 72 75 71 68 q 76 85 74 82 l 474 583 q 503 628 492 606 q 522 675 515 651 q 529 722 529 699 q 483 838 529 796 q 361 881 438 881 q 251 865 296 881 q 181 833 207 849 q 143 818 156 818 q 126 829 136 818 q 110 855 117 840 q 103 879 103 869 q 126 909 103 892 q 188 942 149 926 q 274 969 226 958 q 371 981 321 981 q 569 913 493 981 q 646 731 646 846 q 635 651 646 690 q 606 576 625 613 q 558 504 586 539 l 233 100 l 629 100 q 657 58 657 100 l 657 42 q 629 0 657 0 l 93 0 z "},"3":{"ha":743,"x_min":60,"x_max":640,"o":"m 324 -8 q 215 -1 264 -8 q 132 19 167 7 q 78 47 97 32 q 60 74 60 61 q 67 103 60 88 q 83 129 74 118 q 100 140 93 140 q 140 128 113 140 q 210 104 167 117 q 313 92 253 92 q 428 113 382 92 q 499 178 475 135 q 522 283 522 221 q 464 428 522 390 q 311 467 406 467 l 251 467 q 224 508 224 467 l 224 524 q 231 556 224 546 q 251 565 238 565 l 306 565 q 383 578 349 565 q 441 614 417 590 q 478 672 465 638 q 490 747 490 706 q 477 805 490 774 q 428 858 464 836 q 325 881 393 881 q 222 869 263 881 q 160 847 182 858 q 125 835 138 835 q 108 845 118 835 q 92 869 99 856 q 86 893 86 883 q 110 921 86 906 q 170 950 133 936 q 249 972 207 964 q 328 981 290 981 q 528 922 451 981 q 606 744 606 864 q 585 651 606 692 q 533 581 565 610 q 465 536 501 553 l 465 531 q 547 488 507 519 q 614 404 588 456 q 640 282 640 353 q 602 126 640 192 q 493 26 564 61 q 324 -8 422 -8 z "},"4":{"ha":743,"x_min":25,"x_max":717,"o":"m 522 -3 q 490 6 500 -3 q 481 28 481 14 l 481 232 l 53 232 q 39 244 46 232 q 28 274 32 257 q 25 303 25 290 q 26 313 25 308 q 28 318 26 317 l 485 956 q 505 970 492 965 q 532 975 518 975 l 554 975 q 586 967 576 975 q 596 944 596 960 l 596 332 l 689 332 q 717 290 717 332 l 717 274 q 710 242 717 251 q 689 232 704 232 l 596 232 l 596 28 q 586 6 596 14 q 554 -3 576 -3 l 522 -3 m 135 293 l 114 332 l 481 332 l 481 668 q 482 722 481 692 q 488 775 483 753 l 439 799 l 510 817 l 135 293 z "},"5":{"ha":743,"x_min":63,"x_max":656,"o":"m 322 -8 q 187 6 246 -8 q 95 39 128 19 q 63 75 63 58 q 68 97 63 85 q 81 119 74 108 q 97 138 89 131 q 111 144 106 144 q 151 131 125 144 q 219 105 176 118 q 321 92 261 92 q 482 143 428 92 q 536 296 536 194 q 472 438 536 389 q 286 486 408 486 l 168 486 q 137 496 146 486 q 129 528 128 506 l 153 931 q 165 963 154 953 q 197 972 175 972 l 567 972 q 594 931 594 972 l 594 914 q 567 872 594 872 l 217 872 l 268 921 l 244 538 l 199 586 l 319 586 q 435 572 376 586 q 544 526 493 558 q 625 437 594 493 q 656 296 656 381 q 633 169 656 225 q 567 73 610 113 q 462 13 524 33 q 322 -8 400 -8 z "},"6":{"ha":743,"x_min":76,"x_max":672,"o":"m 372 -7 q 243 17 299 -7 q 151 85 188 40 q 95 195 114 131 q 76 343 76 260 q 103 529 76 443 q 172 685 129 615 q 267 810 215 756 q 369 901 318 864 q 463 956 421 938 q 528 975 504 975 q 547 966 539 975 q 562 944 556 957 q 571 920 568 932 q 574 901 574 908 q 572 894 574 899 q 563 886 569 889 q 394 783 464 843 q 279 652 324 724 q 214 499 235 581 q 193 332 193 418 q 210 213 193 260 q 253 140 226 165 q 313 103 281 114 q 379 93 346 93 q 457 113 417 93 q 526 172 497 132 q 554 276 554 213 q 528 385 554 344 q 460 444 501 426 q 372 463 418 463 q 262 444 311 463 q 185 407 213 425 l 206 508 q 287 546 238 529 q 407 563 336 563 q 510 543 463 563 q 594 487 558 524 q 651 398 631 450 q 672 282 672 346 q 649 163 672 215 q 585 72 626 110 q 490 13 544 33 q 372 -7 435 -7 z "},"7":{"ha":743,"x_min":76,"x_max":681,"o":"m 194 -3 q 149 2 164 -3 q 135 19 135 7 q 137 28 135 24 q 140 39 139 33 l 563 915 l 590 872 l 104 872 q 76 914 76 872 l 76 931 q 104 972 76 972 l 644 972 q 665 960 657 972 q 677 932 674 949 q 681 901 681 915 q 680 893 681 897 q 678 886 679 889 l 267 19 q 256 8 264 13 q 236 0 247 3 q 211 -3 225 -3 l 194 -3 z "},"8":{"ha":743,"x_min":71,"x_max":672,"o":"m 371 -8 q 219 21 288 -8 q 111 111 151 50 q 71 267 71 172 q 94 397 71 347 q 158 479 118 447 q 243 536 197 511 l 338 497 q 264 448 297 476 q 210 379 231 419 q 190 281 190 339 q 215 176 190 218 q 281 113 239 133 q 371 92 322 92 q 462 113 421 92 q 528 176 503 133 q 553 281 553 218 q 528 369 553 335 q 465 424 504 403 q 379 463 426 446 q 284 498 332 479 q 197 546 236 517 q 134 622 158 575 q 110 740 110 668 q 145 873 110 819 q 241 953 181 926 q 374 981 301 981 q 508 953 447 981 q 604 873 568 926 q 640 740 640 819 q 619 639 640 682 q 564 567 599 596 q 486 521 529 538 l 383 556 q 453 602 422 576 q 504 662 485 628 q 524 740 524 696 q 479 847 524 814 q 374 881 435 881 q 269 847 313 881 q 226 740 226 814 q 251 657 226 689 q 315 606 275 625 q 402 570 354 586 q 497 535 450 554 q 584 484 544 515 q 648 403 624 453 q 672 274 672 353 q 649 149 672 201 q 584 61 625 96 q 488 9 543 26 q 371 -8 433 -8 z "},"9":{"ha":743,"x_min":71,"x_max":667,"o":"m 371 975 q 500 951 444 975 q 592 883 556 928 q 648 773 629 838 q 667 625 667 708 q 640 439 667 525 q 571 283 614 353 q 476 158 528 213 q 374 67 425 104 q 281 12 322 31 q 215 -7 239 -7 q 196 2 204 -7 q 181 24 188 11 q 172 49 175 36 q 169 67 169 61 q 172 74 169 69 q 181 82 174 79 q 349 185 279 126 q 464 316 419 244 q 529 469 508 388 q 550 636 550 550 q 533 756 550 710 q 490 828 517 803 q 430 865 463 854 q 364 875 397 875 q 286 856 326 875 q 217 796 246 836 q 189 692 189 756 q 215 583 189 624 q 283 524 242 542 q 371 506 325 506 q 481 524 432 506 q 558 561 531 543 l 538 460 q 456 422 506 439 q 336 406 407 406 q 233 425 281 406 q 149 481 185 444 q 92 570 113 518 q 71 686 71 622 q 94 806 71 753 q 158 897 117 858 q 253 955 199 935 q 371 975 308 975 z "},"A":{"ha":851,"x_min":17,"x_max":835,"o":"m 76 -3 q 31 3 46 -3 q 17 21 17 10 q 18 30 17 25 q 21 40 19 35 l 350 953 q 368 969 354 964 q 406 975 382 975 l 446 975 q 483 969 469 975 q 501 953 497 964 l 831 39 q 834 29 833 33 q 835 21 835 25 q 821 4 835 11 q 775 -3 807 -3 l 764 -3 q 728 2 743 -3 q 708 19 713 7 l 446 767 q 434 807 440 786 q 425 847 428 828 l 422 847 q 414 807 418 828 q 403 767 410 786 l 139 19 q 119 2 135 7 q 83 -3 104 -3 l 76 -3 m 174 250 l 174 353 l 672 353 l 672 250 l 174 250 z "},"Á":{"ha":851,"x_min":17,"x_max":835,"o":"m 76 -3 q 31 3 46 -3 q 17 21 17 10 q 18 30 17 25 q 21 40 19 35 l 350 953 q 368 969 354 964 q 406 975 382 975 l 446 975 q 483 969 469 975 q 501 953 497 964 l 831 39 q 834 29 833 33 q 835 21 835 25 q 821 4 835 11 q 775 -3 807 -3 l 764 -3 q 728 2 743 -3 q 708 19 713 7 l 446 767 q 434 807 440 786 q 425 847 428 828 l 422 847 q 414 807 418 828 q 403 767 410 786 l 139 19 q 119 2 135 7 q 83 -3 104 -3 l 76 -3 m 174 250 l 174 353 l 672 353 l 672 250 l 174 250 m 343 1044 q 317 1049 326 1044 q 307 1063 307 1054 q 310 1074 307 1068 q 322 1089 314 1081 l 397 1168 q 438 1194 415 1188 q 503 1200 460 1200 q 556 1194 535 1200 q 576 1175 576 1188 q 567 1153 576 1164 q 521 1119 557 1143 l 446 1074 q 397 1050 417 1056 q 343 1044 378 1044 z "},"Ă":{"ha":851,"x_min":17,"x_max":835,"o":"m 76 -3 q 31 3 46 -3 q 17 21 17 10 q 18 30 17 25 q 21 40 19 35 l 350 953 q 368 969 354 964 q 406 975 382 975 l 446 975 q 483 969 469 975 q 501 953 497 964 l 831 39 q 834 29 833 33 q 835 21 835 25 q 821 4 835 11 q 775 -3 807 -3 l 764 -3 q 728 2 743 -3 q 708 19 713 7 l 446 767 q 434 807 440 786 q 425 847 428 828 l 422 847 q 414 807 418 828 q 403 767 410 786 l 139 19 q 119 2 135 7 q 83 -3 104 -3 l 76 -3 m 174 250 l 174 353 l 672 353 l 672 250 l 174 250 m 426 1033 q 329 1053 371 1033 q 265 1105 288 1072 q 243 1179 243 1138 q 249 1206 243 1199 q 269 1214 256 1214 q 286 1209 281 1214 q 297 1192 292 1204 q 342 1142 308 1158 q 426 1125 376 1125 q 509 1142 475 1125 q 556 1192 543 1158 q 585 1214 565 1214 q 603 1206 597 1214 q 608 1179 608 1199 q 586 1105 608 1138 q 523 1053 564 1072 q 426 1033 482 1033 z "},"Ắ":{"ha":851,"x_min":17,"x_max":835,"o":"m 76 -3 q 31 3 46 -3 q 17 21 17 10 q 18 30 17 25 q 21 40 19 35 l 350 953 q 368 969 354 964 q 406 975 382 975 l 446 975 q 483 969 469 975 q 501 953 497 964 l 831 39 q 834 29 833 33 q 835 21 835 25 q 821 4 835 11 q 775 -3 807 -3 l 764 -3 q 728 2 743 -3 q 708 19 713 7 l 446 767 q 434 807 440 786 q 425 847 428 828 l 422 847 q 414 807 418 828 q 403 767 410 786 l 139 19 q 119 2 135 7 q 83 -3 104 -3 l 76 -3 m 174 250 l 174 353 l 672 353 l 672 250 l 174 250 m 426 1033 q 329 1053 371 1033 q 265 1105 288 1072 q 243 1179 243 1138 q 249 1206 243 1199 q 269 1214 256 1214 q 286 1209 281 1214 q 297 1192 292 1204 q 342 1142 308 1158 q 426 1125 376 1125 q 509 1142 475 1125 q 556 1192 543 1158 q 585 1214 565 1214 q 603 1206 597 1214 q 608 1179 608 1199 q 586 1105 608 1138 q 523 1053 564 1072 q 426 1033 482 1033 m 343 1228 q 317 1233 326 1228 q 307 1246 307 1238 q 310 1258 307 1251 q 322 1272 314 1264 l 397 1351 q 438 1377 415 1371 q 503 1383 460 1383 q 556 1377 535 1383 q 576 1358 576 1371 q 567 1337 576 1347 q 521 1303 557 1326 l 446 1257 q 397 1233 417 1239 q 343 1228 378 1228 z "},"Ặ":{"ha":851,"x_min":17,"x_max":835,"o":"m 76 -3 q 31 3 46 -3 q 17 21 17 10 q 18 30 17 25 q 21 40 19 35 l 350 953 q 368 969 354 964 q 406 975 382 975 l 446 975 q 483 969 469 975 q 501 953 497 964 l 831 39 q 834 29 833 33 q 835 21 835 25 q 821 4 835 11 q 775 -3 807 -3 l 764 -3 q 728 2 743 -3 q 708 19 713 7 l 446 767 q 434 807 440 786 q 425 847 428 828 l 422 847 q 414 807 418 828 q 403 767 410 786 l 139 19 q 119 2 135 7 q 83 -3 104 -3 l 76 -3 m 174 250 l 174 353 l 672 353 l 672 250 l 174 250 m 426 -243 q 381 -235 396 -243 q 367 -212 367 -228 l 367 -142 q 381 -119 367 -126 q 426 -111 396 -111 q 472 -119 458 -111 q 486 -142 486 -126 l 486 -212 q 472 -235 486 -228 q 426 -243 458 -243 m 426 1033 q 329 1053 371 1033 q 265 1105 288 1072 q 243 1179 243 1138 q 249 1206 243 1199 q 269 1214 256 1214 q 286 1209 281 1214 q 297 1192 292 1204 q 342 1142 308 1158 q 426 1125 376 1125 q 509 1142 475 1125 q 556 1192 543 1158 q 585 1214 565 1214 q 603 1206 597 1214 q 608 1179 608 1199 q 586 1105 608 1138 q 523 1053 564 1072 q 426 1033 482 1033 z "},"Ằ":{"ha":851,"x_min":17,"x_max":835,"o":"m 76 -3 q 31 3 46 -3 q 17 21 17 10 q 18 30 17 25 q 21 40 19 35 l 350 953 q 368 969 354 964 q 406 975 382 975 l 446 975 q 483 969 469 975 q 501 953 497 964 l 831 39 q 834 29 833 33 q 835 21 835 25 q 821 4 835 11 q 775 -3 807 -3 l 764 -3 q 728 2 743 -3 q 708 19 713 7 l 446 767 q 434 807 440 786 q 425 847 428 828 l 422 847 q 414 807 418 828 q 403 767 410 786 l 139 19 q 119 2 135 7 q 83 -3 104 -3 l 76 -3 m 174 250 l 174 353 l 672 353 l 672 250 l 174 250 m 426 1033 q 329 1053 371 1033 q 265 1105 288 1072 q 243 1179 243 1138 q 249 1206 243 1199 q 269 1214 256 1214 q 286 1209 281 1214 q 297 1192 292 1204 q 342 1142 308 1158 q 426 1125 376 1125 q 509 1142 475 1125 q 556 1192 543 1158 q 585 1214 565 1214 q 603 1206 597 1214 q 608 1179 608 1199 q 586 1105 608 1138 q 523 1053 564 1072 q 426 1033 482 1033 m 510 1228 q 456 1233 475 1228 q 407 1257 436 1239 l 332 1303 q 286 1337 296 1326 q 276 1358 276 1347 q 297 1377 276 1371 q 350 1383 318 1383 q 416 1377 394 1383 q 456 1351 438 1371 l 531 1272 q 542 1258 539 1264 q 546 1246 546 1251 q 536 1233 546 1238 q 510 1228 526 1228 z "},"Ẳ":{"ha":851,"x_min":17,"x_max":835,"o":"m 76 -3 q 31 3 46 -3 q 17 21 17 10 q 18 30 17 25 q 21 40 19 35 l 350 953 q 368 969 354 964 q 406 975 382 975 l 446 975 q 483 969 469 975 q 501 953 497 964 l 831 39 q 834 29 833 33 q 835 21 835 25 q 821 4 835 11 q 775 -3 807 -3 l 764 -3 q 728 2 743 -3 q 708 19 713 7 l 446 767 q 434 807 440 786 q 425 847 428 828 l 422 847 q 414 807 418 828 q 403 767 410 786 l 139 19 q 119 2 135 7 q 83 -3 104 -3 l 76 -3 m 174 250 l 174 353 l 672 353 l 672 250 l 174 250 m 426 1033 q 329 1053 371 1033 q 265 1105 288 1072 q 243 1179 243 1138 q 249 1206 243 1199 q 269 1214 256 1214 q 286 1209 281 1214 q 297 1192 292 1204 q 342 1142 308 1158 q 426 1125 376 1125 q 509 1142 475 1125 q 556 1192 543 1158 q 585 1214 565 1214 q 603 1206 597 1214 q 608 1179 608 1199 q 586 1105 608 1138 q 523 1053 564 1072 q 426 1033 482 1033 m 414 1211 q 393 1224 404 1211 q 382 1246 382 1236 q 396 1260 382 1251 q 428 1278 410 1268 q 460 1303 446 1289 q 474 1335 474 1317 q 454 1365 474 1357 q 406 1372 435 1372 q 358 1363 375 1372 q 335 1354 342 1354 q 322 1363 329 1354 q 308 1382 314 1371 q 301 1400 301 1393 q 319 1418 301 1408 q 365 1435 338 1428 q 421 1443 392 1443 q 479 1435 449 1443 q 531 1408 510 1428 q 553 1351 553 1388 q 535 1297 553 1322 q 493 1253 518 1272 q 446 1222 468 1233 q 414 1211 424 1211 z "},"Ẵ":{"ha":851,"x_min":17,"x_max":835,"o":"m 76 -3 q 31 3 46 -3 q 17 21 17 10 q 18 30 17 25 q 21 40 19 35 l 350 953 q 368 969 354 964 q 406 975 382 975 l 446 975 q 483 969 469 975 q 501 953 497 964 l 831 39 q 834 29 833 33 q 835 21 835 25 q 821 4 835 11 q 775 -3 807 -3 l 764 -3 q 728 2 743 -3 q 708 19 713 7 l 446 767 q 434 807 440 786 q 425 847 428 828 l 422 847 q 414 807 418 828 q 403 767 410 786 l 139 19 q 119 2 135 7 q 83 -3 104 -3 l 76 -3 m 174 250 l 174 353 l 672 353 l 672 250 l 174 250 m 426 1033 q 329 1053 371 1033 q 265 1105 288 1072 q 243 1179 243 1138 q 249 1206 243 1199 q 269 1214 256 1214 q 286 1209 281 1214 q 297 1192 292 1204 q 342 1142 308 1158 q 426 1125 376 1125 q 509 1142 475 1125 q 556 1192 543 1158 q 585 1214 565 1214 q 603 1206 597 1214 q 608 1179 608 1199 q 586 1105 608 1138 q 523 1053 564 1072 q 426 1033 482 1033 m 233 1229 q 217 1233 228 1229 q 199 1242 207 1236 q 190 1254 190 1247 q 192 1265 190 1260 q 194 1275 193 1269 q 251 1346 218 1326 q 317 1365 285 1365 q 397 1353 357 1365 q 474 1327 438 1340 q 539 1314 511 1314 q 581 1328 567 1314 q 601 1357 594 1343 q 617 1371 608 1371 q 645 1363 628 1371 q 663 1346 663 1354 q 660 1331 663 1342 q 647 1301 657 1321 q 607 1251 629 1269 q 536 1233 585 1233 q 451 1247 493 1233 q 374 1272 410 1260 q 310 1285 338 1285 q 273 1271 286 1285 q 251 1243 260 1257 q 233 1229 243 1229 z "},"Ǎ":{"ha":851,"x_min":17,"x_max":835,"o":"m 76 -3 q 31 3 46 -3 q 17 21 17 10 q 18 30 17 25 q 21 40 19 35 l 350 953 q 368 969 354 964 q 406 975 382 975 l 446 975 q 483 969 469 975 q 501 953 497 964 l 831 39 q 834 29 833 33 q 835 21 835 25 q 821 4 835 11 q 775 -3 807 -3 l 764 -3 q 728 2 743 -3 q 708 19 713 7 l 446 767 q 434 807 440 786 q 425 847 428 828 l 422 847 q 414 807 418 828 q 403 767 410 786 l 139 19 q 119 2 135 7 q 83 -3 104 -3 l 76 -3 m 174 250 l 174 353 l 672 353 l 672 250 l 174 250 m 575 1186 q 600 1181 593 1186 q 607 1169 607 1176 q 601 1154 607 1163 q 583 1133 596 1146 l 501 1051 q 484 1039 493 1043 q 461 1033 475 1035 q 426 1031 447 1031 q 392 1033 406 1031 q 369 1039 379 1035 q 351 1051 360 1043 l 269 1133 q 251 1154 257 1146 q 246 1169 246 1163 q 253 1181 246 1176 q 278 1186 260 1186 q 302 1184 293 1186 q 328 1171 311 1182 l 426 1111 l 524 1171 q 549 1183 538 1179 q 575 1186 561 1186 z "},"Â":{"ha":851,"x_min":17,"x_max":835,"o":"m 76 -3 q 31 3 46 -3 q 17 21 17 10 q 18 30 17 25 q 21 40 19 35 l 350 953 q 368 969 354 964 q 406 975 382 975 l 446 975 q 483 969 469 975 q 501 953 497 964 l 831 39 q 834 29 833 33 q 835 21 835 25 q 821 4 835 11 q 775 -3 807 -3 l 764 -3 q 728 2 743 -3 q 708 19 713 7 l 446 767 q 434 807 440 786 q 425 847 428 828 l 422 847 q 414 807 418 828 q 403 767 410 786 l 139 19 q 119 2 135 7 q 83 -3 104 -3 l 76 -3 m 174 250 l 174 353 l 672 353 l 672 250 l 174 250 m 278 1031 q 253 1035 260 1031 q 246 1047 246 1040 q 251 1063 246 1054 q 269 1083 257 1071 l 351 1165 q 369 1178 360 1174 q 392 1184 378 1182 q 426 1186 406 1186 q 460 1184 447 1186 q 483 1178 474 1182 q 501 1165 493 1174 l 583 1083 q 601 1063 596 1071 q 607 1047 607 1054 q 600 1035 607 1040 q 575 1031 593 1031 q 551 1033 561 1031 q 525 1046 542 1036 l 426 1106 l 329 1046 q 304 1034 315 1038 q 278 1031 293 1031 z "},"Ấ":{"ha":851,"x_min":17,"x_max":835,"o":"m 76 -3 q 31 3 46 -3 q 17 21 17 10 q 18 30 17 25 q 21 40 19 35 l 350 953 q 368 969 354 964 q 406 975 382 975 l 446 975 q 483 969 469 975 q 501 953 497 964 l 831 39 q 834 29 833 33 q 835 21 835 25 q 821 4 835 11 q 775 -3 807 -3 l 764 -3 q 728 2 743 -3 q 708 19 713 7 l 446 767 q 434 807 440 786 q 425 847 428 828 l 422 847 q 414 807 418 828 q 403 767 410 786 l 139 19 q 119 2 135 7 q 83 -3 104 -3 l 76 -3 m 174 250 l 174 353 l 672 353 l 672 250 l 174 250 m 278 1031 q 253 1035 260 1031 q 246 1047 246 1040 q 251 1063 246 1054 q 269 1083 257 1071 l 351 1165 q 369 1178 360 1174 q 392 1184 378 1182 q 426 1186 406 1186 q 460 1184 447 1186 q 483 1178 474 1182 q 501 1165 493 1174 l 583 1083 q 601 1063 596 1071 q 607 1047 607 1054 q 600 1035 607 1040 q 575 1031 593 1031 q 551 1033 561 1031 q 525 1046 542 1036 l 426 1106 l 329 1046 q 304 1034 315 1038 q 278 1031 293 1031 m 343 1235 q 317 1240 326 1235 q 307 1253 307 1244 q 310 1265 307 1258 q 322 1279 314 1271 l 397 1358 q 438 1384 415 1378 q 503 1390 460 1390 q 556 1384 535 1390 q 576 1365 576 1378 q 567 1344 576 1354 q 521 1310 557 1333 l 446 1264 q 397 1240 417 1246 q 343 1235 378 1235 z "},"Ậ":{"ha":851,"x_min":17,"x_max":835,"o":"m 76 -3 q 31 3 46 -3 q 17 21 17 10 q 18 30 17 25 q 21 40 19 35 l 350 953 q 368 969 354 964 q 406 975 382 975 l 446 975 q 483 969 469 975 q 501 953 497 964 l 831 39 q 834 29 833 33 q 835 21 835 25 q 821 4 835 11 q 775 -3 807 -3 l 764 -3 q 728 2 743 -3 q 708 19 713 7 l 446 767 q 434 807 440 786 q 425 847 428 828 l 422 847 q 414 807 418 828 q 403 767 410 786 l 139 19 q 119 2 135 7 q 83 -3 104 -3 l 76 -3 m 174 250 l 174 353 l 672 353 l 672 250 l 174 250 m 426 -243 q 381 -235 396 -243 q 367 -212 367 -228 l 367 -142 q 381 -119 367 -126 q 426 -111 396 -111 q 472 -119 458 -111 q 486 -142 486 -126 l 486 -212 q 472 -235 486 -228 q 426 -243 458 -243 m 278 1031 q 253 1035 260 1031 q 246 1047 246 1040 q 251 1063 246 1054 q 269 1083 257 1071 l 351 1165 q 369 1178 360 1174 q 392 1184 378 1182 q 426 1186 406 1186 q 460 1184 447 1186 q 483 1178 474 1182 q 501 1165 493 1174 l 583 1083 q 601 1063 596 1071 q 607 1047 607 1054 q 600 1035 607 1040 q 575 1031 593 1031 q 551 1033 561 1031 q 525 1046 542 1036 l 426 1106 l 329 1046 q 304 1034 315 1038 q 278 1031 293 1031 z "},"Ầ":{"ha":851,"x_min":17,"x_max":835,"o":"m 76 -3 q 31 3 46 -3 q 17 21 17 10 q 18 30 17 25 q 21 40 19 35 l 350 953 q 368 969 354 964 q 406 975 382 975 l 446 975 q 483 969 469 975 q 501 953 497 964 l 831 39 q 834 29 833 33 q 835 21 835 25 q 821 4 835 11 q 775 -3 807 -3 l 764 -3 q 728 2 743 -3 q 708 19 713 7 l 446 767 q 434 807 440 786 q 425 847 428 828 l 422 847 q 414 807 418 828 q 403 767 410 786 l 139 19 q 119 2 135 7 q 83 -3 104 -3 l 76 -3 m 174 250 l 174 353 l 672 353 l 672 250 l 174 250 m 278 1031 q 253 1035 260 1031 q 246 1047 246 1040 q 251 1063 246 1054 q 269 1083 257 1071 l 351 1165 q 369 1178 360 1174 q 392 1184 378 1182 q 426 1186 406 1186 q 460 1184 447 1186 q 483 1178 474 1182 q 501 1165 493 1174 l 583 1083 q 601 1063 596 1071 q 607 1047 607 1054 q 600 1035 607 1040 q 575 1031 593 1031 q 551 1033 561 1031 q 525 1046 542 1036 l 426 1106 l 329 1046 q 304 1034 315 1038 q 278 1031 293 1031 m 510 1235 q 456 1240 475 1235 q 407 1264 436 1246 l 332 1310 q 286 1344 296 1333 q 276 1365 276 1354 q 297 1384 276 1378 q 350 1390 318 1390 q 416 1384 394 1390 q 456 1358 438 1378 l 531 1279 q 542 1265 539 1271 q 546 1253 546 1258 q 536 1240 546 1244 q 510 1235 526 1235 z "},"Ẩ":{"ha":851,"x_min":17,"x_max":835,"o":"m 76 -3 q 31 3 46 -3 q 17 21 17 10 q 18 30 17 25 q 21 40 19 35 l 350 953 q 368 969 354 964 q 406 975 382 975 l 446 975 q 483 969 469 975 q 501 953 497 964 l 831 39 q 834 29 833 33 q 835 21 835 25 q 821 4 835 11 q 775 -3 807 -3 l 764 -3 q 728 2 743 -3 q 708 19 713 7 l 446 767 q 434 807 440 786 q 425 847 428 828 l 422 847 q 414 807 418 828 q 403 767 410 786 l 139 19 q 119 2 135 7 q 83 -3 104 -3 l 76 -3 m 174 250 l 174 353 l 672 353 l 672 250 l 174 250 m 278 1031 q 253 1035 260 1031 q 246 1047 246 1040 q 251 1063 246 1054 q 269 1083 257 1071 l 351 1165 q 369 1178 360 1174 q 392 1184 378 1182 q 426 1186 406 1186 q 460 1184 447 1186 q 483 1178 474 1182 q 501 1165 493 1174 l 583 1083 q 601 1063 596 1071 q 607 1047 607 1054 q 600 1035 607 1040 q 575 1031 593 1031 q 551 1033 561 1031 q 525 1046 542 1036 l 426 1106 l 329 1046 q 304 1034 315 1038 q 278 1031 293 1031 m 414 1218 q 393 1231 404 1218 q 382 1253 382 1243 q 396 1267 382 1258 q 428 1285 410 1275 q 460 1310 446 1296 q 474 1342 474 1324 q 454 1372 474 1364 q 406 1379 435 1379 q 358 1370 375 1379 q 335 1361 342 1361 q 322 1369 329 1361 q 308 1389 314 1378 q 301 1407 301 1400 q 319 1425 301 1415 q 365 1442 338 1435 q 421 1450 392 1450 q 479 1442 449 1450 q 531 1415 510 1435 q 553 1358 553 1394 q 535 1304 553 1329 q 493 1260 518 1279 q 446 1229 468 1240 q 414 1218 424 1218 z "},"Ẫ":{"ha":851,"x_min":17,"x_max":835,"o":"m 76 -3 q 31 3 46 -3 q 17 21 17 10 q 18 30 17 25 q 21 40 19 35 l 350 953 q 368 969 354 964 q 406 975 382 975 l 446 975 q 483 969 469 975 q 501 953 497 964 l 831 39 q 834 29 833 33 q 835 21 835 25 q 821 4 835 11 q 775 -3 807 -3 l 764 -3 q 728 2 743 -3 q 708 19 713 7 l 446 767 q 434 807 440 786 q 425 847 428 828 l 422 847 q 414 807 418 828 q 403 767 410 786 l 139 19 q 119 2 135 7 q 83 -3 104 -3 l 76 -3 m 174 250 l 174 353 l 672 353 l 672 250 l 174 250 m 278 1031 q 253 1035 260 1031 q 246 1047 246 1040 q 251 1063 246 1054 q 269 1083 257 1071 l 351 1165 q 369 1178 360 1174 q 392 1184 378 1182 q 426 1186 406 1186 q 460 1184 447 1186 q 483 1178 474 1182 q 501 1165 493 1174 l 583 1083 q 601 1063 596 1071 q 607 1047 607 1054 q 600 1035 607 1040 q 575 1031 593 1031 q 551 1033 561 1031 q 525 1046 542 1036 l 426 1106 l 329 1046 q 304 1034 315 1038 q 278 1031 293 1031 m 233 1236 q 217 1240 228 1236 q 199 1249 207 1243 q 190 1261 190 1254 q 192 1272 190 1267 q 194 1282 193 1276 q 251 1353 218 1333 q 317 1372 285 1372 q 397 1360 357 1372 q 474 1334 438 1347 q 539 1321 511 1321 q 581 1335 567 1321 q 601 1364 594 1350 q 617 1378 608 1378 q 645 1369 628 1378 q 663 1353 663 1361 q 660 1338 663 1349 q 647 1308 657 1328 q 607 1258 629 1276 q 536 1240 585 1240 q 451 1253 493 1240 q 374 1279 410 1267 q 310 1292 338 1292 q 273 1278 286 1292 q 251 1250 260 1264 q 233 1236 243 1236 z "},"Ȁ":{"ha":851,"x_min":17,"x_max":835,"o":"m 76 -3 q 31 3 46 -3 q 17 21 17 10 q 18 30 17 25 q 21 40 19 35 l 350 953 q 368 969 354 964 q 406 975 382 975 l 446 975 q 483 969 469 975 q 501 953 497 964 l 831 39 q 834 29 833 33 q 835 21 835 25 q 821 4 835 11 q 775 -3 807 -3 l 764 -3 q 728 2 743 -3 q 708 19 713 7 l 446 767 q 434 807 440 786 q 425 847 428 828 l 422 847 q 414 807 418 828 q 403 767 410 786 l 139 19 q 119 2 135 7 q 83 -3 104 -3 l 76 -3 m 174 250 l 174 353 l 672 353 l 672 250 l 174 250 m 343 1044 q 289 1050 308 1044 q 240 1074 269 1056 l 165 1119 q 119 1153 129 1143 q 110 1175 110 1164 q 131 1194 110 1188 q 183 1200 151 1200 q 249 1194 228 1200 q 289 1168 271 1188 l 364 1089 q 376 1074 372 1081 q 379 1063 379 1068 q 369 1049 379 1054 q 343 1044 360 1044 m 574 1044 q 519 1050 539 1044 q 471 1074 500 1056 l 396 1119 q 350 1153 360 1143 q 340 1175 340 1164 q 361 1194 340 1188 q 414 1200 382 1200 q 480 1194 458 1200 q 519 1168 501 1188 l 594 1089 q 606 1074 603 1081 q 610 1063 610 1068 q 600 1049 610 1054 q 574 1044 590 1044 z "},"Ä":{"ha":851,"x_min":17,"x_max":835,"o":"m 76 -3 q 31 3 46 -3 q 17 21 17 10 q 18 30 17 25 q 21 40 19 35 l 350 953 q 368 969 354 964 q 406 975 382 975 l 446 975 q 483 969 469 975 q 501 953 497 964 l 831 39 q 834 29 833 33 q 835 21 835 25 q 821 4 835 11 q 775 -3 807 -3 l 764 -3 q 728 2 743 -3 q 708 19 713 7 l 446 767 q 434 807 440 786 q 425 847 428 828 l 422 847 q 414 807 418 828 q 403 767 410 786 l 139 19 q 119 2 135 7 q 83 -3 104 -3 l 76 -3 m 174 250 l 174 353 l 672 353 l 672 250 l 174 250 m 539 1053 q 492 1060 507 1053 q 478 1083 478 1068 l 478 1161 q 492 1184 478 1176 q 539 1192 507 1192 q 585 1184 571 1192 q 600 1161 600 1176 l 600 1083 q 585 1060 600 1068 q 539 1053 571 1053 m 314 1053 q 267 1060 282 1053 q 253 1083 253 1068 l 253 1161 q 267 1184 253 1176 q 314 1192 282 1192 q 360 1184 346 1192 q 375 1161 375 1176 l 375 1083 q 360 1060 375 1068 q 314 1053 346 1053 z "},"Ạ":{"ha":851,"x_min":17,"x_max":835,"o":"m 76 -3 q 31 3 46 -3 q 17 21 17 10 q 18 30 17 25 q 21 40 19 35 l 350 953 q 368 969 354 964 q 406 975 382 975 l 446 975 q 483 969 469 975 q 501 953 497 964 l 831 39 q 834 29 833 33 q 835 21 835 25 q 821 4 835 11 q 775 -3 807 -3 l 764 -3 q 728 2 743 -3 q 708 19 713 7 l 446 767 q 434 807 440 786 q 425 847 428 828 l 422 847 q 414 807 418 828 q 403 767 410 786 l 139 19 q 119 2 135 7 q 83 -3 104 -3 l 76 -3 m 174 250 l 174 353 l 672 353 l 672 250 l 174 250 m 426 -243 q 381 -235 396 -243 q 367 -212 367 -228 l 367 -142 q 381 -119 367 -126 q 426 -111 396 -111 q 472 -119 458 -111 q 486 -142 486 -126 l 486 -212 q 472 -235 486 -228 q 426 -243 458 -243 z "},"À":{"ha":851,"x_min":17,"x_max":835,"o":"m 76 -3 q 31 3 46 -3 q 17 21 17 10 q 18 30 17 25 q 21 40 19 35 l 350 953 q 368 969 354 964 q 406 975 382 975 l 446 975 q 483 969 469 975 q 501 953 497 964 l 831 39 q 834 29 833 33 q 835 21 835 25 q 821 4 835 11 q 775 -3 807 -3 l 764 -3 q 728 2 743 -3 q 708 19 713 7 l 446 767 q 434 807 440 786 q 425 847 428 828 l 422 847 q 414 807 418 828 q 403 767 410 786 l 139 19 q 119 2 135 7 q 83 -3 104 -3 l 76 -3 m 174 250 l 174 353 l 672 353 l 672 250 l 174 250 m 510 1044 q 456 1050 475 1044 q 407 1074 436 1056 l 332 1119 q 286 1153 296 1143 q 276 1175 276 1164 q 297 1194 276 1188 q 350 1200 318 1200 q 416 1194 394 1200 q 456 1168 438 1188 l 531 1089 q 542 1074 539 1081 q 546 1063 546 1068 q 536 1049 546 1054 q 510 1044 526 1044 z "},"Ả":{"ha":851,"x_min":17,"x_max":835,"o":"m 76 -3 q 31 3 46 -3 q 17 21 17 10 q 18 30 17 25 q 21 40 19 35 l 350 953 q 368 969 354 964 q 406 975 382 975 l 446 975 q 483 969 469 975 q 501 953 497 964 l 831 39 q 834 29 833 33 q 835 21 835 25 q 821 4 835 11 q 775 -3 807 -3 l 764 -3 q 728 2 743 -3 q 708 19 713 7 l 446 767 q 434 807 440 786 q 425 847 428 828 l 422 847 q 414 807 418 828 q 403 767 410 786 l 139 19 q 119 2 135 7 q 83 -3 104 -3 l 76 -3 m 174 250 l 174 353 l 672 353 l 672 250 l 174 250 m 414 1028 q 393 1040 404 1028 q 382 1063 382 1053 q 396 1076 382 1068 q 428 1095 410 1085 q 460 1119 446 1106 q 474 1151 474 1133 q 454 1181 474 1174 q 406 1189 435 1189 q 358 1180 375 1189 q 335 1171 342 1171 q 322 1179 329 1171 q 308 1199 314 1188 q 301 1217 301 1210 q 319 1235 301 1225 q 365 1252 338 1244 q 421 1260 392 1260 q 479 1252 449 1260 q 531 1224 510 1244 q 553 1168 553 1204 q 535 1114 553 1139 q 493 1069 518 1089 q 446 1039 468 1050 q 414 1028 424 1028 z "},"Ȃ":{"ha":851,"x_min":17,"x_max":835,"o":"m 76 -3 q 31 3 46 -3 q 17 21 17 10 q 18 30 17 25 q 21 40 19 35 l 350 953 q 368 969 354 964 q 406 975 382 975 l 446 975 q 483 969 469 975 q 501 953 497 964 l 831 39 q 834 29 833 33 q 835 21 835 25 q 821 4 835 11 q 775 -3 807 -3 l 764 -3 q 728 2 743 -3 q 708 19 713 7 l 446 767 q 434 807 440 786 q 425 847 428 828 l 422 847 q 414 807 418 828 q 403 767 410 786 l 139 19 q 119 2 135 7 q 83 -3 104 -3 l 76 -3 m 174 250 l 174 353 l 672 353 l 672 250 l 174 250 m 269 1033 q 249 1042 256 1033 q 243 1068 243 1050 q 265 1143 243 1110 q 329 1195 288 1176 q 426 1214 371 1214 q 523 1195 482 1214 q 586 1143 564 1176 q 608 1068 608 1110 q 603 1042 608 1050 q 585 1033 597 1033 q 556 1056 565 1033 q 509 1106 543 1089 q 426 1122 475 1122 q 342 1106 376 1122 q 297 1056 308 1089 q 286 1038 292 1043 q 269 1033 281 1033 z "},"Ā":{"ha":851,"x_min":17,"x_max":835,"o":"m 76 -3 q 31 3 46 -3 q 17 21 17 10 q 18 30 17 25 q 21 40 19 35 l 350 953 q 368 969 354 964 q 406 975 382 975 l 446 975 q 483 969 469 975 q 501 953 497 964 l 831 39 q 834 29 833 33 q 835 21 835 25 q 821 4 835 11 q 775 -3 807 -3 l 764 -3 q 728 2 743 -3 q 708 19 713 7 l 446 767 q 434 807 440 786 q 425 847 428 828 l 422 847 q 414 807 418 828 q 403 767 410 786 l 139 19 q 119 2 135 7 q 83 -3 104 -3 l 76 -3 m 174 250 l 174 353 l 672 353 l 672 250 l 174 250 m 265 1075 q 239 1117 239 1075 l 239 1131 q 265 1172 239 1172 l 588 1172 q 614 1131 614 1172 l 614 1117 q 588 1075 614 1075 l 265 1075 z "},"Ą":{"ha":851,"x_min":17,"x_max":889,"o":"m 76 -3 q 31 3 46 -3 q 17 21 17 10 q 18 30 17 25 q 21 40 19 35 l 350 953 q 368 969 354 964 q 406 975 382 975 l 446 975 q 483 969 469 975 q 501 953 497 964 l 831 39 q 834 29 833 33 q 835 21 835 25 q 821 4 835 11 q 775 -3 807 -3 l 764 -3 q 728 2 743 -3 q 708 19 713 7 l 446 767 q 434 807 440 786 q 425 847 428 828 l 422 847 q 414 807 418 828 q 403 767 410 786 l 139 19 q 119 2 135 7 q 83 -3 104 -3 l 76 -3 m 174 250 l 174 353 l 672 353 l 672 250 l 174 250 m 763 -254 q 667 -222 701 -254 q 632 -146 632 -190 q 647 -83 632 -115 q 690 -23 661 -51 q 763 24 719 6 l 832 14 q 755 -47 783 -12 q 726 -122 726 -82 q 740 -153 726 -142 q 778 -165 753 -165 q 813 -160 797 -165 q 840 -149 828 -154 q 860 -143 851 -143 q 875 -153 868 -143 q 885 -175 882 -162 q 889 -197 889 -187 q 868 -224 889 -211 q 818 -246 847 -237 q 763 -254 789 -254 z "},"Å":{"ha":851,"x_min":17,"x_max":835,"o":"m 76 -3 q 31 3 46 -3 q 17 21 17 10 q 18 30 17 25 q 21 40 19 35 l 350 953 q 368 969 354 964 q 406 975 382 975 l 446 975 q 483 969 469 975 q 501 953 497 964 l 831 39 q 834 29 833 33 q 835 21 835 25 q 821 4 835 11 q 775 -3 807 -3 l 764 -3 q 728 2 743 -3 q 708 19 713 7 l 446 767 q 434 807 440 786 q 425 847 428 828 l 422 847 q 414 807 418 828 q 403 767 410 786 l 139 19 q 119 2 135 7 q 83 -3 104 -3 l 76 -3 m 174 250 l 174 353 l 672 353 l 672 250 l 174 250 m 426 1038 q 337 1069 371 1038 q 303 1154 303 1101 q 337 1240 303 1208 q 426 1272 371 1272 q 517 1240 483 1272 q 550 1154 550 1208 q 517 1069 550 1101 q 426 1038 483 1038 m 426 1104 q 464 1117 450 1104 q 478 1154 478 1131 q 464 1192 478 1178 q 426 1206 450 1206 q 390 1192 404 1206 q 375 1154 375 1178 q 390 1117 375 1131 q 426 1104 404 1104 z "},"Ǻ":{"ha":851,"x_min":17,"x_max":835,"o":"m 76 -3 q 31 3 46 -3 q 17 21 17 10 q 18 30 17 25 q 21 40 19 35 l 350 953 q 368 969 354 964 q 406 975 382 975 l 446 975 q 483 969 469 975 q 501 953 497 964 l 831 39 q 834 29 833 33 q 835 21 835 25 q 821 4 835 11 q 775 -3 807 -3 l 764 -3 q 728 2 743 -3 q 708 19 713 7 l 446 767 q 434 807 440 786 q 425 847 428 828 l 422 847 q 414 807 418 828 q 403 767 410 786 l 139 19 q 119 2 135 7 q 83 -3 104 -3 l 76 -3 m 174 250 l 174 353 l 672 353 l 672 250 l 174 250 m 426 1038 q 337 1069 371 1038 q 303 1154 303 1101 q 337 1240 303 1208 q 426 1272 371 1272 q 517 1240 483 1272 q 550 1154 550 1208 q 517 1069 550 1101 q 426 1038 483 1038 m 426 1104 q 464 1117 450 1104 q 478 1154 478 1131 q 464 1192 478 1178 q 426 1206 450 1206 q 390 1192 404 1206 q 375 1154 375 1178 q 390 1117 375 1131 q 426 1104 404 1104 m 343 1290 q 317 1295 326 1290 q 307 1308 307 1300 q 310 1320 307 1314 q 322 1335 314 1326 l 397 1414 q 438 1440 415 1433 q 503 1446 460 1446 q 556 1440 535 1446 q 576 1421 576 1433 q 567 1399 576 1410 q 521 1365 557 1389 l 446 1319 q 397 1296 417 1301 q 343 1290 378 1290 z "},"Ã":{"ha":851,"x_min":17,"x_max":835,"o":"m 76 -3 q 31 3 46 -3 q 17 21 17 10 q 18 30 17 25 q 21 40 19 35 l 350 953 q 368 969 354 964 q 406 975 382 975 l 446 975 q 483 969 469 975 q 501 953 497 964 l 831 39 q 834 29 833 33 q 835 21 835 25 q 821 4 835 11 q 775 -3 807 -3 l 764 -3 q 728 2 743 -3 q 708 19 713 7 l 446 767 q 434 807 440 786 q 425 847 428 828 l 422 847 q 414 807 418 828 q 403 767 410 786 l 139 19 q 119 2 135 7 q 83 -3 104 -3 l 76 -3 m 174 250 l 174 353 l 672 353 l 672 250 l 174 250 m 233 1046 q 217 1049 228 1046 q 199 1058 207 1053 q 190 1071 190 1064 q 192 1081 190 1076 q 194 1092 193 1086 q 251 1163 218 1143 q 317 1182 285 1182 q 397 1169 357 1182 q 474 1144 438 1157 q 539 1131 511 1131 q 581 1145 567 1131 q 601 1174 594 1160 q 617 1188 608 1188 q 645 1179 628 1188 q 663 1163 663 1171 q 660 1148 663 1158 q 647 1118 657 1138 q 607 1068 629 1086 q 536 1050 585 1050 q 451 1063 493 1050 q 374 1089 410 1076 q 310 1101 338 1101 q 273 1088 286 1101 q 251 1060 260 1074 q 233 1046 243 1046 z "},"Æ":{"ha":1201,"x_min":15,"x_max":1133,"o":"m 76 -3 q 31 3 46 -3 q 15 21 15 10 q 17 30 15 25 q 21 40 18 35 l 453 950 q 464 962 457 957 q 482 969 471 967 q 508 972 493 972 l 1104 972 q 1132 931 1132 972 l 1132 908 q 1104 867 1132 867 l 658 867 l 703 550 l 1063 550 q 1090 508 1090 550 l 1090 486 q 1063 444 1090 444 l 717 444 l 764 106 l 1106 106 q 1133 64 1133 106 l 1133 42 q 1106 0 1133 0 l 690 0 q 659 10 668 0 q 647 42 650 19 l 536 844 l 531 844 l 139 19 q 119 2 133 7 q 83 -3 104 -3 l 76 -3 m 210 250 l 210 353 l 672 353 l 672 250 l 210 250 z "},"Ǽ":{"ha":1201,"x_min":15,"x_max":1133,"o":"m 76 -3 q 31 3 46 -3 q 15 21 15 10 q 17 30 15 25 q 21 40 18 35 l 453 950 q 464 962 457 957 q 482 969 471 967 q 508 972 493 972 l 1104 972 q 1132 931 1132 972 l 1132 908 q 1104 867 1132 867 l 658 867 l 703 550 l 1063 550 q 1090 508 1090 550 l 1090 486 q 1063 444 1090 444 l 717 444 l 764 106 l 1106 106 q 1133 64 1133 106 l 1133 42 q 1106 0 1133 0 l 690 0 q 659 10 668 0 q 647 42 650 19 l 536 844 l 531 844 l 139 19 q 119 2 133 7 q 83 -3 104 -3 l 76 -3 m 210 250 l 210 353 l 672 353 l 672 250 l 210 250 m 560 1044 q 533 1049 543 1044 q 524 1063 524 1054 q 527 1074 524 1068 q 539 1089 531 1081 l 614 1168 q 654 1194 632 1188 q 719 1200 676 1200 q 772 1194 751 1200 q 793 1175 793 1188 q 783 1153 793 1164 q 738 1119 774 1143 l 663 1074 q 614 1050 633 1056 q 560 1044 594 1044 z "},"B":{"ha":824,"x_min":135,"x_max":778,"o":"m 178 0 q 135 42 135 0 l 135 931 q 178 972 135 972 l 425 972 q 598 941 529 972 q 701 855 667 910 q 736 726 736 800 q 715 634 736 679 q 658 556 693 589 q 583 513 624 524 l 583 507 q 688 461 644 493 q 754 383 731 429 q 778 279 778 336 q 736 122 778 183 q 613 30 694 60 q 415 0 532 0 l 178 0 m 260 106 l 460 106 q 601 151 550 106 q 651 278 651 197 q 597 400 651 356 q 436 444 543 444 l 260 444 l 260 106 m 260 550 l 418 550 q 556 599 503 550 q 610 715 610 647 q 563 830 610 793 q 413 867 517 867 l 260 867 l 260 550 z "},"C":{"ha":860,"x_min":79,"x_max":814,"o":"m 526 -8 q 189 112 299 -8 q 79 486 79 232 q 193 858 79 735 q 529 981 307 981 q 621 974 576 981 q 701 956 665 967 q 761 931 738 944 q 785 912 776 921 q 794 894 794 903 q 791 874 794 886 q 781 851 788 863 q 767 831 775 839 q 751 824 760 824 q 713 837 740 824 q 642 863 686 850 q 532 875 597 875 q 349 835 421 875 q 241 708 276 794 q 206 485 206 622 q 240 266 206 351 q 347 139 275 181 q 526 97 418 97 q 623 107 581 97 q 697 128 665 117 q 747 150 728 140 q 774 160 767 160 q 790 151 782 160 q 803 132 797 143 q 811 110 808 121 q 814 93 814 99 q 802 69 814 81 q 769 46 790 57 q 708 19 744 32 q 625 -1 671 7 q 526 -8 579 -8 z "},"Ć":{"ha":860,"x_min":79,"x_max":814,"o":"m 526 -8 q 189 112 299 -8 q 79 486 79 232 q 193 858 79 735 q 529 981 307 981 q 621 974 576 981 q 701 956 665 967 q 761 931 738 944 q 785 912 776 921 q 794 894 794 903 q 791 874 794 886 q 781 851 788 863 q 767 831 775 839 q 751 824 760 824 q 713 837 740 824 q 642 863 686 850 q 532 875 597 875 q 349 835 421 875 q 241 708 276 794 q 206 485 206 622 q 240 266 206 351 q 347 139 275 181 q 526 97 418 97 q 623 107 581 97 q 697 128 665 117 q 747 150 728 140 q 774 160 767 160 q 790 151 782 160 q 803 132 797 143 q 811 110 808 121 q 814 93 814 99 q 802 69 814 81 q 769 46 790 57 q 708 19 744 32 q 625 -1 671 7 q 526 -8 579 -8 m 424 1044 q 397 1049 407 1044 q 388 1063 388 1054 q 391 1074 388 1068 q 403 1089 394 1081 l 478 1168 q 518 1194 496 1188 q 583 1200 540 1200 q 636 1194 615 1200 q 657 1175 657 1188 q 647 1153 657 1164 q 601 1119 638 1143 l 526 1074 q 478 1050 497 1056 q 424 1044 458 1044 z "},"Č":{"ha":860,"x_min":79,"x_max":814,"o":"m 526 -8 q 189 112 299 -8 q 79 486 79 232 q 193 858 79 735 q 529 981 307 981 q 621 974 576 981 q 701 956 665 967 q 761 931 738 944 q 785 912 776 921 q 794 894 794 903 q 791 874 794 886 q 781 851 788 863 q 767 831 775 839 q 751 824 760 824 q 713 837 740 824 q 642 863 686 850 q 532 875 597 875 q 349 835 421 875 q 241 708 276 794 q 206 485 206 622 q 240 266 206 351 q 347 139 275 181 q 526 97 418 97 q 623 107 581 97 q 697 128 665 117 q 747 150 728 140 q 774 160 767 160 q 790 151 782 160 q 803 132 797 143 q 811 110 808 121 q 814 93 814 99 q 802 69 814 81 q 769 46 790 57 q 708 19 744 32 q 625 -1 671 7 q 526 -8 579 -8 m 656 1186 q 681 1181 674 1186 q 688 1169 688 1176 q 682 1154 688 1163 q 664 1133 676 1146 l 582 1051 q 565 1039 574 1043 q 542 1033 556 1035 q 507 1031 528 1031 q 473 1033 486 1031 q 450 1039 460 1035 q 432 1051 440 1043 l 350 1133 q 332 1154 338 1146 q 326 1169 326 1163 q 333 1181 326 1176 q 358 1186 340 1186 q 383 1184 374 1186 q 408 1171 392 1182 l 507 1111 l 604 1171 q 630 1183 618 1179 q 656 1186 642 1186 z "},"Ç":{"ha":860,"x_min":79,"x_max":814,"o":"m 526 -8 q 189 112 299 -8 q 79 486 79 232 q 193 858 79 735 q 529 981 307 981 q 621 974 576 981 q 701 956 665 967 q 761 931 738 944 q 785 912 776 921 q 794 894 794 903 q 791 874 794 886 q 781 851 788 863 q 767 831 775 839 q 751 824 760 824 q 713 837 740 824 q 642 863 686 850 q 532 875 597 875 q 349 835 421 875 q 241 708 276 794 q 206 485 206 622 q 240 266 206 351 q 347 139 275 181 q 526 97 418 97 q 623 107 581 97 q 697 128 665 117 q 747 150 728 140 q 774 160 767 160 q 790 151 782 160 q 803 132 797 143 q 811 110 808 121 q 814 93 814 99 q 802 69 814 81 q 769 46 790 57 q 708 19 744 32 q 625 -1 671 7 q 526 -8 579 -8 m 492 -292 q 424 -285 461 -292 q 359 -267 386 -279 q 332 -240 332 -256 q 335 -223 332 -233 q 344 -204 338 -212 q 357 -196 350 -196 q 386 -203 368 -196 q 429 -217 404 -210 q 488 -224 454 -224 q 517 -220 500 -224 q 549 -206 535 -217 q 563 -175 563 -196 q 547 -142 563 -151 q 510 -131 531 -133 q 474 -123 490 -128 q 458 -104 458 -118 q 462 -86 458 -99 q 473 -51 465 -74 q 490 8 481 -28 l 550 8 l 524 -82 l 511 -75 q 616 -101 581 -75 q 651 -174 651 -126 q 626 -250 651 -225 q 563 -283 600 -275 q 492 -292 526 -292 z "},"Ĉ":{"ha":860,"x_min":79,"x_max":814,"o":"m 526 -8 q 189 112 299 -8 q 79 486 79 232 q 193 858 79 735 q 529 981 307 981 q 621 974 576 981 q 701 956 665 967 q 761 931 738 944 q 785 912 776 921 q 794 894 794 903 q 791 874 794 886 q 781 851 788 863 q 767 831 775 839 q 751 824 760 824 q 713 837 740 824 q 642 863 686 850 q 532 875 597 875 q 349 835 421 875 q 241 708 276 794 q 206 485 206 622 q 240 266 206 351 q 347 139 275 181 q 526 97 418 97 q 623 107 581 97 q 697 128 665 117 q 747 150 728 140 q 774 160 767 160 q 790 151 782 160 q 803 132 797 143 q 811 110 808 121 q 814 93 814 99 q 802 69 814 81 q 769 46 790 57 q 708 19 744 32 q 625 -1 671 7 q 526 -8 579 -8 m 358 1031 q 333 1035 340 1031 q 326 1047 326 1040 q 332 1063 326 1054 q 350 1083 338 1071 l 432 1165 q 449 1178 440 1174 q 472 1184 458 1182 q 507 1186 486 1186 q 541 1184 528 1186 q 564 1178 554 1182 q 582 1165 574 1174 l 664 1083 q 682 1063 676 1071 q 688 1047 688 1054 q 681 1035 688 1040 q 656 1031 674 1031 q 632 1033 642 1031 q 606 1046 622 1036 l 507 1106 l 410 1046 q 385 1034 396 1038 q 358 1031 374 1031 z "},"Ċ":{"ha":860,"x_min":79,"x_max":814,"o":"m 526 -8 q 189 112 299 -8 q 79 486 79 232 q 193 858 79 735 q 529 981 307 981 q 621 974 576 981 q 701 956 665 967 q 761 931 738 944 q 785 912 776 921 q 794 894 794 903 q 791 874 794 886 q 781 851 788 863 q 767 831 775 839 q 751 824 760 824 q 713 837 740 824 q 642 863 686 850 q 532 875 597 875 q 349 835 421 875 q 241 708 276 794 q 206 485 206 622 q 240 266 206 351 q 347 139 275 181 q 526 97 418 97 q 623 107 581 97 q 697 128 665 117 q 747 150 728 140 q 774 160 767 160 q 790 151 782 160 q 803 132 797 143 q 811 110 808 121 q 814 93 814 99 q 802 69 814 81 q 769 46 790 57 q 708 19 744 32 q 625 -1 671 7 q 526 -8 579 -8 m 507 1051 q 458 1060 472 1051 q 444 1082 444 1068 l 444 1165 q 458 1188 444 1179 q 507 1196 472 1196 q 556 1188 542 1196 q 569 1165 569 1181 l 569 1082 q 556 1060 569 1068 q 507 1051 542 1051 z "},"D":{"ha":965,"x_min":135,"x_max":886,"o":"m 178 0 q 135 42 135 0 l 135 931 q 178 972 135 972 l 457 972 q 776 851 667 972 q 886 489 886 729 q 776 125 886 250 q 457 0 667 0 l 178 0 m 260 106 l 457 106 q 682 203 604 106 q 760 489 760 301 q 682 772 760 676 q 457 867 604 867 l 260 867 l 260 106 z "},"Ǳ":{"ha":1738,"x_min":135,"x_max":1681,"o":"m 178 0 q 135 42 135 0 l 135 931 q 178 972 135 972 l 457 972 q 776 851 667 972 q 886 489 886 729 q 776 125 886 250 q 457 0 667 0 l 178 0 m 260 106 l 457 106 q 682 203 604 106 q 760 489 760 301 q 682 772 760 676 q 457 867 604 867 l 260 867 l 260 106 m 1035 0 q 1019 6 1026 0 q 1006 24 1011 13 q 998 47 1001 35 q 994 72 994 60 q 996 85 994 79 q 1003 100 997 92 l 1550 913 l 1581 867 l 1035 867 q 1008 908 1008 867 l 1008 931 q 1035 972 1008 972 l 1640 972 q 1656 966 1649 972 q 1669 949 1664 960 q 1677 925 1674 938 q 1681 900 1681 913 q 1680 887 1681 893 q 1672 872 1679 881 l 1125 60 l 1097 106 l 1650 106 q 1678 64 1678 106 l 1678 42 q 1650 0 1678 0 l 1035 0 z "},"Ǆ":{"ha":1738,"x_min":135,"x_max":1681,"o":"m 178 0 q 135 42 135 0 l 135 931 q 178 972 135 972 l 457 972 q 776 851 667 972 q 886 489 886 729 q 776 125 886 250 q 457 0 667 0 l 178 0 m 260 106 l 457 106 q 682 203 604 106 q 760 489 760 301 q 682 772 760 676 q 457 867 604 867 l 260 867 l 260 106 m 1035 0 q 1019 6 1026 0 q 1006 24 1011 13 q 998 47 1001 35 q 994 72 994 60 q 996 85 994 79 q 1003 100 997 92 l 1550 913 l 1581 867 l 1035 867 q 1008 908 1008 867 l 1008 931 q 1035 972 1008 972 l 1640 972 q 1656 966 1649 972 q 1669 949 1664 960 q 1677 925 1674 938 q 1681 900 1681 913 q 1680 887 1681 893 q 1672 872 1679 881 l 1125 60 l 1097 106 l 1650 106 q 1678 64 1678 106 l 1678 42 q 1650 0 1678 0 l 1035 0 m 1486 1186 q 1511 1181 1504 1186 q 1518 1169 1518 1176 q 1513 1154 1518 1163 q 1494 1133 1507 1146 l 1413 1051 q 1395 1039 1404 1043 q 1372 1033 1386 1035 q 1338 1031 1358 1031 q 1303 1033 1317 1031 q 1281 1039 1290 1035 q 1263 1051 1271 1043 l 1181 1133 q 1163 1154 1168 1146 q 1157 1169 1157 1163 q 1164 1181 1157 1176 q 1189 1186 1171 1186 q 1213 1184 1204 1186 q 1239 1171 1222 1182 l 1338 1111 l 1435 1171 q 1460 1183 1449 1179 q 1486 1186 1472 1186 z "},"Ð":{"ha":965,"x_min":14,"x_max":886,"o":"m 40 444 q 20 454 26 444 q 14 486 14 464 l 14 508 q 20 540 14 531 q 40 550 26 550 l 500 550 q 520 540 514 550 q 526 508 526 531 l 526 486 q 520 454 526 464 q 500 444 514 444 l 40 444 m 178 0 q 135 42 135 0 l 135 931 q 178 972 135 972 l 457 972 q 776 851 667 972 q 886 489 886 729 q 776 125 886 250 q 457 0 667 0 l 178 0 m 260 106 l 457 106 q 682 203 604 106 q 760 489 760 301 q 682 772 760 676 q 457 867 604 867 l 260 867 l 260 106 z "},"Ď":{"ha":965,"x_min":135,"x_max":886,"o":"m 178 0 q 135 42 135 0 l 135 931 q 178 972 135 972 l 457 972 q 776 851 667 972 q 886 489 886 729 q 776 125 886 250 q 457 0 667 0 l 178 0 m 260 106 l 457 106 q 682 203 604 106 q 760 489 760 301 q 682 772 760 676 q 457 867 604 867 l 260 867 l 260 106 m 618 1186 q 643 1181 636 1186 q 650 1169 650 1176 q 644 1154 650 1163 q 626 1133 639 1146 l 544 1051 q 527 1039 536 1043 q 504 1033 518 1035 q 469 1031 490 1031 q 435 1033 449 1031 q 413 1039 422 1035 q 394 1051 403 1043 l 313 1133 q 294 1154 300 1146 q 289 1169 289 1163 q 296 1181 289 1176 q 321 1186 303 1186 q 345 1184 336 1186 q 371 1171 354 1182 l 469 1111 l 567 1171 q 592 1183 581 1179 q 618 1186 604 1186 z "},"Đ":{"ha":965,"x_min":14,"x_max":886,"o":"m 40 444 q 20 454 26 444 q 14 486 14 464 l 14 508 q 20 540 14 531 q 40 550 26 550 l 500 550 q 520 540 514 550 q 526 508 526 531 l 526 486 q 520 454 526 464 q 500 444 514 444 l 40 444 m 178 0 q 135 42 135 0 l 135 931 q 178 972 135 972 l 457 972 q 776 851 667 972 q 886 489 886 729 q 776 125 886 250 q 457 0 667 0 l 178 0 m 260 106 l 457 106 q 682 203 604 106 q 760 489 760 301 q 682 772 760 676 q 457 867 604 867 l 260 867 l 260 106 z "},"Ḍ":{"ha":965,"x_min":135,"x_max":886,"o":"m 178 0 q 135 42 135 0 l 135 931 q 178 972 135 972 l 457 972 q 776 851 667 972 q 886 489 886 729 q 776 125 886 250 q 457 0 667 0 l 178 0 m 260 106 l 457 106 q 682 203 604 106 q 760 489 760 301 q 682 772 760 676 q 457 867 604 867 l 260 867 l 260 106 m 469 -243 q 424 -235 439 -243 q 410 -212 410 -228 l 410 -142 q 424 -119 410 -126 q 469 -111 439 -111 q 515 -119 501 -111 q 529 -142 529 -126 l 529 -212 q 515 -235 529 -228 q 469 -243 501 -243 z "},"ǲ":{"ha":1644,"x_min":135,"x_max":1594,"o":"m 178 0 q 135 42 135 0 l 135 931 q 178 972 135 972 l 457 972 q 776 851 667 972 q 886 489 886 729 q 776 125 886 250 q 457 0 667 0 l 178 0 m 260 106 l 457 106 q 682 203 604 106 q 760 489 760 301 q 682 772 760 676 q 457 867 604 867 l 260 867 l 260 106 m 1054 0 q 1035 12 1044 0 q 1022 39 1026 24 q 1017 67 1017 54 q 1018 80 1017 74 q 1029 99 1019 86 l 1467 672 l 1497 626 l 1064 626 q 1038 668 1038 626 l 1038 685 q 1064 726 1038 726 l 1554 726 q 1574 715 1565 726 q 1587 688 1582 704 q 1592 660 1592 672 q 1590 647 1592 653 q 1579 628 1589 640 l 1142 54 l 1113 100 l 1567 100 q 1594 58 1594 100 l 1594 42 q 1567 0 1594 0 l 1054 0 z "},"ǅ":{"ha":1644,"x_min":135,"x_max":1594,"o":"m 178 0 q 135 42 135 0 l 135 931 q 178 972 135 972 l 457 972 q 776 851 667 972 q 886 489 886 729 q 776 125 886 250 q 457 0 667 0 l 178 0 m 260 106 l 457 106 q 682 203 604 106 q 760 489 760 301 q 682 772 760 676 q 457 867 604 867 l 260 867 l 260 106 m 1054 0 q 1035 12 1044 0 q 1022 39 1026 24 q 1017 67 1017 54 q 1018 80 1017 74 q 1029 99 1019 86 l 1467 672 l 1497 626 l 1064 626 q 1038 668 1038 626 l 1038 685 q 1064 726 1038 726 l 1554 726 q 1574 715 1565 726 q 1587 688 1582 704 q 1592 660 1592 672 q 1590 647 1592 653 q 1579 628 1589 640 l 1142 54 l 1113 100 l 1567 100 q 1594 58 1594 100 l 1594 42 q 1567 0 1594 0 l 1054 0 m 1443 997 q 1466 992 1458 997 q 1474 979 1474 988 q 1469 964 1474 974 q 1458 942 1465 954 l 1403 836 q 1388 817 1397 825 q 1359 804 1378 808 q 1306 800 1340 800 q 1252 804 1271 800 q 1224 817 1233 808 q 1208 836 1215 825 l 1153 942 q 1142 964 1147 954 q 1138 979 1138 974 q 1145 992 1138 988 q 1168 997 1153 997 q 1204 992 1192 997 q 1235 964 1217 986 l 1304 879 l 1374 964 q 1406 991 1392 985 q 1443 997 1419 997 z "},"E":{"ha":758,"x_min":135,"x_max":690,"o":"m 178 0 q 135 42 135 0 l 135 931 q 178 972 135 972 l 661 972 q 689 931 689 972 l 689 908 q 661 867 689 867 l 260 867 l 260 550 l 619 550 q 647 508 647 550 l 647 486 q 619 444 647 444 l 260 444 l 260 106 l 663 106 q 690 64 690 106 l 690 42 q 663 0 690 0 l 178 0 z "},"É":{"ha":758,"x_min":135,"x_max":690,"o":"m 178 0 q 135 42 135 0 l 135 931 q 178 972 135 972 l 661 972 q 689 931 689 972 l 689 908 q 661 867 689 867 l 260 867 l 260 550 l 619 550 q 647 508 647 550 l 647 486 q 619 444 647 444 l 260 444 l 260 106 l 663 106 q 690 64 690 106 l 690 42 q 663 0 690 0 l 178 0 m 336 1044 q 310 1049 319 1044 q 300 1063 300 1054 q 303 1074 300 1068 q 315 1089 307 1081 l 390 1168 q 431 1194 408 1188 q 496 1200 453 1200 q 549 1194 528 1200 q 569 1175 569 1188 q 560 1153 569 1164 q 514 1119 550 1143 l 439 1074 q 390 1050 410 1056 q 336 1044 371 1044 z "},"Ĕ":{"ha":758,"x_min":135,"x_max":690,"o":"m 178 0 q 135 42 135 0 l 135 931 q 178 972 135 972 l 661 972 q 689 931 689 972 l 689 908 q 661 867 689 867 l 260 867 l 260 550 l 619 550 q 647 508 647 550 l 647 486 q 619 444 647 444 l 260 444 l 260 106 l 663 106 q 690 64 690 106 l 690 42 q 663 0 690 0 l 178 0 m 419 1033 q 322 1053 364 1033 q 258 1105 281 1072 q 236 1179 236 1138 q 242 1206 236 1199 q 263 1214 249 1214 q 279 1209 274 1214 q 290 1192 285 1204 q 335 1142 301 1158 q 419 1125 369 1125 q 502 1142 468 1125 q 549 1192 536 1158 q 578 1214 558 1214 q 596 1206 590 1214 q 601 1179 601 1199 q 579 1105 601 1138 q 516 1053 557 1072 q 419 1033 475 1033 z "},"Ě":{"ha":758,"x_min":135,"x_max":690,"o":"m 178 0 q 135 42 135 0 l 135 931 q 178 972 135 972 l 661 972 q 689 931 689 972 l 689 908 q 661 867 689 867 l 260 867 l 260 550 l 619 550 q 647 508 647 550 l 647 486 q 619 444 647 444 l 260 444 l 260 106 l 663 106 q 690 64 690 106 l 690 42 q 663 0 690 0 l 178 0 m 568 1186 q 593 1181 586 1186 q 600 1169 600 1176 q 594 1154 600 1163 q 576 1133 589 1146 l 494 1051 q 477 1039 486 1043 q 454 1033 468 1035 q 419 1031 440 1031 q 385 1033 399 1031 q 363 1039 372 1035 q 344 1051 353 1043 l 263 1133 q 244 1154 250 1146 q 239 1169 239 1163 q 246 1181 239 1176 q 271 1186 253 1186 q 295 1184 286 1186 q 321 1171 304 1182 l 419 1111 l 517 1171 q 542 1183 531 1179 q 568 1186 554 1186 z "},"Ê":{"ha":758,"x_min":135,"x_max":690,"o":"m 178 0 q 135 42 135 0 l 135 931 q 178 972 135 972 l 661 972 q 689 931 689 972 l 689 908 q 661 867 689 867 l 260 867 l 260 550 l 619 550 q 647 508 647 550 l 647 486 q 619 444 647 444 l 260 444 l 260 106 l 663 106 q 690 64 690 106 l 690 42 q 663 0 690 0 l 178 0 m 271 1031 q 246 1035 253 1031 q 239 1047 239 1040 q 244 1063 239 1054 q 263 1083 250 1071 l 344 1165 q 362 1178 353 1174 q 385 1184 371 1182 q 419 1186 399 1186 q 453 1184 440 1186 q 476 1178 467 1182 q 494 1165 486 1174 l 576 1083 q 594 1063 589 1071 q 600 1047 600 1054 q 593 1035 600 1040 q 568 1031 586 1031 q 544 1033 554 1031 q 518 1046 535 1036 l 419 1106 l 322 1046 q 297 1034 308 1038 q 271 1031 286 1031 z "},"Ế":{"ha":758,"x_min":135,"x_max":690,"o":"m 178 0 q 135 42 135 0 l 135 931 q 178 972 135 972 l 661 972 q 689 931 689 972 l 689 908 q 661 867 689 867 l 260 867 l 260 550 l 619 550 q 647 508 647 550 l 647 486 q 619 444 647 444 l 260 444 l 260 106 l 663 106 q 690 64 690 106 l 690 42 q 663 0 690 0 l 178 0 m 271 1031 q 246 1035 253 1031 q 239 1047 239 1040 q 244 1063 239 1054 q 263 1083 250 1071 l 344 1165 q 362 1178 353 1174 q 385 1184 371 1182 q 419 1186 399 1186 q 453 1184 440 1186 q 476 1178 467 1182 q 494 1165 486 1174 l 576 1083 q 594 1063 589 1071 q 600 1047 600 1054 q 593 1035 600 1040 q 568 1031 586 1031 q 544 1033 554 1031 q 518 1046 535 1036 l 419 1106 l 322 1046 q 297 1034 308 1038 q 271 1031 286 1031 m 336 1235 q 310 1240 319 1235 q 300 1253 300 1244 q 303 1265 300 1258 q 315 1279 307 1271 l 390 1358 q 431 1384 408 1378 q 496 1390 453 1390 q 549 1384 528 1390 q 569 1365 569 1378 q 560 1344 569 1354 q 514 1310 550 1333 l 439 1264 q 390 1240 410 1246 q 336 1235 371 1235 z "},"Ệ":{"ha":758,"x_min":135,"x_max":690,"o":"m 178 0 q 135 42 135 0 l 135 931 q 178 972 135 972 l 661 972 q 689 931 689 972 l 689 908 q 661 867 689 867 l 260 867 l 260 550 l 619 550 q 647 508 647 550 l 647 486 q 619 444 647 444 l 260 444 l 260 106 l 663 106 q 690 64 690 106 l 690 42 q 663 0 690 0 l 178 0 m 418 -243 q 373 -235 388 -243 q 358 -212 358 -228 l 358 -142 q 373 -119 358 -126 q 418 -111 388 -111 q 464 -119 450 -111 q 478 -142 478 -126 l 478 -212 q 464 -235 478 -228 q 418 -243 450 -243 m 271 1031 q 246 1035 253 1031 q 239 1047 239 1040 q 244 1063 239 1054 q 263 1083 250 1071 l 344 1165 q 362 1178 353 1174 q 385 1184 371 1182 q 419 1186 399 1186 q 453 1184 440 1186 q 476 1178 467 1182 q 494 1165 486 1174 l 576 1083 q 594 1063 589 1071 q 600 1047 600 1054 q 593 1035 600 1040 q 568 1031 586 1031 q 544 1033 554 1031 q 518 1046 535 1036 l 419 1106 l 322 1046 q 297 1034 308 1038 q 271 1031 286 1031 z "},"Ề":{"ha":758,"x_min":135,"x_max":690,"o":"m 178 0 q 135 42 135 0 l 135 931 q 178 972 135 972 l 661 972 q 689 931 689 972 l 689 908 q 661 867 689 867 l 260 867 l 260 550 l 619 550 q 647 508 647 550 l 647 486 q 619 444 647 444 l 260 444 l 260 106 l 663 106 q 690 64 690 106 l 690 42 q 663 0 690 0 l 178 0 m 271 1031 q 246 1035 253 1031 q 239 1047 239 1040 q 244 1063 239 1054 q 263 1083 250 1071 l 344 1165 q 362 1178 353 1174 q 385 1184 371 1182 q 419 1186 399 1186 q 453 1184 440 1186 q 476 1178 467 1182 q 494 1165 486 1174 l 576 1083 q 594 1063 589 1071 q 600 1047 600 1054 q 593 1035 600 1040 q 568 1031 586 1031 q 544 1033 554 1031 q 518 1046 535 1036 l 419 1106 l 322 1046 q 297 1034 308 1038 q 271 1031 286 1031 m 503 1235 q 449 1240 468 1235 q 400 1264 429 1246 l 325 1310 q 279 1344 289 1333 q 269 1365 269 1354 q 290 1384 269 1378 q 343 1390 311 1390 q 409 1384 388 1390 q 449 1358 431 1378 l 524 1279 q 535 1265 532 1271 q 539 1253 539 1258 q 529 1240 539 1244 q 503 1235 519 1235 z "},"Ể":{"ha":758,"x_min":135,"x_max":690,"o":"m 178 0 q 135 42 135 0 l 135 931 q 178 972 135 972 l 661 972 q 689 931 689 972 l 689 908 q 661 867 689 867 l 260 867 l 260 550 l 619 550 q 647 508 647 550 l 647 486 q 619 444 647 444 l 260 444 l 260 106 l 663 106 q 690 64 690 106 l 690 42 q 663 0 690 0 l 178 0 m 271 1031 q 246 1035 253 1031 q 239 1047 239 1040 q 244 1063 239 1054 q 263 1083 250 1071 l 344 1165 q 362 1178 353 1174 q 385 1184 371 1182 q 419 1186 399 1186 q 453 1184 440 1186 q 476 1178 467 1182 q 494 1165 486 1174 l 576 1083 q 594 1063 589 1071 q 600 1047 600 1054 q 593 1035 600 1040 q 568 1031 586 1031 q 544 1033 554 1031 q 518 1046 535 1036 l 419 1106 l 322 1046 q 297 1034 308 1038 q 271 1031 286 1031 m 407 1218 q 386 1231 397 1218 q 375 1253 375 1243 q 389 1267 375 1258 q 421 1285 403 1275 q 453 1310 439 1296 q 467 1342 467 1324 q 447 1372 467 1364 q 399 1379 428 1379 q 351 1370 368 1379 q 328 1361 335 1361 q 315 1369 322 1361 q 301 1389 307 1378 q 294 1407 294 1400 q 313 1425 294 1415 q 358 1442 331 1435 q 414 1450 385 1450 q 472 1442 442 1450 q 524 1415 503 1435 q 546 1358 546 1394 q 528 1304 546 1329 q 486 1260 511 1279 q 439 1229 461 1240 q 407 1218 417 1218 z "},"Ễ":{"ha":758,"x_min":135,"x_max":690,"o":"m 178 0 q 135 42 135 0 l 135 931 q 178 972 135 972 l 661 972 q 689 931 689 972 l 689 908 q 661 867 689 867 l 260 867 l 260 550 l 619 550 q 647 508 647 550 l 647 486 q 619 444 647 444 l 260 444 l 260 106 l 663 106 q 690 64 690 106 l 690 42 q 663 0 690 0 l 178 0 m 271 1031 q 246 1035 253 1031 q 239 1047 239 1040 q 244 1063 239 1054 q 263 1083 250 1071 l 344 1165 q 362 1178 353 1174 q 385 1184 371 1182 q 419 1186 399 1186 q 453 1184 440 1186 q 476 1178 467 1182 q 494 1165 486 1174 l 576 1083 q 594 1063 589 1071 q 600 1047 600 1054 q 593 1035 600 1040 q 568 1031 586 1031 q 544 1033 554 1031 q 518 1046 535 1036 l 419 1106 l 322 1046 q 297 1034 308 1038 q 271 1031 286 1031 m 226 1236 q 210 1240 221 1236 q 192 1249 200 1243 q 183 1261 183 1254 q 185 1272 183 1267 q 188 1282 186 1276 q 244 1353 211 1333 q 310 1372 278 1372 q 390 1360 350 1372 q 467 1334 431 1347 q 532 1321 504 1321 q 574 1335 560 1321 q 594 1364 588 1350 q 610 1378 601 1378 q 638 1369 621 1378 q 656 1353 656 1361 q 653 1338 656 1349 q 640 1308 650 1328 q 600 1258 622 1276 q 529 1240 578 1240 q 444 1253 486 1240 q 367 1279 403 1267 q 303 1292 331 1292 q 266 1278 279 1292 q 244 1250 253 1264 q 226 1236 236 1236 z "},"Ȅ":{"ha":758,"x_min":103,"x_max":690,"o":"m 178 0 q 135 42 135 0 l 135 931 q 178 972 135 972 l 661 972 q 689 931 689 972 l 689 908 q 661 867 689 867 l 260 867 l 260 550 l 619 550 q 647 508 647 550 l 647 486 q 619 444 647 444 l 260 444 l 260 106 l 663 106 q 690 64 690 106 l 690 42 q 663 0 690 0 l 178 0 m 336 1044 q 282 1050 301 1044 q 233 1074 263 1056 l 158 1119 q 113 1153 122 1143 q 103 1175 103 1164 q 124 1194 103 1188 q 176 1200 144 1200 q 242 1194 221 1200 q 282 1168 264 1188 l 357 1089 q 369 1074 365 1081 q 372 1063 372 1068 q 363 1049 372 1054 q 336 1044 353 1044 m 567 1044 q 513 1050 532 1044 q 464 1074 493 1056 l 389 1119 q 343 1153 353 1143 q 333 1175 333 1164 q 354 1194 333 1188 q 407 1200 375 1200 q 473 1194 451 1200 q 513 1168 494 1188 l 588 1089 q 599 1074 596 1081 q 603 1063 603 1068 q 593 1049 603 1054 q 567 1044 583 1044 z "},"Ë":{"ha":758,"x_min":135,"x_max":690,"o":"m 178 0 q 135 42 135 0 l 135 931 q 178 972 135 972 l 661 972 q 689 931 689 972 l 689 908 q 661 867 689 867 l 260 867 l 260 550 l 619 550 q 647 508 647 550 l 647 486 q 619 444 647 444 l 260 444 l 260 106 l 663 106 q 690 64 690 106 l 690 42 q 663 0 690 0 l 178 0 m 532 1053 q 485 1060 500 1053 q 471 1083 471 1068 l 471 1161 q 485 1184 471 1176 q 532 1192 500 1192 q 578 1184 564 1192 q 593 1161 593 1176 l 593 1083 q 578 1060 593 1068 q 532 1053 564 1053 m 307 1053 q 260 1060 275 1053 q 246 1083 246 1068 l 246 1161 q 260 1184 246 1176 q 307 1192 275 1192 q 353 1184 339 1192 q 368 1161 368 1176 l 368 1083 q 353 1060 368 1068 q 307 1053 339 1053 z "},"Ė":{"ha":758,"x_min":135,"x_max":690,"o":"m 178 0 q 135 42 135 0 l 135 931 q 178 972 135 972 l 661 972 q 689 931 689 972 l 689 908 q 661 867 689 867 l 260 867 l 260 550 l 619 550 q 647 508 647 550 l 647 486 q 619 444 647 444 l 260 444 l 260 106 l 663 106 q 690 64 690 106 l 690 42 q 663 0 690 0 l 178 0 m 419 1051 q 371 1060 385 1051 q 357 1082 357 1068 l 357 1165 q 371 1188 357 1179 q 419 1196 385 1196 q 468 1188 454 1196 q 482 1165 482 1181 l 482 1082 q 468 1060 482 1068 q 419 1051 454 1051 z "},"Ẹ":{"ha":758,"x_min":135,"x_max":690,"o":"m 178 0 q 135 42 135 0 l 135 931 q 178 972 135 972 l 661 972 q 689 931 689 972 l 689 908 q 661 867 689 867 l 260 867 l 260 550 l 619 550 q 647 508 647 550 l 647 486 q 619 444 647 444 l 260 444 l 260 106 l 663 106 q 690 64 690 106 l 690 42 q 663 0 690 0 l 178 0 m 418 -243 q 373 -235 388 -243 q 358 -212 358 -228 l 358 -142 q 373 -119 358 -126 q 418 -111 388 -111 q 464 -119 450 -111 q 478 -142 478 -126 l 478 -212 q 464 -235 478 -228 q 418 -243 450 -243 z "},"È":{"ha":758,"x_min":135,"x_max":690,"o":"m 178 0 q 135 42 135 0 l 135 931 q 178 972 135 972 l 661 972 q 689 931 689 972 l 689 908 q 661 867 689 867 l 260 867 l 260 550 l 619 550 q 647 508 647 550 l 647 486 q 619 444 647 444 l 260 444 l 260 106 l 663 106 q 690 64 690 106 l 690 42 q 663 0 690 0 l 178 0 m 503 1044 q 449 1050 468 1044 q 400 1074 429 1056 l 325 1119 q 279 1153 289 1143 q 269 1175 269 1164 q 290 1194 269 1188 q 343 1200 311 1200 q 409 1194 388 1200 q 449 1168 431 1188 l 524 1089 q 535 1074 532 1081 q 539 1063 539 1068 q 529 1049 539 1054 q 503 1044 519 1044 z "},"Ẻ":{"ha":758,"x_min":135,"x_max":690,"o":"m 178 0 q 135 42 135 0 l 135 931 q 178 972 135 972 l 661 972 q 689 931 689 972 l 689 908 q 661 867 689 867 l 260 867 l 260 550 l 619 550 q 647 508 647 550 l 647 486 q 619 444 647 444 l 260 444 l 260 106 l 663 106 q 690 64 690 106 l 690 42 q 663 0 690 0 l 178 0 m 407 1028 q 386 1040 397 1028 q 375 1063 375 1053 q 389 1076 375 1068 q 421 1095 403 1085 q 453 1119 439 1106 q 467 1151 467 1133 q 447 1181 467 1174 q 399 1189 428 1189 q 351 1180 368 1189 q 328 1171 335 1171 q 315 1179 322 1171 q 301 1199 307 1188 q 294 1217 294 1210 q 313 1235 294 1225 q 358 1252 331 1244 q 414 1260 385 1260 q 472 1252 442 1260 q 524 1224 503 1244 q 546 1168 546 1204 q 528 1114 546 1139 q 486 1069 511 1089 q 439 1039 461 1050 q 407 1028 417 1028 z "},"Ȇ":{"ha":758,"x_min":135,"x_max":690,"o":"m 178 0 q 135 42 135 0 l 135 931 q 178 972 135 972 l 661 972 q 689 931 689 972 l 689 908 q 661 867 689 867 l 260 867 l 260 550 l 619 550 q 647 508 647 550 l 647 486 q 619 444 647 444 l 260 444 l 260 106 l 663 106 q 690 64 690 106 l 690 42 q 663 0 690 0 l 178 0 m 263 1033 q 242 1042 249 1033 q 236 1068 236 1050 q 258 1143 236 1110 q 322 1195 281 1176 q 419 1214 364 1214 q 516 1195 475 1214 q 579 1143 557 1176 q 601 1068 601 1110 q 596 1042 601 1050 q 578 1033 590 1033 q 549 1056 558 1033 q 502 1106 536 1089 q 419 1122 468 1122 q 335 1106 369 1122 q 290 1056 301 1089 q 279 1038 285 1043 q 263 1033 274 1033 z "},"Ē":{"ha":758,"x_min":135,"x_max":690,"o":"m 178 0 q 135 42 135 0 l 135 931 q 178 972 135 972 l 661 972 q 689 931 689 972 l 689 908 q 661 867 689 867 l 260 867 l 260 550 l 619 550 q 647 508 647 550 l 647 486 q 619 444 647 444 l 260 444 l 260 106 l 663 106 q 690 64 690 106 l 690 42 q 663 0 690 0 l 178 0 m 258 1075 q 232 1117 232 1075 l 232 1131 q 258 1172 232 1172 l 581 1172 q 607 1131 607 1172 l 607 1117 q 581 1075 607 1075 l 258 1075 z "},"Ę":{"ha":758,"x_min":135,"x_max":703,"o":"m 178 0 q 135 42 135 0 l 135 931 q 178 972 135 972 l 661 972 q 689 931 689 972 l 689 908 q 661 867 689 867 l 260 867 l 260 550 l 619 550 q 647 508 647 550 l 647 486 q 619 444 647 444 l 260 444 l 260 106 l 663 106 q 690 64 690 106 l 690 42 q 663 0 690 0 l 178 0 m 576 -254 q 481 -222 515 -254 q 446 -146 446 -190 q 460 -83 446 -115 q 504 -23 475 -51 q 576 24 533 6 l 646 14 q 569 -47 597 -12 q 540 -122 540 -82 q 553 -153 540 -142 q 592 -165 567 -165 q 626 -160 611 -165 q 653 -149 642 -154 q 674 -143 665 -143 q 689 -153 682 -143 q 699 -175 696 -162 q 703 -197 703 -187 q 682 -224 703 -211 q 632 -246 661 -237 q 576 -254 603 -254 z "},"Ẽ":{"ha":758,"x_min":135,"x_max":690,"o":"m 178 0 q 135 42 135 0 l 135 931 q 178 972 135 972 l 661 972 q 689 931 689 972 l 689 908 q 661 867 689 867 l 260 867 l 260 550 l 619 550 q 647 508 647 550 l 647 486 q 619 444 647 444 l 260 444 l 260 106 l 663 106 q 690 64 690 106 l 690 42 q 663 0 690 0 l 178 0 m 226 1046 q 210 1049 221 1046 q 192 1058 200 1053 q 183 1071 183 1064 q 185 1081 183 1076 q 188 1092 186 1086 q 244 1163 211 1143 q 310 1182 278 1182 q 390 1169 350 1182 q 467 1144 431 1157 q 532 1131 504 1131 q 574 1145 560 1131 q 594 1174 588 1160 q 610 1188 601 1188 q 638 1179 621 1188 q 656 1163 656 1171 q 653 1148 656 1158 q 640 1118 650 1138 q 600 1068 622 1086 q 529 1050 578 1050 q 444 1063 486 1050 q 367 1089 403 1076 q 303 1101 331 1101 q 266 1088 279 1101 q 244 1060 253 1074 q 226 1046 236 1046 z "},"Ə":{"ha":933,"x_min":90,"x_max":839,"o":"m 446 -12 q 178 103 267 -12 q 90 447 90 219 q 99 469 90 456 q 117 493 107 482 q 136 504 128 504 l 714 504 q 638 783 708 690 q 439 876 568 876 q 296 856 354 876 q 203 815 238 836 q 158 794 169 794 q 138 808 149 794 q 118 840 126 822 q 110 864 110 857 q 135 894 110 875 q 205 933 160 914 q 310 967 250 953 q 438 981 369 981 q 740 850 642 981 q 839 461 839 719 q 795 199 839 304 q 664 40 751 93 q 446 -12 576 -12 m 450 88 q 640 166 572 88 q 714 404 707 244 l 214 404 q 272 166 214 244 q 450 88 331 88 z "},"F":{"ha":699,"x_min":135,"x_max":631,"o":"m 192 -3 q 148 6 161 -3 q 135 28 135 14 l 135 931 q 178 972 135 972 l 604 972 q 631 931 631 972 l 631 908 q 604 867 631 867 l 260 867 l 260 515 l 582 515 q 610 474 610 515 l 610 451 q 582 410 610 410 l 260 410 l 260 28 q 247 6 260 14 q 203 -3 235 -3 l 192 -3 z "},"G":{"ha":933,"x_min":79,"x_max":818,"o":"m 526 -8 q 189 112 299 -8 q 79 486 79 232 q 193 858 79 735 q 529 981 307 981 q 599 976 565 981 q 663 965 632 972 q 718 949 693 958 q 761 931 743 940 q 785 912 776 921 q 794 894 794 903 q 790 874 794 886 q 779 851 786 863 q 764 831 772 839 q 747 824 756 824 q 722 831 739 824 q 680 849 706 839 q 617 867 654 860 q 532 875 581 875 q 285 783 365 875 q 206 485 206 690 q 240 266 206 351 q 347 139 275 181 q 526 97 418 97 q 602 103 565 97 q 668 119 639 108 q 713 142 697 129 l 696 68 l 696 424 l 506 424 q 478 465 478 424 l 478 486 q 506 528 478 528 l 775 528 q 818 486 818 528 l 818 108 q 812 76 818 86 q 790 58 806 67 q 714 24 756 39 q 626 0 672 8 q 526 -8 579 -8 z "},"Ğ":{"ha":933,"x_min":79,"x_max":818,"o":"m 526 -8 q 189 112 299 -8 q 79 486 79 232 q 193 858 79 735 q 529 981 307 981 q 599 976 565 981 q 663 965 632 972 q 718 949 693 958 q 761 931 743 940 q 785 912 776 921 q 794 894 794 903 q 790 874 794 886 q 779 851 786 863 q 764 831 772 839 q 747 824 756 824 q 722 831 739 824 q 680 849 706 839 q 617 867 654 860 q 532 875 581 875 q 285 783 365 875 q 206 485 206 690 q 240 266 206 351 q 347 139 275 181 q 526 97 418 97 q 602 103 565 97 q 668 119 639 108 q 713 142 697 129 l 696 68 l 696 424 l 506 424 q 478 465 478 424 l 478 486 q 506 528 478 528 l 775 528 q 818 486 818 528 l 818 108 q 812 76 818 86 q 790 58 806 67 q 714 24 756 39 q 626 0 672 8 q 526 -8 579 -8 m 493 1033 q 396 1053 438 1033 q 332 1105 354 1072 q 310 1179 310 1138 q 316 1206 310 1199 q 336 1214 322 1214 q 353 1209 347 1214 q 364 1192 358 1204 q 409 1142 375 1158 q 493 1125 443 1125 q 576 1142 542 1125 q 622 1192 610 1158 q 651 1214 632 1214 q 669 1206 664 1214 q 675 1179 675 1199 q 653 1105 675 1138 q 590 1053 631 1072 q 493 1033 549 1033 z "},"Ǧ":{"ha":933,"x_min":79,"x_max":818,"o":"m 526 -8 q 189 112 299 -8 q 79 486 79 232 q 193 858 79 735 q 529 981 307 981 q 599 976 565 981 q 663 965 632 972 q 718 949 693 958 q 761 931 743 940 q 785 912 776 921 q 794 894 794 903 q 790 874 794 886 q 779 851 786 863 q 764 831 772 839 q 747 824 756 824 q 722 831 739 824 q 680 849 706 839 q 617 867 654 860 q 532 875 581 875 q 285 783 365 875 q 206 485 206 690 q 240 266 206 351 q 347 139 275 181 q 526 97 418 97 q 602 103 565 97 q 668 119 639 108 q 713 142 697 129 l 696 68 l 696 424 l 506 424 q 478 465 478 424 l 478 486 q 506 528 478 528 l 775 528 q 818 486 818 528 l 818 108 q 812 76 818 86 q 790 58 806 67 q 714 24 756 39 q 626 0 672 8 q 526 -8 579 -8 m 642 1186 q 667 1181 660 1186 q 674 1169 674 1176 q 668 1154 674 1163 q 650 1133 663 1146 l 568 1051 q 551 1039 560 1043 q 528 1033 542 1035 q 493 1031 514 1031 q 459 1033 472 1031 q 436 1039 446 1035 q 418 1051 426 1043 l 336 1133 q 318 1154 324 1146 q 313 1169 313 1163 q 319 1181 313 1176 q 344 1186 326 1186 q 369 1184 360 1186 q 394 1171 378 1182 l 493 1111 l 590 1171 q 616 1183 604 1179 q 642 1186 628 1186 z "},"Ĝ":{"ha":933,"x_min":79,"x_max":818,"o":"m 526 -8 q 189 112 299 -8 q 79 486 79 232 q 193 858 79 735 q 529 981 307 981 q 599 976 565 981 q 663 965 632 972 q 718 949 693 958 q 761 931 743 940 q 785 912 776 921 q 794 894 794 903 q 790 874 794 886 q 779 851 786 863 q 764 831 772 839 q 747 824 756 824 q 722 831 739 824 q 680 849 706 839 q 617 867 654 860 q 532 875 581 875 q 285 783 365 875 q 206 485 206 690 q 240 266 206 351 q 347 139 275 181 q 526 97 418 97 q 602 103 565 97 q 668 119 639 108 q 713 142 697 129 l 696 68 l 696 424 l 506 424 q 478 465 478 424 l 478 486 q 506 528 478 528 l 775 528 q 818 486 818 528 l 818 108 q 812 76 818 86 q 790 58 806 67 q 714 24 756 39 q 626 0 672 8 q 526 -8 579 -8 m 344 1031 q 319 1035 326 1031 q 313 1047 313 1040 q 318 1063 313 1054 q 336 1083 324 1071 l 418 1165 q 435 1178 426 1174 q 458 1184 444 1182 q 493 1186 472 1186 q 527 1184 514 1186 q 550 1178 540 1182 q 568 1165 560 1174 l 650 1083 q 668 1063 663 1071 q 674 1047 674 1054 q 667 1035 674 1040 q 642 1031 660 1031 q 618 1033 628 1031 q 592 1046 608 1036 l 493 1106 l 396 1046 q 371 1034 382 1038 q 344 1031 360 1031 z "},"Ģ":{"ha":933,"x_min":79,"x_max":818,"o":"m 526 -8 q 189 112 299 -8 q 79 486 79 232 q 193 858 79 735 q 529 981 307 981 q 599 976 565 981 q 663 965 632 972 q 718 949 693 958 q 761 931 743 940 q 785 912 776 921 q 794 894 794 903 q 790 874 794 886 q 779 851 786 863 q 764 831 772 839 q 747 824 756 824 q 722 831 739 824 q 680 849 706 839 q 617 867 654 860 q 532 875 581 875 q 285 783 365 875 q 206 485 206 690 q 240 266 206 351 q 347 139 275 181 q 526 97 418 97 q 602 103 565 97 q 668 119 639 108 q 713 142 697 129 l 696 68 l 696 424 l 506 424 q 478 465 478 424 l 478 486 q 506 528 478 528 l 775 528 q 818 486 818 528 l 818 108 q 812 76 818 86 q 790 58 806 67 q 714 24 756 39 q 626 0 672 8 q 526 -8 579 -8 m 432 -312 q 409 -308 422 -312 q 396 -292 396 -304 q 402 -265 396 -281 q 417 -226 408 -249 q 431 -173 425 -203 q 438 -106 438 -143 q 451 -79 438 -87 q 493 -71 464 -71 q 549 -106 549 -71 q 527 -212 549 -165 q 478 -286 506 -260 q 432 -312 451 -312 z "},"Ġ":{"ha":933,"x_min":79,"x_max":818,"o":"m 526 -8 q 189 112 299 -8 q 79 486 79 232 q 193 858 79 735 q 529 981 307 981 q 599 976 565 981 q 663 965 632 972 q 718 949 693 958 q 761 931 743 940 q 785 912 776 921 q 794 894 794 903 q 790 874 794 886 q 779 851 786 863 q 764 831 772 839 q 747 824 756 824 q 722 831 739 824 q 680 849 706 839 q 617 867 654 860 q 532 875 581 875 q 285 783 365 875 q 206 485 206 690 q 240 266 206 351 q 347 139 275 181 q 526 97 418 97 q 602 103 565 97 q 668 119 639 108 q 713 142 697 129 l 696 68 l 696 424 l 506 424 q 478 465 478 424 l 478 486 q 506 528 478 528 l 775 528 q 818 486 818 528 l 818 108 q 812 76 818 86 q 790 58 806 67 q 714 24 756 39 q 626 0 672 8 q 526 -8 579 -8 m 493 1051 q 444 1060 458 1051 q 431 1082 431 1068 l 431 1165 q 444 1188 431 1179 q 493 1196 458 1196 q 542 1188 528 1196 q 556 1165 556 1181 l 556 1082 q 542 1060 556 1068 q 493 1051 528 1051 z "},"H":{"ha":1018,"x_min":135,"x_max":883,"o":"m 192 -3 q 148 6 161 -3 q 135 28 135 14 l 135 944 q 148 967 135 960 q 192 975 161 975 l 203 975 q 247 967 235 975 q 260 944 260 960 l 260 551 l 758 551 l 758 944 q 772 967 758 960 q 815 975 785 975 l 826 975 q 871 967 858 975 q 883 944 883 960 l 883 28 q 871 6 883 14 q 826 -3 858 -3 l 815 -3 q 772 6 785 -3 q 758 28 758 14 l 758 446 l 260 446 l 260 28 q 247 6 260 14 q 203 -3 235 -3 l 192 -3 z "},"Ħ":{"ha":1018,"x_min":53,"x_max":965,"o":"m 81 696 q 53 738 53 696 l 53 751 q 81 793 53 793 l 938 793 q 965 751 965 793 l 965 738 q 938 696 965 696 l 81 696 m 192 -3 q 148 6 161 -3 q 135 28 135 14 l 135 944 q 148 967 135 960 q 192 975 161 975 l 203 975 q 247 967 235 975 q 260 944 260 960 l 260 551 l 758 551 l 758 944 q 772 967 758 960 q 815 975 785 975 l 826 975 q 871 967 858 975 q 883 944 883 960 l 883 28 q 871 6 883 14 q 826 -3 858 -3 l 815 -3 q 772 6 785 -3 q 758 28 758 14 l 758 446 l 260 446 l 260 28 q 247 6 260 14 q 203 -3 235 -3 l 192 -3 z "},"Ĥ":{"ha":1018,"x_min":135,"x_max":883,"o":"m 192 -3 q 148 6 161 -3 q 135 28 135 14 l 135 944 q 148 967 135 960 q 192 975 161 975 l 203 975 q 247 967 235 975 q 260 944 260 960 l 260 551 l 758 551 l 758 944 q 772 967 758 960 q 815 975 785 975 l 826 975 q 871 967 858 975 q 883 944 883 960 l 883 28 q 871 6 883 14 q 826 -3 858 -3 l 815 -3 q 772 6 785 -3 q 758 28 758 14 l 758 446 l 260 446 l 260 28 q 247 6 260 14 q 203 -3 235 -3 l 192 -3 m 361 1031 q 336 1035 343 1031 q 329 1047 329 1040 q 335 1063 329 1054 q 353 1083 340 1071 l 435 1165 q 452 1178 443 1174 q 475 1184 461 1182 q 510 1186 489 1186 q 544 1184 531 1186 q 567 1178 557 1182 q 585 1165 576 1174 l 667 1083 q 685 1063 679 1071 q 690 1047 690 1054 q 683 1035 690 1040 q 658 1031 676 1031 q 635 1033 644 1031 q 608 1046 625 1036 l 510 1106 l 413 1046 q 388 1034 399 1038 q 361 1031 376 1031 z "},"Ḥ":{"ha":1018,"x_min":135,"x_max":883,"o":"m 192 -3 q 148 6 161 -3 q 135 28 135 14 l 135 944 q 148 967 135 960 q 192 975 161 975 l 203 975 q 247 967 235 975 q 260 944 260 960 l 260 551 l 758 551 l 758 944 q 772 967 758 960 q 815 975 785 975 l 826 975 q 871 967 858 975 q 883 944 883 960 l 883 28 q 871 6 883 14 q 826 -3 858 -3 l 815 -3 q 772 6 785 -3 q 758 28 758 14 l 758 446 l 260 446 l 260 28 q 247 6 260 14 q 203 -3 235 -3 l 192 -3 m 510 -243 q 465 -235 479 -243 q 450 -212 450 -228 l 450 -142 q 465 -119 450 -126 q 510 -111 479 -111 q 556 -119 542 -111 q 569 -142 569 -126 l 569 -212 q 556 -235 569 -228 q 510 -243 542 -243 z "},"I":{"ha":393,"x_min":135,"x_max":260,"o":"m 192 -3 q 148 6 161 -3 q 135 28 135 14 l 135 944 q 148 967 135 960 q 192 975 161 975 l 203 975 q 247 967 235 975 q 260 944 260 960 l 260 28 q 247 6 260 14 q 203 -3 235 -3 l 192 -3 z "},"Ĳ":{"ha":951,"x_min":135,"x_max":832,"o":"m 192 -3 q 148 6 161 -3 q 135 28 135 14 l 135 944 q 148 967 135 960 q 192 975 161 975 l 203 975 q 247 967 235 975 q 260 944 260 960 l 260 28 q 247 6 260 14 q 203 -3 235 -3 l 192 -3 m 554 -8 q 495 -4 528 -8 q 438 11 463 0 q 414 40 414 22 q 415 58 414 46 q 421 82 417 69 q 431 103 425 94 q 444 113 436 113 q 468 109 456 113 q 501 103 481 106 q 556 100 521 100 q 669 139 631 100 q 707 271 707 178 l 707 944 q 720 967 707 960 q 764 975 733 975 l 775 975 q 819 967 807 975 q 832 944 832 960 l 832 285 q 763 64 832 136 q 554 -8 693 -8 z "},"Í":{"ha":393,"x_min":78,"x_max":347,"o":"m 192 -3 q 148 6 161 -3 q 135 28 135 14 l 135 944 q 148 967 135 960 q 192 975 161 975 l 203 975 q 247 967 235 975 q 260 944 260 960 l 260 28 q 247 6 260 14 q 203 -3 235 -3 l 192 -3 m 114 1044 q 88 1049 97 1044 q 78 1063 78 1054 q 81 1074 78 1068 q 93 1089 85 1081 l 168 1168 q 208 1194 186 1188 q 274 1200 231 1200 q 326 1194 306 1200 q 347 1175 347 1188 q 338 1153 347 1164 q 292 1119 328 1143 l 217 1074 q 168 1050 188 1056 q 114 1044 149 1044 z "},"Ĭ":{"ha":393,"x_min":14,"x_max":379,"o":"m 192 -3 q 148 6 161 -3 q 135 28 135 14 l 135 944 q 148 967 135 960 q 192 975 161 975 l 203 975 q 247 967 235 975 q 260 944 260 960 l 260 28 q 247 6 260 14 q 203 -3 235 -3 l 192 -3 m 197 1033 q 100 1053 142 1033 q 36 1105 58 1072 q 14 1179 14 1138 q 20 1206 14 1199 q 40 1214 26 1214 q 57 1209 51 1214 q 68 1192 63 1204 q 113 1142 79 1158 q 197 1125 147 1125 q 280 1142 246 1125 q 326 1192 314 1158 q 356 1214 336 1214 q 374 1206 368 1214 q 379 1179 379 1199 q 357 1105 379 1138 q 294 1053 335 1072 q 197 1033 253 1033 z "},"Ǐ":{"ha":393,"x_min":17,"x_max":378,"o":"m 192 -3 q 148 6 161 -3 q 135 28 135 14 l 135 944 q 148 967 135 960 q 192 975 161 975 l 203 975 q 247 967 235 975 q 260 944 260 960 l 260 28 q 247 6 260 14 q 203 -3 235 -3 l 192 -3 m 346 1186 q 371 1181 364 1186 q 378 1169 378 1176 q 372 1154 378 1163 q 354 1133 367 1146 l 272 1051 q 255 1039 264 1043 q 232 1033 246 1035 q 197 1031 218 1031 q 163 1033 176 1031 q 140 1039 150 1035 q 122 1051 131 1043 l 40 1133 q 22 1154 28 1146 q 17 1169 17 1163 q 24 1181 17 1176 q 49 1186 31 1186 q 73 1184 64 1186 q 99 1171 82 1182 l 197 1111 l 294 1171 q 320 1183 308 1179 q 346 1186 332 1186 z "},"Î":{"ha":393,"x_min":17,"x_max":378,"o":"m 192 -3 q 148 6 161 -3 q 135 28 135 14 l 135 944 q 148 967 135 960 q 192 975 161 975 l 203 975 q 247 967 235 975 q 260 944 260 960 l 260 28 q 247 6 260 14 q 203 -3 235 -3 l 192 -3 m 49 1031 q 24 1035 31 1031 q 17 1047 17 1040 q 22 1063 17 1054 q 40 1083 28 1071 l 122 1165 q 140 1178 131 1174 q 163 1184 149 1182 q 197 1186 176 1186 q 231 1184 218 1186 q 254 1178 244 1182 q 272 1165 264 1174 l 354 1083 q 372 1063 367 1071 q 378 1047 378 1054 q 371 1035 378 1040 q 346 1031 364 1031 q 322 1033 332 1031 q 296 1046 313 1036 l 197 1106 l 100 1046 q 75 1034 86 1038 q 49 1031 64 1031 z "},"Ȉ":{"ha":393,"x_min":-119,"x_max":381,"o":"m 192 -3 q 148 6 161 -3 q 135 28 135 14 l 135 944 q 148 967 135 960 q 192 975 161 975 l 203 975 q 247 967 235 975 q 260 944 260 960 l 260 28 q 247 6 260 14 q 203 -3 235 -3 l 192 -3 m 114 1044 q 60 1050 79 1044 q 11 1074 40 1056 l -64 1119 q -110 1153 -100 1143 q -119 1175 -119 1164 q -99 1194 -119 1188 q -46 1200 -78 1200 q 20 1194 -1 1200 q 60 1168 42 1188 l 135 1089 q 147 1074 143 1081 q 150 1063 150 1068 q 140 1049 150 1054 q 114 1044 131 1044 m 344 1044 q 290 1050 310 1044 q 242 1074 271 1056 l 167 1119 q 121 1153 131 1143 q 111 1175 111 1164 q 132 1194 111 1188 q 185 1200 153 1200 q 251 1194 229 1200 q 290 1168 272 1188 l 365 1089 q 377 1074 374 1081 q 381 1063 381 1068 q 371 1049 381 1054 q 344 1044 361 1044 z "},"Ï":{"ha":393,"x_min":24,"x_max":371,"o":"m 192 -3 q 148 6 161 -3 q 135 28 135 14 l 135 944 q 148 967 135 960 q 192 975 161 975 l 203 975 q 247 967 235 975 q 260 944 260 960 l 260 28 q 247 6 260 14 q 203 -3 235 -3 l 192 -3 m 310 1053 q 263 1060 278 1053 q 249 1083 249 1068 l 249 1161 q 263 1184 249 1176 q 310 1192 278 1192 q 356 1184 342 1192 q 371 1161 371 1176 l 371 1083 q 356 1060 371 1068 q 310 1053 342 1053 m 85 1053 q 38 1060 53 1053 q 24 1083 24 1068 l 24 1161 q 38 1184 24 1176 q 85 1192 53 1192 q 131 1184 117 1192 q 146 1161 146 1176 l 146 1083 q 131 1060 146 1068 q 85 1053 117 1053 z "},"İ":{"ha":393,"x_min":135,"x_max":260,"o":"m 192 -3 q 148 6 161 -3 q 135 28 135 14 l 135 944 q 148 967 135 960 q 192 975 161 975 l 203 975 q 247 967 235 975 q 260 944 260 960 l 260 28 q 247 6 260 14 q 203 -3 235 -3 l 192 -3 m 197 1051 q 149 1060 163 1051 q 135 1082 135 1068 l 135 1165 q 149 1188 135 1179 q 197 1196 163 1196 q 246 1188 232 1196 q 260 1165 260 1181 l 260 1082 q 246 1060 260 1068 q 197 1051 232 1051 z "},"Ị":{"ha":393,"x_min":135,"x_max":260,"o":"m 192 -3 q 148 6 161 -3 q 135 28 135 14 l 135 944 q 148 967 135 960 q 192 975 161 975 l 203 975 q 247 967 235 975 q 260 944 260 960 l 260 28 q 247 6 260 14 q 203 -3 235 -3 l 192 -3 m 196 -243 q 151 -235 165 -243 q 136 -212 136 -228 l 136 -142 q 151 -119 136 -126 q 196 -111 165 -111 q 242 -119 228 -111 q 256 -142 256 -126 l 256 -212 q 242 -235 256 -228 q 196 -243 228 -243 z "},"Ì":{"ha":393,"x_min":47,"x_max":317,"o":"m 192 -3 q 148 6 161 -3 q 135 28 135 14 l 135 944 q 148 967 135 960 q 192 975 161 975 l 203 975 q 247 967 235 975 q 260 944 260 960 l 260 28 q 247 6 260 14 q 203 -3 235 -3 l 192 -3 m 281 1044 q 226 1050 246 1044 q 178 1074 207 1056 l 103 1119 q 57 1153 67 1143 q 47 1175 47 1164 q 68 1194 47 1188 q 121 1200 89 1200 q 187 1194 165 1200 q 226 1168 208 1188 l 301 1089 q 313 1074 310 1081 q 317 1063 317 1068 q 307 1049 317 1054 q 281 1044 297 1044 z "},"Ỉ":{"ha":393,"x_min":72,"x_max":324,"o":"m 192 -3 q 148 6 161 -3 q 135 28 135 14 l 135 944 q 148 967 135 960 q 192 975 161 975 l 203 975 q 247 967 235 975 q 260 944 260 960 l 260 28 q 247 6 260 14 q 203 -3 235 -3 l 192 -3 m 185 1028 q 164 1040 175 1028 q 153 1063 153 1053 q 167 1076 153 1068 q 199 1095 181 1085 q 231 1119 217 1106 q 244 1151 244 1133 q 225 1181 244 1174 q 176 1189 206 1189 q 129 1180 146 1189 q 106 1171 113 1171 q 92 1179 100 1171 q 78 1199 85 1188 q 72 1217 72 1210 q 90 1235 72 1225 q 135 1252 108 1244 q 192 1260 163 1260 q 250 1252 219 1260 q 302 1224 281 1244 q 324 1168 324 1204 q 306 1114 324 1139 q 264 1069 289 1089 q 217 1039 239 1050 q 185 1028 194 1028 z "},"Ȋ":{"ha":393,"x_min":14,"x_max":379,"o":"m 192 -3 q 148 6 161 -3 q 135 28 135 14 l 135 944 q 148 967 135 960 q 192 975 161 975 l 203 975 q 247 967 235 975 q 260 944 260 960 l 260 28 q 247 6 260 14 q 203 -3 235 -3 l 192 -3 m 40 1033 q 20 1042 26 1033 q 14 1068 14 1050 q 36 1143 14 1110 q 100 1195 58 1176 q 197 1214 142 1214 q 294 1195 253 1214 q 357 1143 335 1176 q 379 1068 379 1110 q 374 1042 379 1050 q 356 1033 368 1033 q 326 1056 336 1033 q 280 1106 314 1089 q 197 1122 246 1122 q 113 1106 147 1122 q 68 1056 79 1089 q 57 1038 63 1043 q 40 1033 51 1033 z "},"Ī":{"ha":393,"x_min":10,"x_max":385,"o":"m 192 -3 q 148 6 161 -3 q 135 28 135 14 l 135 944 q 148 967 135 960 q 192 975 161 975 l 203 975 q 247 967 235 975 q 260 944 260 960 l 260 28 q 247 6 260 14 q 203 -3 235 -3 l 192 -3 m 36 1075 q 10 1117 10 1075 l 10 1131 q 36 1172 10 1172 l 358 1172 q 385 1131 385 1172 l 385 1117 q 358 1075 385 1075 l 36 1075 z "},"Į":{"ha":393,"x_min":53,"x_max":310,"o":"m 192 -3 q 148 6 161 -3 q 135 28 135 14 l 135 944 q 148 967 135 960 q 192 975 161 975 l 203 975 q 247 967 235 975 q 260 944 260 960 l 260 28 q 247 6 260 14 q 203 -3 235 -3 l 192 -3 m 183 -254 q 88 -222 122 -254 q 53 -146 53 -190 q 67 -83 53 -115 q 111 -23 82 -51 q 183 24 140 6 l 253 14 q 176 -47 204 -12 q 147 -122 147 -82 q 160 -153 147 -142 q 199 -165 174 -165 q 233 -160 218 -165 q 260 -149 249 -154 q 281 -143 272 -143 q 296 -153 289 -143 q 306 -175 303 -162 q 310 -197 310 -187 q 289 -224 310 -211 q 239 -246 268 -237 q 183 -254 210 -254 z "},"Ĩ":{"ha":393,"x_min":-39,"x_max":433,"o":"m 192 -3 q 148 6 161 -3 q 135 28 135 14 l 135 944 q 148 967 135 960 q 192 975 161 975 l 203 975 q 247 967 235 975 q 260 944 260 960 l 260 28 q 247 6 260 14 q 203 -3 235 -3 l 192 -3 m 4 1046 q -12 1049 -1 1046 q -31 1058 -22 1053 q -39 1071 -39 1064 q -37 1081 -39 1076 q -35 1092 -36 1086 q 22 1163 -11 1143 q 88 1182 56 1182 q 168 1169 128 1182 q 245 1144 208 1157 q 310 1131 282 1131 q 351 1145 338 1131 q 372 1174 365 1160 q 388 1188 379 1188 q 416 1179 399 1188 q 433 1163 433 1171 q 431 1148 433 1158 q 418 1118 428 1138 q 378 1068 400 1086 q 307 1050 356 1050 q 222 1063 264 1050 q 144 1089 181 1076 q 81 1101 108 1101 q 44 1088 57 1101 q 22 1060 31 1074 q 4 1046 14 1046 z "},"J":{"ha":558,"x_min":21,"x_max":439,"o":"m 161 -8 q 102 -4 135 -8 q 45 11 69 0 q 21 40 21 22 q 22 58 21 46 q 28 82 24 69 q 38 103 32 94 q 51 113 43 113 q 75 109 63 113 q 108 103 88 106 q 163 100 128 100 q 276 139 238 100 q 314 271 314 178 l 314 944 q 327 967 314 960 q 371 975 340 975 l 382 975 q 426 967 414 975 q 439 944 439 960 l 439 285 q 369 64 439 136 q 161 -8 300 -8 z "},"Ĵ":{"ha":558,"x_min":21,"x_max":557,"o":"m 161 -8 q 102 -4 135 -8 q 45 11 69 0 q 21 40 21 22 q 22 58 21 46 q 28 82 24 69 q 38 103 32 94 q 51 113 43 113 q 75 109 63 113 q 108 103 88 106 q 163 100 128 100 q 276 139 238 100 q 314 271 314 178 l 314 944 q 327 967 314 960 q 371 975 340 975 l 382 975 q 426 967 414 975 q 439 944 439 960 l 439 285 q 369 64 439 136 q 161 -8 300 -8 m 228 1031 q 203 1035 210 1031 q 196 1047 196 1040 q 201 1063 196 1054 q 219 1083 207 1071 l 301 1165 q 319 1178 310 1174 q 342 1184 328 1182 q 376 1186 356 1186 q 410 1184 397 1186 q 433 1178 424 1182 q 451 1165 443 1174 l 533 1083 q 551 1063 546 1071 q 557 1047 557 1054 q 550 1035 557 1040 q 525 1031 543 1031 q 501 1033 511 1031 q 475 1046 492 1036 l 376 1106 l 279 1046 q 254 1034 265 1038 q 228 1031 243 1031 z "},"K":{"ha":800,"x_min":135,"x_max":814,"o":"m 192 -3 q 148 6 161 -3 q 135 28 135 14 l 135 944 q 148 967 135 960 q 192 975 161 975 l 203 975 q 247 967 235 975 q 260 944 260 960 l 260 533 l 265 533 l 597 947 q 628 970 613 965 q 679 975 644 975 l 693 975 q 728 970 717 975 q 739 954 739 965 q 737 942 739 949 q 722 919 735 935 l 347 453 l 347 531 l 801 39 q 811 26 808 31 q 814 17 814 21 q 799 1 814 6 q 753 -3 785 -3 l 736 -3 q 689 3 706 -3 q 661 19 672 10 l 265 449 l 260 449 l 260 28 q 247 6 260 14 q 203 -3 235 -3 l 192 -3 z "},"Ķ":{"ha":800,"x_min":135,"x_max":814,"o":"m 192 -3 q 148 6 161 -3 q 135 28 135 14 l 135 944 q 148 967 135 960 q 192 975 161 975 l 203 975 q 247 967 235 975 q 260 944 260 960 l 260 533 l 265 533 l 597 947 q 628 970 613 965 q 679 975 644 975 l 693 975 q 728 970 717 975 q 739 954 739 965 q 737 942 739 949 q 722 919 735 935 l 347 453 l 347 531 l 801 39 q 811 26 808 31 q 814 17 814 21 q 799 1 814 6 q 753 -3 785 -3 l 736 -3 q 689 3 706 -3 q 661 19 672 10 l 265 449 l 260 449 l 260 28 q 247 6 260 14 q 203 -3 235 -3 l 192 -3 m 381 -312 q 358 -308 371 -312 q 344 -292 344 -304 q 351 -265 344 -281 q 365 -226 357 -249 q 380 -173 374 -203 q 386 -106 386 -143 q 399 -79 386 -87 q 442 -71 413 -71 q 497 -106 497 -71 q 476 -212 497 -165 q 427 -286 454 -260 q 381 -312 400 -312 z "},"L":{"ha":672,"x_min":135,"x_max":668,"o":"m 178 0 q 135 42 135 0 l 135 944 q 148 967 135 960 q 192 975 161 975 l 203 975 q 247 967 235 975 q 260 944 260 960 l 260 106 l 640 106 q 668 64 668 106 l 668 42 q 640 0 668 0 l 178 0 z "},"Ǉ":{"ha":1007,"x_min":135,"x_max":879,"o":"m 601 -250 q 542 -246 575 -250 q 485 -231 510 -242 q 461 -201 461 -219 q 463 -184 461 -196 q 468 -160 464 -172 q 478 -138 472 -147 q 492 -129 483 -129 q 515 -132 503 -129 q 548 -138 528 -135 q 603 -142 568 -142 q 716 -103 678 -142 q 754 29 754 -64 l 754 944 q 767 967 754 960 q 811 975 781 975 l 822 975 q 867 967 854 975 q 879 944 879 960 l 879 43 q 810 -178 879 -106 q 601 -250 740 -250 m 178 0 q 135 42 135 0 l 135 944 q 148 967 135 960 q 192 975 161 975 l 203 975 q 247 967 235 975 q 260 944 260 960 l 260 106 l 543 106 q 571 64 571 106 l 571 42 q 543 0 571 0 l 178 0 z "},"Ĺ":{"ha":672,"x_min":78,"x_max":668,"o":"m 178 0 q 135 42 135 0 l 135 944 q 148 967 135 960 q 192 975 161 975 l 203 975 q 247 967 235 975 q 260 944 260 960 l 260 106 l 640 106 q 668 64 668 106 l 668 42 q 640 0 668 0 l 178 0 m 114 1044 q 88 1049 97 1044 q 78 1063 78 1054 q 81 1074 78 1068 q 93 1089 85 1081 l 168 1168 q 208 1194 186 1188 q 274 1200 231 1200 q 326 1194 306 1200 q 347 1175 347 1188 q 338 1153 347 1164 q 292 1119 328 1143 l 217 1074 q 168 1050 188 1056 q 114 1044 149 1044 z "},"Ľ":{"ha":672,"x_min":135,"x_max":668,"o":"m 178 0 q 135 42 135 0 l 135 944 q 148 967 135 960 q 192 975 161 975 l 203 975 q 247 967 235 975 q 260 944 260 960 l 260 106 l 640 106 q 668 64 668 106 l 668 42 q 640 0 668 0 l 178 0 m 421 733 q 398 738 411 733 q 385 754 385 742 q 392 793 385 769 q 406 853 399 817 q 413 940 413 890 q 426 967 413 958 q 468 975 439 975 q 524 940 524 975 q 505 833 524 881 q 462 760 486 786 q 421 733 438 733 z "},"Ļ":{"ha":672,"x_min":135,"x_max":668,"o":"m 178 0 q 135 42 135 0 l 135 944 q 148 967 135 960 q 192 975 161 975 l 203 975 q 247 967 235 975 q 260 944 260 960 l 260 106 l 640 106 q 668 64 668 106 l 668 42 q 640 0 668 0 l 178 0 m 346 -312 q 323 -308 336 -312 q 310 -292 310 -304 q 316 -265 310 -281 q 331 -226 322 -249 q 345 -173 339 -203 q 351 -106 351 -143 q 365 -79 351 -87 q 407 -71 378 -71 q 463 -106 463 -71 q 441 -212 463 -165 q 392 -286 419 -260 q 346 -312 365 -312 z "},"Ŀ":{"ha":672,"x_min":135,"x_max":668,"o":"m 178 0 q 135 42 135 0 l 135 944 q 148 967 135 960 q 192 975 161 975 l 203 975 q 247 967 235 975 q 260 944 260 960 l 260 106 l 640 106 q 668 64 668 106 l 668 42 q 640 0 668 0 l 178 0 m 529 394 q 478 415 499 394 q 458 465 458 435 q 478 517 458 496 q 529 538 499 538 q 581 517 560 538 q 601 465 601 496 q 581 415 601 435 q 529 394 560 394 z "},"ǈ":{"ha":1056,"x_min":135,"x_max":932,"o":"m 178 0 q 135 42 135 0 l 135 944 q 148 967 135 960 q 192 975 161 975 l 203 975 q 247 967 235 975 q 260 944 260 960 l 260 106 l 640 106 q 668 64 668 106 l 668 42 q 640 0 668 0 l 178 0 m 765 -294 q 719 -289 744 -294 q 674 -272 693 -283 q 656 -247 656 -261 q 656 -232 656 -243 q 659 -208 657 -221 q 666 -187 661 -196 q 678 -178 671 -178 q 702 -185 688 -178 q 747 -192 717 -192 q 798 -175 783 -192 q 813 -111 813 -158 l 813 699 q 824 722 813 714 q 867 729 836 729 l 878 729 q 920 722 908 729 q 932 699 932 714 l 932 -111 q 913 -212 932 -171 q 858 -274 894 -253 q 765 -294 821 -294 m 871 826 q 824 835 838 826 q 810 857 810 843 l 810 940 q 824 963 810 954 q 871 971 838 971 q 918 963 904 971 q 932 940 932 956 l 932 857 q 918 835 932 843 q 871 826 904 826 z "},"Ł":{"ha":672,"x_min":0,"x_max":668,"o":"m 11 351 q 3 358 7 351 q 0 381 0 365 q 4 408 0 399 q 26 426 8 418 l 415 608 q 432 615 426 614 q 440 617 438 617 q 448 610 444 617 q 451 588 451 603 q 447 560 451 571 q 425 542 443 550 l 36 360 q 19 353 25 354 q 11 351 14 351 m 178 0 q 135 42 135 0 l 135 944 q 148 967 135 960 q 192 975 161 975 l 203 975 q 247 967 235 975 q 260 944 260 960 l 260 106 l 640 106 q 668 64 668 106 l 668 42 q 640 0 668 0 l 178 0 z "},"M":{"ha":1171,"x_min":135,"x_max":1036,"o":"m 192 -3 q 148 6 161 -3 q 135 28 135 14 l 135 944 q 148 967 135 960 q 192 975 161 975 l 240 975 q 290 969 272 975 q 313 950 307 963 l 551 485 q 572 443 561 467 q 588 397 582 419 q 608 447 594 421 q 631 489 621 472 l 864 950 q 888 969 871 963 q 935 975 904 975 l 979 975 q 1024 967 1011 975 q 1036 944 1036 960 l 1036 28 q 1024 6 1036 14 q 979 -3 1011 -3 l 968 -3 q 924 6 938 -3 q 911 28 911 14 l 911 696 q 911 735 911 715 q 913 772 911 754 l 907 774 q 891 742 899 757 q 875 711 883 726 l 665 300 q 642 276 656 282 q 601 271 629 271 l 574 271 q 534 276 547 271 q 510 300 521 282 l 296 719 q 280 750 288 735 q 264 782 272 765 l 258 781 q 260 743 260 763 q 260 704 260 724 l 260 28 q 247 6 260 14 q 203 -3 235 -3 l 192 -3 z "},"N":{"ha":999,"x_min":135,"x_max":883,"o":"m 192 -3 q 148 6 161 -3 q 135 28 135 14 l 135 944 q 148 967 135 960 q 192 975 161 975 l 226 975 q 252 972 242 975 q 271 964 263 969 q 285 949 279 958 l 710 290 q 735 249 724 269 q 756 207 746 229 l 761 208 q 759 252 760 232 q 758 303 758 272 l 758 944 q 772 967 758 960 q 815 975 785 975 l 826 975 q 871 967 858 975 q 883 944 883 960 l 883 28 q 871 6 883 14 q 826 -3 858 -3 l 793 -3 q 771 -1 781 -3 q 755 6 761 1 q 744 17 749 11 l 308 692 q 284 733 294 713 q 263 775 274 753 l 257 774 q 260 730 260 750 q 260 679 260 710 l 260 28 q 247 6 260 14 q 203 -3 235 -3 l 192 -3 z "},"Ǌ":{"ha":1557,"x_min":135,"x_max":1438,"o":"m 192 -3 q 148 6 161 -3 q 135 28 135 14 l 135 944 q 148 967 135 960 q 192 975 161 975 l 226 975 q 252 972 242 975 q 271 964 263 969 q 285 949 279 958 l 710 290 q 735 249 724 269 q 756 207 746 229 l 761 208 q 759 252 760 232 q 758 303 758 272 l 758 944 q 772 967 758 960 q 815 975 785 975 l 826 975 q 871 967 858 975 q 883 944 883 960 l 883 28 q 871 6 883 14 q 826 -3 858 -3 l 793 -3 q 771 -1 781 -3 q 755 6 761 1 q 744 17 749 11 l 308 692 q 284 733 294 713 q 263 775 274 753 l 257 774 q 260 730 260 750 q 260 679 260 710 l 260 28 q 247 6 260 14 q 203 -3 235 -3 l 192 -3 m 1160 -8 q 1101 -4 1133 -8 q 1044 11 1068 0 q 1019 40 1019 22 q 1021 58 1019 46 q 1026 82 1022 69 q 1036 103 1031 94 q 1050 113 1042 113 q 1074 109 1061 113 q 1106 103 1086 106 q 1161 100 1126 100 q 1274 139 1236 100 q 1313 271 1313 178 l 1313 944 q 1326 967 1313 960 q 1369 975 1339 975 l 1381 975 q 1425 967 1413 975 q 1438 944 1438 960 l 1438 285 q 1368 64 1438 136 q 1160 -8 1299 -8 z "},"Ń":{"ha":999,"x_min":135,"x_max":883,"o":"m 192 -3 q 148 6 161 -3 q 135 28 135 14 l 135 944 q 148 967 135 960 q 192 975 161 975 l 226 975 q 252 972 242 975 q 271 964 263 969 q 285 949 279 958 l 710 290 q 735 249 724 269 q 756 207 746 229 l 761 208 q 759 252 760 232 q 758 303 758 272 l 758 944 q 772 967 758 960 q 815 975 785 975 l 826 975 q 871 967 858 975 q 883 944 883 960 l 883 28 q 871 6 883 14 q 826 -3 858 -3 l 793 -3 q 771 -1 781 -3 q 755 6 761 1 q 744 17 749 11 l 308 692 q 284 733 294 713 q 263 775 274 753 l 257 774 q 260 730 260 750 q 260 679 260 710 l 260 28 q 247 6 260 14 q 203 -3 235 -3 l 192 -3 m 426 1044 q 400 1049 410 1044 q 390 1063 390 1054 q 394 1074 390 1068 q 406 1089 397 1081 l 481 1168 q 521 1194 499 1188 q 586 1200 543 1200 q 639 1194 618 1200 q 660 1175 660 1188 q 650 1153 660 1164 q 604 1119 640 1143 l 529 1074 q 481 1050 500 1056 q 426 1044 461 1044 z "},"Ň":{"ha":999,"x_min":135,"x_max":883,"o":"m 192 -3 q 148 6 161 -3 q 135 28 135 14 l 135 944 q 148 967 135 960 q 192 975 161 975 l 226 975 q 252 972 242 975 q 271 964 263 969 q 285 949 279 958 l 710 290 q 735 249 724 269 q 756 207 746 229 l 761 208 q 759 252 760 232 q 758 303 758 272 l 758 944 q 772 967 758 960 q 815 975 785 975 l 826 975 q 871 967 858 975 q 883 944 883 960 l 883 28 q 871 6 883 14 q 826 -3 858 -3 l 793 -3 q 771 -1 781 -3 q 755 6 761 1 q 744 17 749 11 l 308 692 q 284 733 294 713 q 263 775 274 753 l 257 774 q 260 730 260 750 q 260 679 260 710 l 260 28 q 247 6 260 14 q 203 -3 235 -3 l 192 -3 m 658 1186 q 683 1181 676 1186 q 690 1169 690 1176 q 685 1154 690 1163 q 667 1133 679 1146 l 585 1051 q 567 1039 576 1043 q 544 1033 558 1035 q 510 1031 531 1031 q 476 1033 489 1031 q 453 1039 463 1035 q 435 1051 443 1043 l 353 1133 q 335 1154 340 1146 q 329 1169 329 1163 q 336 1181 329 1176 q 361 1186 343 1186 q 385 1184 376 1186 q 411 1171 394 1182 l 510 1111 l 607 1171 q 633 1183 621 1179 q 658 1186 644 1186 z "},"Ņ":{"ha":999,"x_min":135,"x_max":883,"o":"m 192 -3 q 148 6 161 -3 q 135 28 135 14 l 135 944 q 148 967 135 960 q 192 975 161 975 l 226 975 q 252 972 242 975 q 271 964 263 969 q 285 949 279 958 l 710 290 q 735 249 724 269 q 756 207 746 229 l 761 208 q 759 252 760 232 q 758 303 758 272 l 758 944 q 772 967 758 960 q 815 975 785 975 l 826 975 q 871 967 858 975 q 883 944 883 960 l 883 28 q 871 6 883 14 q 826 -3 858 -3 l 793 -3 q 771 -1 781 -3 q 755 6 761 1 q 744 17 749 11 l 308 692 q 284 733 294 713 q 263 775 274 753 l 257 774 q 260 730 260 750 q 260 679 260 710 l 260 28 q 247 6 260 14 q 203 -3 235 -3 l 192 -3 m 449 -312 q 426 -308 439 -312 q 413 -292 413 -304 q 419 -265 413 -281 q 433 -226 425 -249 q 448 -173 442 -203 q 454 -106 454 -143 q 467 -79 454 -87 q 510 -71 481 -71 q 565 -106 565 -71 q 544 -212 565 -165 q 495 -286 522 -260 q 449 -312 468 -312 z "},"Ṅ":{"ha":999,"x_min":135,"x_max":883,"o":"m 192 -3 q 148 6 161 -3 q 135 28 135 14 l 135 944 q 148 967 135 960 q 192 975 161 975 l 226 975 q 252 972 242 975 q 271 964 263 969 q 285 949 279 958 l 710 290 q 735 249 724 269 q 756 207 746 229 l 761 208 q 759 252 760 232 q 758 303 758 272 l 758 944 q 772 967 758 960 q 815 975 785 975 l 826 975 q 871 967 858 975 q 883 944 883 960 l 883 28 q 871 6 883 14 q 826 -3 858 -3 l 793 -3 q 771 -1 781 -3 q 755 6 761 1 q 744 17 749 11 l 308 692 q 284 733 294 713 q 263 775 274 753 l 257 774 q 260 730 260 750 q 260 679 260 710 l 260 28 q 247 6 260 14 q 203 -3 235 -3 l 192 -3 m 510 1051 q 461 1060 475 1051 q 447 1082 447 1068 l 447 1165 q 461 1188 447 1179 q 510 1196 475 1196 q 558 1188 544 1196 q 572 1165 572 1181 l 572 1082 q 558 1060 572 1068 q 510 1051 544 1051 z "},"Ɲ":{"ha":999,"x_min":-22,"x_max":883,"o":"m 88 -294 q 41 -289 67 -294 q -3 -272 15 -283 q -22 -247 -22 -261 q -22 -232 -22 -243 q -19 -208 -21 -221 q -12 -187 -17 -196 q 0 -178 -7 -178 q 24 -185 10 -178 q 69 -192 39 -192 q 120 -175 106 -192 q 135 -111 135 -158 l 135 944 q 148 967 135 960 q 192 975 161 975 l 226 975 q 252 972 242 975 q 271 964 263 969 q 285 949 279 958 l 710 290 q 735 249 724 269 q 756 207 746 229 l 761 208 q 759 252 760 232 q 758 303 758 272 l 758 944 q 772 967 758 960 q 815 975 785 975 l 826 975 q 871 967 858 975 q 883 944 883 960 l 883 28 q 871 6 883 14 q 826 -3 858 -3 l 793 -3 q 771 -1 781 -3 q 755 6 761 1 q 744 17 749 11 l 308 692 q 284 733 294 713 q 263 775 274 753 l 257 774 q 260 730 260 750 q 260 679 260 710 l 260 -111 q 241 -212 260 -171 q 184 -274 222 -253 q 88 -294 146 -294 z "},"ǋ":{"ha":1382,"x_min":135,"x_max":1258,"o":"m 192 -3 q 148 6 161 -3 q 135 28 135 14 l 135 944 q 148 967 135 960 q 192 975 161 975 l 226 975 q 252 972 242 975 q 271 964 263 969 q 285 949 279 958 l 710 290 q 735 249 724 269 q 756 207 746 229 l 761 208 q 759 252 760 232 q 758 303 758 272 l 758 944 q 772 967 758 960 q 815 975 785 975 l 826 975 q 871 967 858 975 q 883 944 883 960 l 883 28 q 871 6 883 14 q 826 -3 858 -3 l 793 -3 q 771 -1 781 -3 q 755 6 761 1 q 744 17 749 11 l 308 692 q 284 733 294 713 q 263 775 274 753 l 257 774 q 260 730 260 750 q 260 679 260 710 l 260 28 q 247 6 260 14 q 203 -3 235 -3 l 192 -3 m 1092 -294 q 1045 -289 1071 -294 q 1001 -272 1019 -283 q 982 -247 982 -261 q 983 -232 982 -243 q 985 -208 983 -221 q 992 -187 988 -196 q 1004 -178 997 -178 q 1028 -185 1014 -178 q 1074 -192 1043 -192 q 1124 -175 1110 -192 q 1139 -111 1139 -158 l 1139 699 q 1151 722 1139 714 q 1193 729 1163 729 l 1204 729 q 1247 722 1235 729 q 1258 699 1258 714 l 1258 -111 q 1240 -212 1258 -171 q 1184 -274 1221 -253 q 1092 -294 1147 -294 m 1197 826 q 1150 835 1164 826 q 1136 857 1136 843 l 1136 940 q 1150 963 1136 954 q 1197 971 1164 971 q 1244 963 1231 971 q 1258 940 1258 956 l 1258 857 q 1244 835 1258 843 q 1197 826 1231 826 z "},"Ñ":{"ha":999,"x_min":135,"x_max":883,"o":"m 192 -3 q 148 6 161 -3 q 135 28 135 14 l 135 944 q 148 967 135 960 q 192 975 161 975 l 226 975 q 252 972 242 975 q 271 964 263 969 q 285 949 279 958 l 710 290 q 735 249 724 269 q 756 207 746 229 l 761 208 q 759 252 760 232 q 758 303 758 272 l 758 944 q 772 967 758 960 q 815 975 785 975 l 826 975 q 871 967 858 975 q 883 944 883 960 l 883 28 q 871 6 883 14 q 826 -3 858 -3 l 793 -3 q 771 -1 781 -3 q 755 6 761 1 q 744 17 749 11 l 308 692 q 284 733 294 713 q 263 775 274 753 l 257 774 q 260 730 260 750 q 260 679 260 710 l 260 28 q 247 6 260 14 q 203 -3 235 -3 l 192 -3 m 317 1046 q 301 1049 311 1046 q 282 1058 290 1053 q 274 1071 274 1064 q 275 1081 274 1076 q 278 1092 276 1086 q 335 1163 301 1143 q 400 1182 368 1182 q 481 1169 440 1182 q 558 1144 521 1157 q 622 1131 594 1131 q 664 1145 650 1131 q 685 1174 678 1160 q 700 1188 692 1188 q 728 1179 711 1188 q 746 1163 746 1171 q 743 1148 746 1158 q 731 1118 740 1138 q 690 1068 713 1086 q 619 1050 668 1050 q 535 1063 576 1050 q 457 1089 493 1076 q 393 1101 421 1101 q 356 1088 369 1101 q 335 1060 343 1074 q 317 1046 326 1046 z "},"Ŋ":{"ha":999,"x_min":135,"x_max":883,"o":"m 783 -31 l 308 692 q 284 733 294 713 q 263 775 274 753 l 257 774 q 260 730 260 750 q 260 679 260 710 l 260 28 q 247 6 260 14 q 203 -3 235 -3 l 192 -3 q 148 6 161 -3 q 135 28 135 14 l 135 944 q 148 967 135 960 q 192 975 161 975 l 226 975 q 252 972 242 975 q 270 964 263 969 q 283 949 278 958 l 710 299 q 735 258 724 278 q 756 215 746 238 l 761 217 q 759 260 760 240 q 758 311 758 281 l 758 944 q 772 967 758 960 q 815 975 785 975 l 826 975 q 871 967 858 975 q 883 944 883 960 l 883 28 l 783 -31 m 717 -294 q 670 -289 696 -294 q 626 -272 644 -283 q 607 -247 607 -261 q 608 -232 607 -243 q 610 -208 608 -221 q 617 -187 613 -196 q 629 -178 622 -178 q 653 -185 639 -178 q 699 -192 668 -192 q 749 -175 735 -192 q 764 -111 764 -158 l 764 28 l 883 28 l 883 -111 q 865 -212 883 -171 q 809 -274 846 -253 q 717 -294 772 -294 z "},"O":{"ha":1015,"x_min":79,"x_max":936,"o":"m 507 -8 q 189 119 299 -8 q 79 489 79 246 q 189 857 79 733 q 507 981 299 981 q 826 857 717 981 q 936 489 936 733 q 826 119 936 246 q 507 -8 717 -8 m 507 97 q 732 197 654 97 q 810 489 810 297 q 732 778 810 681 q 507 875 654 875 q 283 778 360 875 q 206 489 206 681 q 283 197 206 297 q 507 97 360 97 z "},"Ó":{"ha":1015,"x_min":79,"x_max":936,"o":"m 507 -8 q 189 119 299 -8 q 79 489 79 246 q 189 857 79 733 q 507 981 299 981 q 826 857 717 981 q 936 489 936 733 q 826 119 936 246 q 507 -8 717 -8 m 507 97 q 732 197 654 97 q 810 489 810 297 q 732 778 810 681 q 507 875 654 875 q 283 778 360 875 q 206 489 206 681 q 283 197 206 297 q 507 97 360 97 m 425 1044 q 399 1049 408 1044 q 389 1063 389 1054 q 392 1074 389 1068 q 404 1089 396 1081 l 479 1168 q 519 1194 497 1188 q 585 1200 542 1200 q 638 1194 617 1200 q 658 1175 658 1188 q 649 1153 658 1164 q 603 1119 639 1143 l 528 1074 q 479 1050 499 1056 q 425 1044 460 1044 z "},"Ŏ":{"ha":1015,"x_min":79,"x_max":936,"o":"m 507 -8 q 189 119 299 -8 q 79 489 79 246 q 189 857 79 733 q 507 981 299 981 q 826 857 717 981 q 936 489 936 733 q 826 119 936 246 q 507 -8 717 -8 m 507 97 q 732 197 654 97 q 810 489 810 297 q 732 778 810 681 q 507 875 654 875 q 283 778 360 875 q 206 489 206 681 q 283 197 206 297 q 507 97 360 97 m 508 1033 q 411 1053 453 1033 q 347 1105 369 1072 q 325 1179 325 1138 q 331 1206 325 1199 q 351 1214 338 1214 q 368 1209 363 1214 q 379 1192 374 1204 q 424 1142 390 1158 q 508 1125 458 1125 q 591 1142 557 1125 q 638 1192 625 1158 q 667 1214 647 1214 q 685 1206 679 1214 q 690 1179 690 1199 q 668 1105 690 1138 q 605 1053 646 1072 q 508 1033 564 1033 z "},"Ǒ":{"ha":1015,"x_min":79,"x_max":936,"o":"m 507 -8 q 189 119 299 -8 q 79 489 79 246 q 189 857 79 733 q 507 981 299 981 q 826 857 717 981 q 936 489 936 733 q 826 119 936 246 q 507 -8 717 -8 m 507 97 q 732 197 654 97 q 810 489 810 297 q 732 778 810 681 q 507 875 654 875 q 283 778 360 875 q 206 489 206 681 q 283 197 206 297 q 507 97 360 97 m 657 1186 q 682 1181 675 1186 q 689 1169 689 1176 q 683 1154 689 1163 q 665 1133 678 1146 l 583 1051 q 566 1039 575 1043 q 543 1033 557 1035 q 508 1031 529 1031 q 474 1033 488 1031 q 451 1039 461 1035 q 433 1051 442 1043 l 351 1133 q 333 1154 339 1146 q 328 1169 328 1163 q 335 1181 328 1176 q 360 1186 342 1186 q 384 1184 375 1186 q 410 1171 393 1182 l 508 1111 l 606 1171 q 631 1183 619 1179 q 657 1186 643 1186 z "},"Ô":{"ha":1015,"x_min":79,"x_max":936,"o":"m 507 -8 q 189 119 299 -8 q 79 489 79 246 q 189 857 79 733 q 507 981 299 981 q 826 857 717 981 q 936 489 936 733 q 826 119 936 246 q 507 -8 717 -8 m 507 97 q 732 197 654 97 q 810 489 810 297 q 732 778 810 681 q 507 875 654 875 q 283 778 360 875 q 206 489 206 681 q 283 197 206 297 q 507 97 360 97 m 360 1031 q 335 1035 342 1031 q 328 1047 328 1040 q 333 1063 328 1054 q 351 1083 339 1071 l 433 1165 q 451 1178 442 1174 q 474 1184 460 1182 q 508 1186 488 1186 q 542 1184 529 1186 q 565 1178 556 1182 q 583 1165 575 1174 l 665 1083 q 683 1063 678 1071 q 689 1047 689 1054 q 682 1035 689 1040 q 657 1031 675 1031 q 633 1033 643 1031 q 607 1046 624 1036 l 508 1106 l 411 1046 q 386 1034 397 1038 q 360 1031 375 1031 z "},"Ố":{"ha":1015,"x_min":79,"x_max":936,"o":"m 507 -8 q 189 119 299 -8 q 79 489 79 246 q 189 857 79 733 q 507 981 299 981 q 826 857 717 981 q 936 489 936 733 q 826 119 936 246 q 507 -8 717 -8 m 507 97 q 732 197 654 97 q 810 489 810 297 q 732 778 810 681 q 507 875 654 875 q 283 778 360 875 q 206 489 206 681 q 283 197 206 297 q 507 97 360 97 m 360 1031 q 335 1035 342 1031 q 328 1047 328 1040 q 333 1063 328 1054 q 351 1083 339 1071 l 433 1165 q 451 1178 442 1174 q 474 1184 460 1182 q 508 1186 488 1186 q 542 1184 529 1186 q 565 1178 556 1182 q 583 1165 575 1174 l 665 1083 q 683 1063 678 1071 q 689 1047 689 1054 q 682 1035 689 1040 q 657 1031 675 1031 q 633 1033 643 1031 q 607 1046 624 1036 l 508 1106 l 411 1046 q 386 1034 397 1038 q 360 1031 375 1031 m 425 1235 q 399 1240 408 1235 q 389 1253 389 1244 q 392 1265 389 1258 q 404 1279 396 1271 l 479 1358 q 519 1384 497 1378 q 585 1390 542 1390 q 638 1384 617 1390 q 658 1365 658 1378 q 649 1344 658 1354 q 603 1310 639 1333 l 528 1264 q 479 1240 499 1246 q 425 1235 460 1235 z "},"Ộ":{"ha":1015,"x_min":79,"x_max":936,"o":"m 507 -8 q 189 119 299 -8 q 79 489 79 246 q 189 857 79 733 q 507 981 299 981 q 826 857 717 981 q 936 489 936 733 q 826 119 936 246 q 507 -8 717 -8 m 507 97 q 732 197 654 97 q 810 489 810 297 q 732 778 810 681 q 507 875 654 875 q 283 778 360 875 q 206 489 206 681 q 283 197 206 297 q 507 97 360 97 m 510 -243 q 465 -235 479 -243 q 450 -212 450 -228 l 450 -142 q 465 -119 450 -126 q 510 -111 479 -111 q 556 -119 542 -111 q 569 -142 569 -126 l 569 -212 q 556 -235 569 -228 q 510 -243 542 -243 m 360 1031 q 335 1035 342 1031 q 328 1047 328 1040 q 333 1063 328 1054 q 351 1083 339 1071 l 433 1165 q 451 1178 442 1174 q 474 1184 460 1182 q 508 1186 488 1186 q 542 1184 529 1186 q 565 1178 556 1182 q 583 1165 575 1174 l 665 1083 q 683 1063 678 1071 q 689 1047 689 1054 q 682 1035 689 1040 q 657 1031 675 1031 q 633 1033 643 1031 q 607 1046 624 1036 l 508 1106 l 411 1046 q 386 1034 397 1038 q 360 1031 375 1031 z "},"Ồ":{"ha":1015,"x_min":79,"x_max":936,"o":"m 507 -8 q 189 119 299 -8 q 79 489 79 246 q 189 857 79 733 q 507 981 299 981 q 826 857 717 981 q 936 489 936 733 q 826 119 936 246 q 507 -8 717 -8 m 507 97 q 732 197 654 97 q 810 489 810 297 q 732 778 810 681 q 507 875 654 875 q 283 778 360 875 q 206 489 206 681 q 283 197 206 297 q 507 97 360 97 m 360 1031 q 335 1035 342 1031 q 328 1047 328 1040 q 333 1063 328 1054 q 351 1083 339 1071 l 433 1165 q 451 1178 442 1174 q 474 1184 460 1182 q 508 1186 488 1186 q 542 1184 529 1186 q 565 1178 556 1182 q 583 1165 575 1174 l 665 1083 q 683 1063 678 1071 q 689 1047 689 1054 q 682 1035 689 1040 q 657 1031 675 1031 q 633 1033 643 1031 q 607 1046 624 1036 l 508 1106 l 411 1046 q 386 1034 397 1038 q 360 1031 375 1031 m 592 1235 q 538 1240 557 1235 q 489 1264 518 1246 l 414 1310 q 368 1344 378 1333 q 358 1365 358 1354 q 379 1384 358 1378 q 432 1390 400 1390 q 498 1384 476 1390 q 538 1358 519 1378 l 613 1279 q 624 1265 621 1271 q 628 1253 628 1258 q 618 1240 628 1244 q 592 1235 608 1235 z "},"Ổ":{"ha":1015,"x_min":79,"x_max":936,"o":"m 507 -8 q 189 119 299 -8 q 79 489 79 246 q 189 857 79 733 q 507 981 299 981 q 826 857 717 981 q 936 489 936 733 q 826 119 936 246 q 507 -8 717 -8 m 507 97 q 732 197 654 97 q 810 489 810 297 q 732 778 810 681 q 507 875 654 875 q 283 778 360 875 q 206 489 206 681 q 283 197 206 297 q 507 97 360 97 m 360 1031 q 335 1035 342 1031 q 328 1047 328 1040 q 333 1063 328 1054 q 351 1083 339 1071 l 433 1165 q 451 1178 442 1174 q 474 1184 460 1182 q 508 1186 488 1186 q 542 1184 529 1186 q 565 1178 556 1182 q 583 1165 575 1174 l 665 1083 q 683 1063 678 1071 q 689 1047 689 1054 q 682 1035 689 1040 q 657 1031 675 1031 q 633 1033 643 1031 q 607 1046 624 1036 l 508 1106 l 411 1046 q 386 1034 397 1038 q 360 1031 375 1031 m 496 1218 q 475 1231 486 1218 q 464 1253 464 1243 q 478 1267 464 1258 q 510 1285 492 1275 q 542 1310 528 1296 q 556 1342 556 1324 q 536 1372 556 1364 q 488 1379 517 1379 q 440 1370 457 1379 q 417 1361 424 1361 q 403 1369 411 1361 q 390 1389 396 1378 q 383 1407 383 1400 q 401 1425 383 1415 q 447 1442 419 1435 q 503 1450 474 1450 q 561 1442 531 1450 q 613 1415 592 1435 q 635 1358 635 1394 q 617 1304 635 1329 q 575 1260 600 1279 q 528 1229 550 1240 q 496 1218 506 1218 z "},"Ỗ":{"ha":1015,"x_min":79,"x_max":936,"o":"m 507 -8 q 189 119 299 -8 q 79 489 79 246 q 189 857 79 733 q 507 981 299 981 q 826 857 717 981 q 936 489 936 733 q 826 119 936 246 q 507 -8 717 -8 m 507 97 q 732 197 654 97 q 810 489 810 297 q 732 778 810 681 q 507 875 654 875 q 283 778 360 875 q 206 489 206 681 q 283 197 206 297 q 507 97 360 97 m 360 1031 q 335 1035 342 1031 q 328 1047 328 1040 q 333 1063 328 1054 q 351 1083 339 1071 l 433 1165 q 451 1178 442 1174 q 474 1184 460 1182 q 508 1186 488 1186 q 542 1184 529 1186 q 565 1178 556 1182 q 583 1165 575 1174 l 665 1083 q 683 1063 678 1071 q 689 1047 689 1054 q 682 1035 689 1040 q 657 1031 675 1031 q 633 1033 643 1031 q 607 1046 624 1036 l 508 1106 l 411 1046 q 386 1034 397 1038 q 360 1031 375 1031 m 315 1236 q 299 1240 310 1236 q 281 1249 289 1243 q 272 1261 272 1254 q 274 1272 272 1267 q 276 1282 275 1276 q 333 1353 300 1333 q 399 1372 367 1372 q 479 1360 439 1372 q 556 1334 519 1347 q 621 1321 593 1321 q 663 1335 649 1321 q 683 1364 676 1350 q 699 1378 690 1378 q 727 1369 710 1378 q 744 1353 744 1361 q 742 1338 744 1349 q 729 1308 739 1328 q 689 1258 711 1276 q 618 1240 667 1240 q 533 1253 575 1240 q 456 1279 492 1267 q 392 1292 419 1292 q 355 1278 368 1292 q 333 1250 342 1264 q 315 1236 325 1236 z "},"Ȍ":{"ha":1015,"x_min":79,"x_max":936,"o":"m 507 -8 q 189 119 299 -8 q 79 489 79 246 q 189 857 79 733 q 507 981 299 981 q 826 857 717 981 q 936 489 936 733 q 826 119 936 246 q 507 -8 717 -8 m 507 97 q 732 197 654 97 q 810 489 810 297 q 732 778 810 681 q 507 875 654 875 q 283 778 360 875 q 206 489 206 681 q 283 197 206 297 q 507 97 360 97 m 425 1044 q 371 1050 390 1044 q 322 1074 351 1056 l 247 1119 q 201 1153 211 1143 q 192 1175 192 1164 q 213 1194 192 1188 q 265 1200 233 1200 q 331 1194 310 1200 q 371 1168 353 1188 l 446 1089 q 458 1074 454 1081 q 461 1063 461 1068 q 451 1049 461 1054 q 425 1044 442 1044 m 656 1044 q 601 1050 621 1044 q 553 1074 582 1056 l 478 1119 q 432 1153 442 1143 q 422 1175 422 1164 q 443 1194 422 1188 q 496 1200 464 1200 q 562 1194 540 1200 q 601 1168 583 1188 l 676 1089 q 688 1074 685 1081 q 692 1063 692 1068 q 682 1049 692 1054 q 656 1044 672 1044 z "},"Ö":{"ha":1015,"x_min":79,"x_max":936,"o":"m 507 -8 q 189 119 299 -8 q 79 489 79 246 q 189 857 79 733 q 507 981 299 981 q 826 857 717 981 q 936 489 936 733 q 826 119 936 246 q 507 -8 717 -8 m 507 97 q 732 197 654 97 q 810 489 810 297 q 732 778 810 681 q 507 875 654 875 q 283 778 360 875 q 206 489 206 681 q 283 197 206 297 q 507 97 360 97 m 621 1053 q 574 1060 589 1053 q 560 1083 560 1068 l 560 1161 q 574 1184 560 1176 q 621 1192 589 1192 q 667 1184 653 1192 q 682 1161 682 1176 l 682 1083 q 667 1060 682 1068 q 621 1053 653 1053 m 396 1053 q 349 1060 364 1053 q 335 1083 335 1068 l 335 1161 q 349 1184 335 1176 q 396 1192 364 1192 q 442 1184 428 1192 q 457 1161 457 1176 l 457 1083 q 442 1060 457 1068 q 396 1053 428 1053 z "},"Ȫ":{"ha":1015,"x_min":79,"x_max":936,"o":"m 507 -8 q 189 119 299 -8 q 79 489 79 246 q 189 857 79 733 q 507 981 299 981 q 826 857 717 981 q 936 489 936 733 q 826 119 936 246 q 507 -8 717 -8 m 507 97 q 732 197 654 97 q 810 489 810 297 q 732 778 810 681 q 507 875 654 875 q 283 778 360 875 q 206 489 206 681 q 283 197 206 297 q 507 97 360 97 m 621 1053 q 574 1060 589 1053 q 560 1083 560 1068 l 560 1161 q 574 1184 560 1176 q 621 1192 589 1192 q 667 1184 653 1192 q 682 1161 682 1176 l 682 1083 q 667 1060 682 1068 q 621 1053 653 1053 m 396 1053 q 349 1060 364 1053 q 335 1083 335 1068 l 335 1161 q 349 1184 335 1176 q 396 1192 364 1192 q 442 1184 428 1192 q 457 1161 457 1176 l 457 1083 q 442 1060 457 1068 q 396 1053 428 1053 m 347 1272 q 321 1314 321 1272 l 321 1328 q 347 1369 321 1369 l 669 1369 q 696 1328 696 1369 l 696 1314 q 669 1272 696 1272 l 347 1272 z "},"Ȱ":{"ha":1015,"x_min":79,"x_max":936,"o":"m 507 -8 q 189 119 299 -8 q 79 489 79 246 q 189 857 79 733 q 507 981 299 981 q 826 857 717 981 q 936 489 936 733 q 826 119 936 246 q 507 -8 717 -8 m 507 97 q 732 197 654 97 q 810 489 810 297 q 732 778 810 681 q 507 875 654 875 q 283 778 360 875 q 206 489 206 681 q 283 197 206 297 q 507 97 360 97 m 508 1051 q 460 1060 474 1051 q 446 1082 446 1068 l 446 1165 q 460 1188 446 1179 q 508 1196 474 1196 q 557 1188 543 1196 q 571 1165 571 1181 l 571 1082 q 557 1060 571 1068 q 508 1051 543 1051 m 347 1272 q 321 1314 321 1272 l 321 1328 q 347 1369 321 1369 l 669 1369 q 696 1328 696 1369 l 696 1314 q 669 1272 696 1272 l 347 1272 z "},"Ọ":{"ha":1015,"x_min":79,"x_max":936,"o":"m 507 -8 q 189 119 299 -8 q 79 489 79 246 q 189 857 79 733 q 507 981 299 981 q 826 857 717 981 q 936 489 936 733 q 826 119 936 246 q 507 -8 717 -8 m 507 97 q 732 197 654 97 q 810 489 810 297 q 732 778 810 681 q 507 875 654 875 q 283 778 360 875 q 206 489 206 681 q 283 197 206 297 q 507 97 360 97 m 510 -243 q 465 -235 479 -243 q 450 -212 450 -228 l 450 -142 q 465 -119 450 -126 q 510 -111 479 -111 q 556 -119 542 -111 q 569 -142 569 -126 l 569 -212 q 556 -235 569 -228 q 510 -243 542 -243 z "},"Ò":{"ha":1015,"x_min":79,"x_max":936,"o":"m 507 -8 q 189 119 299 -8 q 79 489 79 246 q 189 857 79 733 q 507 981 299 981 q 826 857 717 981 q 936 489 936 733 q 826 119 936 246 q 507 -8 717 -8 m 507 97 q 732 197 654 97 q 810 489 810 297 q 732 778 810 681 q 507 875 654 875 q 283 778 360 875 q 206 489 206 681 q 283 197 206 297 q 507 97 360 97 m 592 1044 q 538 1050 557 1044 q 489 1074 518 1056 l 414 1119 q 368 1153 378 1143 q 358 1175 358 1164 q 379 1194 358 1188 q 432 1200 400 1200 q 498 1194 476 1200 q 538 1168 519 1188 l 613 1089 q 624 1074 621 1081 q 628 1063 628 1068 q 618 1049 628 1054 q 592 1044 608 1044 z "},"Ỏ":{"ha":1015,"x_min":79,"x_max":936,"o":"m 507 -8 q 189 119 299 -8 q 79 489 79 246 q 189 857 79 733 q 507 981 299 981 q 826 857 717 981 q 936 489 936 733 q 826 119 936 246 q 507 -8 717 -8 m 507 97 q 732 197 654 97 q 810 489 810 297 q 732 778 810 681 q 507 875 654 875 q 283 778 360 875 q 206 489 206 681 q 283 197 206 297 q 507 97 360 97 m 496 1028 q 475 1040 486 1028 q 464 1063 464 1053 q 478 1076 464 1068 q 510 1095 492 1085 q 542 1119 528 1106 q 556 1151 556 1133 q 536 1181 556 1174 q 488 1189 517 1189 q 440 1180 457 1189 q 417 1171 424 1171 q 403 1179 411 1171 q 390 1199 396 1188 q 383 1217 383 1210 q 401 1235 383 1225 q 447 1252 419 1244 q 503 1260 474 1260 q 561 1252 531 1260 q 613 1224 592 1244 q 635 1168 635 1204 q 617 1114 635 1139 q 575 1069 600 1089 q 528 1039 550 1050 q 496 1028 506 1028 z "},"Ơ":{"ha":1015,"x_min":79,"x_max":936,"o":"m 507 -8 q 189 119 299 -8 q 79 489 79 246 q 189 857 79 733 q 507 981 299 981 q 826 857 717 981 q 936 489 936 733 q 826 119 936 246 q 507 -8 717 -8 m 507 97 q 732 197 654 97 q 810 489 810 297 q 732 778 810 681 q 507 875 654 875 q 283 778 360 875 q 206 489 206 681 q 283 197 206 297 q 507 97 360 97 m 676 892 l 676 944 l 719 944 q 769 959 760 944 q 779 990 779 974 q 771 1030 779 1013 q 754 1061 763 1047 q 746 1083 746 1075 q 758 1104 746 1094 q 784 1120 769 1114 q 807 1126 799 1126 q 835 1109 822 1126 q 856 1068 849 1092 q 864 1024 864 1044 q 835 928 864 965 q 719 892 806 892 l 676 892 z "},"Ớ":{"ha":1015,"x_min":79,"x_max":936,"o":"m 507 -8 q 189 119 299 -8 q 79 489 79 246 q 189 857 79 733 q 507 981 299 981 q 826 857 717 981 q 936 489 936 733 q 826 119 936 246 q 507 -8 717 -8 m 507 97 q 732 197 654 97 q 810 489 810 297 q 732 778 810 681 q 507 875 654 875 q 283 778 360 875 q 206 489 206 681 q 283 197 206 297 q 507 97 360 97 m 676 892 l 676 944 l 719 944 q 769 959 760 944 q 779 990 779 974 q 771 1030 779 1013 q 754 1061 763 1047 q 746 1083 746 1075 q 758 1104 746 1094 q 784 1120 769 1114 q 807 1126 799 1126 q 835 1109 822 1126 q 856 1068 849 1092 q 864 1024 864 1044 q 835 928 864 965 q 719 892 806 892 l 676 892 m 425 1044 q 399 1049 408 1044 q 389 1063 389 1054 q 392 1074 389 1068 q 404 1089 396 1081 l 479 1168 q 519 1194 497 1188 q 585 1200 542 1200 q 638 1194 617 1200 q 658 1175 658 1188 q 649 1153 658 1164 q 603 1119 639 1143 l 528 1074 q 479 1050 499 1056 q 425 1044 460 1044 z "},"Ợ":{"ha":1015,"x_min":79,"x_max":936,"o":"m 507 -8 q 189 119 299 -8 q 79 489 79 246 q 189 857 79 733 q 507 981 299 981 q 826 857 717 981 q 936 489 936 733 q 826 119 936 246 q 507 -8 717 -8 m 507 97 q 732 197 654 97 q 810 489 810 297 q 732 778 810 681 q 507 875 654 875 q 283 778 360 875 q 206 489 206 681 q 283 197 206 297 q 507 97 360 97 m 676 892 l 676 944 l 719 944 q 769 959 760 944 q 779 990 779 974 q 771 1030 779 1013 q 754 1061 763 1047 q 746 1083 746 1075 q 758 1104 746 1094 q 784 1120 769 1114 q 807 1126 799 1126 q 835 1109 822 1126 q 856 1068 849 1092 q 864 1024 864 1044 q 835 928 864 965 q 719 892 806 892 l 676 892 m 510 -243 q 465 -235 479 -243 q 450 -212 450 -228 l 450 -142 q 465 -119 450 -126 q 510 -111 479 -111 q 556 -119 542 -111 q 569 -142 569 -126 l 569 -212 q 556 -235 569 -228 q 510 -243 542 -243 z "},"Ờ":{"ha":1015,"x_min":79,"x_max":936,"o":"m 507 -8 q 189 119 299 -8 q 79 489 79 246 q 189 857 79 733 q 507 981 299 981 q 826 857 717 981 q 936 489 936 733 q 826 119 936 246 q 507 -8 717 -8 m 507 97 q 732 197 654 97 q 810 489 810 297 q 732 778 810 681 q 507 875 654 875 q 283 778 360 875 q 206 489 206 681 q 283 197 206 297 q 507 97 360 97 m 676 892 l 676 944 l 719 944 q 769 959 760 944 q 779 990 779 974 q 771 1030 779 1013 q 754 1061 763 1047 q 746 1083 746 1075 q 758 1104 746 1094 q 784 1120 769 1114 q 807 1126 799 1126 q 835 1109 822 1126 q 856 1068 849 1092 q 864 1024 864 1044 q 835 928 864 965 q 719 892 806 892 l 676 892 m 592 1044 q 538 1050 557 1044 q 489 1074 518 1056 l 414 1119 q 368 1153 378 1143 q 358 1175 358 1164 q 379 1194 358 1188 q 432 1200 400 1200 q 498 1194 476 1200 q 538 1168 519 1188 l 613 1089 q 624 1074 621 1081 q 628 1063 628 1068 q 618 1049 628 1054 q 592 1044 608 1044 z "},"Ở":{"ha":1015,"x_min":79,"x_max":936,"o":"m 507 -8 q 189 119 299 -8 q 79 489 79 246 q 189 857 79 733 q 507 981 299 981 q 826 857 717 981 q 936 489 936 733 q 826 119 936 246 q 507 -8 717 -8 m 507 97 q 732 197 654 97 q 810 489 810 297 q 732 778 810 681 q 507 875 654 875 q 283 778 360 875 q 206 489 206 681 q 283 197 206 297 q 507 97 360 97 m 676 892 l 676 944 l 719 944 q 769 959 760 944 q 779 990 779 974 q 771 1030 779 1013 q 754 1061 763 1047 q 746 1083 746 1075 q 758 1104 746 1094 q 784 1120 769 1114 q 807 1126 799 1126 q 835 1109 822 1126 q 856 1068 849 1092 q 864 1024 864 1044 q 835 928 864 965 q 719 892 806 892 l 676 892 m 496 1028 q 475 1040 486 1028 q 464 1063 464 1053 q 478 1076 464 1068 q 510 1095 492 1085 q 542 1119 528 1106 q 556 1151 556 1133 q 536 1181 556 1174 q 488 1189 517 1189 q 440 1180 457 1189 q 417 1171 424 1171 q 403 1179 411 1171 q 390 1199 396 1188 q 383 1217 383 1210 q 401 1235 383 1225 q 447 1252 419 1244 q 503 1260 474 1260 q 561 1252 531 1260 q 613 1224 592 1244 q 635 1168 635 1204 q 617 1114 635 1139 q 575 1069 600 1089 q 528 1039 550 1050 q 496 1028 506 1028 z "},"Ỡ":{"ha":1015,"x_min":79,"x_max":936,"o":"m 507 -8 q 189 119 299 -8 q 79 489 79 246 q 189 857 79 733 q 507 981 299 981 q 826 857 717 981 q 936 489 936 733 q 826 119 936 246 q 507 -8 717 -8 m 507 97 q 732 197 654 97 q 810 489 810 297 q 732 778 810 681 q 507 875 654 875 q 283 778 360 875 q 206 489 206 681 q 283 197 206 297 q 507 97 360 97 m 676 892 l 676 944 l 719 944 q 769 959 760 944 q 779 990 779 974 q 771 1030 779 1013 q 754 1061 763 1047 q 746 1083 746 1075 q 758 1104 746 1094 q 784 1120 769 1114 q 807 1126 799 1126 q 835 1109 822 1126 q 856 1068 849 1092 q 864 1024 864 1044 q 835 928 864 965 q 719 892 806 892 l 676 892 m 315 1046 q 299 1049 310 1046 q 281 1058 289 1053 q 272 1071 272 1064 q 274 1081 272 1076 q 276 1092 275 1086 q 333 1163 300 1143 q 399 1182 367 1182 q 479 1169 439 1182 q 556 1144 519 1157 q 621 1131 593 1131 q 663 1145 649 1131 q 683 1174 676 1160 q 699 1188 690 1188 q 727 1179 710 1188 q 744 1163 744 1171 q 742 1148 744 1158 q 729 1118 739 1138 q 689 1068 711 1086 q 618 1050 667 1050 q 533 1063 575 1050 q 456 1089 492 1076 q 392 1101 419 1101 q 355 1088 368 1101 q 333 1060 342 1074 q 315 1046 325 1046 z "},"Ő":{"ha":1015,"x_min":79,"x_max":936,"o":"m 507 -8 q 189 119 299 -8 q 79 489 79 246 q 189 857 79 733 q 507 981 299 981 q 826 857 717 981 q 936 489 936 733 q 826 119 936 246 q 507 -8 717 -8 m 507 97 q 732 197 654 97 q 810 489 810 297 q 732 778 810 681 q 507 875 654 875 q 283 778 360 875 q 206 489 206 681 q 283 197 206 297 q 507 97 360 97 m 343 1044 q 317 1049 326 1044 q 307 1063 307 1054 q 310 1074 307 1068 q 322 1089 314 1081 l 397 1168 q 438 1194 415 1188 q 503 1200 460 1200 q 556 1194 535 1200 q 576 1175 576 1188 q 567 1153 576 1164 q 521 1119 557 1143 l 446 1074 q 397 1050 417 1056 q 343 1044 378 1044 m 574 1044 q 547 1049 557 1044 q 538 1063 538 1054 q 541 1074 538 1068 q 553 1089 544 1081 l 628 1168 q 668 1194 646 1188 q 733 1200 690 1200 q 786 1194 765 1200 q 807 1175 807 1188 q 797 1153 807 1164 q 751 1119 788 1143 l 676 1074 q 628 1050 647 1056 q 574 1044 608 1044 z "},"Ȏ":{"ha":1015,"x_min":79,"x_max":936,"o":"m 507 -8 q 189 119 299 -8 q 79 489 79 246 q 189 857 79 733 q 507 981 299 981 q 826 857 717 981 q 936 489 936 733 q 826 119 936 246 q 507 -8 717 -8 m 507 97 q 732 197 654 97 q 810 489 810 297 q 732 778 810 681 q 507 875 654 875 q 283 778 360 875 q 206 489 206 681 q 283 197 206 297 q 507 97 360 97 m 351 1033 q 331 1042 338 1033 q 325 1068 325 1050 q 347 1143 325 1110 q 411 1195 369 1176 q 508 1214 453 1214 q 605 1195 564 1214 q 668 1143 646 1176 q 690 1068 690 1110 q 685 1042 690 1050 q 667 1033 679 1033 q 638 1056 647 1033 q 591 1106 625 1089 q 508 1122 557 1122 q 424 1106 458 1122 q 379 1056 390 1089 q 368 1038 374 1043 q 351 1033 363 1033 z "},"Ō":{"ha":1015,"x_min":79,"x_max":936,"o":"m 507 -8 q 189 119 299 -8 q 79 489 79 246 q 189 857 79 733 q 507 981 299 981 q 826 857 717 981 q 936 489 936 733 q 826 119 936 246 q 507 -8 717 -8 m 507 97 q 732 197 654 97 q 810 489 810 297 q 732 778 810 681 q 507 875 654 875 q 283 778 360 875 q 206 489 206 681 q 283 197 206 297 q 507 97 360 97 m 347 1075 q 321 1117 321 1075 l 321 1131 q 347 1172 321 1172 l 669 1172 q 696 1131 696 1172 l 696 1117 q 669 1075 696 1075 l 347 1075 z "},"Ǫ":{"ha":1015,"x_min":79,"x_max":936,"o":"m 507 -8 q 189 119 299 -8 q 79 489 79 246 q 189 857 79 733 q 507 981 299 981 q 826 857 717 981 q 936 489 936 733 q 826 119 936 246 q 507 -8 717 -8 m 507 97 q 732 197 654 97 q 810 489 810 297 q 732 778 810 681 q 507 875 654 875 q 283 778 360 875 q 206 489 206 681 q 283 197 206 297 q 507 97 360 97 m 593 -254 q 497 -222 532 -254 q 463 -146 463 -190 q 477 -83 463 -115 q 521 -23 492 -51 q 593 24 550 6 l 663 14 q 585 -47 614 -12 q 557 -122 557 -82 q 570 -153 557 -142 q 608 -165 583 -165 q 643 -160 628 -165 q 670 -149 658 -154 q 690 -143 682 -143 q 706 -153 699 -143 q 716 -175 713 -162 q 719 -197 719 -187 q 699 -224 719 -211 q 649 -246 678 -237 q 593 -254 619 -254 z "},"Ø":{"ha":1015,"x_min":79,"x_max":936,"o":"m 132 -25 q 113 -18 125 -25 q 90 -1 100 -11 q 79 22 79 10 q 83 33 79 28 q 90 43 86 38 l 846 968 q 867 989 860 985 q 883 993 874 993 q 904 986 892 993 q 926 968 917 979 q 936 944 936 957 q 933 933 936 939 q 926 925 929 928 l 171 0 q 150 -21 157 -17 q 132 -25 143 -25 m 507 -8 q 189 119 299 -8 q 79 489 79 246 q 189 857 79 733 q 507 981 299 981 q 826 857 717 981 q 936 489 936 733 q 826 119 936 246 q 507 -8 717 -8 m 507 97 q 732 197 654 97 q 810 489 810 297 q 732 778 810 681 q 507 875 654 875 q 283 778 360 875 q 206 489 206 681 q 283 197 206 297 q 507 97 360 97 z "},"Ǿ":{"ha":1015,"x_min":79,"x_max":936,"o":"m 132 -25 q 113 -18 125 -25 q 90 -1 100 -11 q 79 22 79 10 q 83 33 79 28 q 90 43 86 38 l 846 968 q 867 989 860 985 q 883 993 874 993 q 904 986 892 993 q 926 968 917 979 q 936 944 936 957 q 933 933 936 939 q 926 925 929 928 l 171 0 q 150 -21 157 -17 q 132 -25 143 -25 m 507 -8 q 189 119 299 -8 q 79 489 79 246 q 189 857 79 733 q 507 981 299 981 q 826 857 717 981 q 936 489 936 733 q 826 119 936 246 q 507 -8 717 -8 m 507 97 q 732 197 654 97 q 810 489 810 297 q 732 778 810 681 q 507 875 654 875 q 283 778 360 875 q 206 489 206 681 q 283 197 206 297 q 507 97 360 97 m 425 1044 q 399 1049 408 1044 q 389 1063 389 1054 q 392 1074 389 1068 q 404 1089 396 1081 l 479 1168 q 519 1194 497 1188 q 585 1200 542 1200 q 638 1194 617 1200 q 658 1175 658 1188 q 649 1153 658 1164 q 603 1119 639 1143 l 528 1074 q 479 1050 499 1056 q 425 1044 460 1044 z "},"Õ":{"ha":1015,"x_min":79,"x_max":936,"o":"m 507 -8 q 189 119 299 -8 q 79 489 79 246 q 189 857 79 733 q 507 981 299 981 q 826 857 717 981 q 936 489 936 733 q 826 119 936 246 q 507 -8 717 -8 m 507 97 q 732 197 654 97 q 810 489 810 297 q 732 778 810 681 q 507 875 654 875 q 283 778 360 875 q 206 489 206 681 q 283 197 206 297 q 507 97 360 97 m 315 1046 q 299 1049 310 1046 q 281 1058 289 1053 q 272 1071 272 1064 q 274 1081 272 1076 q 276 1092 275 1086 q 333 1163 300 1143 q 399 1182 367 1182 q 479 1169 439 1182 q 556 1144 519 1157 q 621 1131 593 1131 q 663 1145 649 1131 q 683 1174 676 1160 q 699 1188 690 1188 q 727 1179 710 1188 q 744 1163 744 1171 q 742 1148 744 1158 q 729 1118 739 1138 q 689 1068 711 1086 q 618 1050 667 1050 q 533 1063 575 1050 q 456 1089 492 1076 q 392 1101 419 1101 q 355 1088 368 1101 q 333 1060 342 1074 q 315 1046 325 1046 z "},"Ȭ":{"ha":1015,"x_min":79,"x_max":936,"o":"m 507 -8 q 189 119 299 -8 q 79 489 79 246 q 189 857 79 733 q 507 981 299 981 q 826 857 717 981 q 936 489 936 733 q 826 119 936 246 q 507 -8 717 -8 m 507 97 q 732 197 654 97 q 810 489 810 297 q 732 778 810 681 q 507 875 654 875 q 283 778 360 875 q 206 489 206 681 q 283 197 206 297 q 507 97 360 97 m 315 1046 q 299 1049 310 1046 q 281 1058 289 1053 q 272 1071 272 1064 q 274 1081 272 1076 q 276 1092 275 1086 q 333 1163 300 1143 q 399 1182 367 1182 q 479 1169 439 1182 q 556 1144 519 1157 q 621 1131 593 1131 q 663 1145 649 1131 q 683 1174 676 1160 q 699 1188 690 1188 q 727 1179 710 1188 q 744 1163 744 1171 q 742 1148 744 1158 q 729 1118 739 1138 q 689 1068 711 1086 q 618 1050 667 1050 q 533 1063 575 1050 q 456 1089 492 1076 q 392 1101 419 1101 q 355 1088 368 1101 q 333 1060 342 1074 q 315 1046 325 1046 m 347 1265 q 321 1307 321 1265 l 321 1321 q 347 1363 321 1363 l 669 1363 q 696 1321 696 1363 l 696 1307 q 669 1265 696 1265 l 347 1265 z "},"Œ":{"ha":1410,"x_min":79,"x_max":1342,"o":"m 507 -8 q 189 119 299 -8 q 79 489 79 246 q 189 857 79 733 q 507 981 299 981 q 806 857 703 981 q 908 489 908 733 q 863 216 908 326 q 727 49 817 106 q 507 -8 638 -8 m 507 97 q 732 197 654 97 q 810 489 810 297 q 732 778 810 681 q 507 875 654 875 q 283 778 360 875 q 206 489 206 681 q 283 197 206 297 q 507 97 360 97 m 853 0 q 810 42 810 0 l 810 931 q 853 972 810 972 l 1313 972 q 1340 931 1340 972 l 1340 908 q 1313 867 1340 867 l 935 867 l 935 550 l 1271 550 q 1299 508 1299 550 l 1299 486 q 1271 444 1299 444 l 935 444 l 935 106 l 1314 106 q 1342 64 1342 106 l 1342 42 q 1314 0 1342 0 l 853 0 z "},"P":{"ha":792,"x_min":135,"x_max":767,"o":"m 192 -3 q 148 6 161 -3 q 135 28 135 14 l 135 931 q 178 972 135 972 l 451 972 q 688 902 608 972 q 767 693 767 832 q 688 484 767 554 q 451 414 608 414 l 260 414 l 260 28 q 247 6 260 14 q 203 -3 235 -3 l 192 -3 m 260 519 l 451 519 q 596 560 551 519 q 640 693 640 601 q 596 826 640 785 q 451 867 551 867 l 260 867 l 260 519 z "},"Þ":{"ha":778,"x_min":135,"x_max":753,"o":"m 197 206 l 197 311 l 438 311 q 582 352 538 311 q 626 485 626 393 q 582 617 626 576 q 438 658 538 658 l 197 658 l 197 764 l 438 764 q 674 694 594 764 q 753 485 753 624 q 674 276 753 346 q 438 206 594 206 l 197 206 m 192 -3 q 148 6 161 -3 q 135 28 135 14 l 135 944 q 148 967 135 960 q 192 975 161 975 l 203 975 q 247 967 235 975 q 260 944 260 960 l 260 28 q 247 6 260 14 q 203 -3 235 -3 l 192 -3 z "},"Q":{"ha":1015,"x_min":79,"x_max":950,"o":"m 906 -206 q 867 -194 899 -206 q 787 -165 835 -183 q 682 -123 739 -146 q 569 -77 625 -100 q 463 -34 513 -54 q 381 0 414 -14 q 339 18 347 14 l 642 18 l 642 1 l 925 -83 q 944 -93 939 -87 q 950 -106 950 -99 q 947 -133 950 -117 q 938 -167 943 -150 q 924 -194 932 -183 q 906 -206 915 -206 m 507 -8 q 189 119 299 -8 q 79 489 79 246 q 189 857 79 733 q 507 981 299 981 q 826 857 717 981 q 936 489 936 733 q 826 119 936 246 q 507 -8 717 -8 m 507 97 q 732 197 654 97 q 810 489 810 297 q 732 778 810 681 q 507 875 654 875 q 283 778 360 875 q 206 489 206 681 q 283 197 206 297 q 507 97 360 97 z "},"R":{"ha":847,"x_min":135,"x_max":822,"o":"m 192 -3 q 148 6 161 -3 q 135 28 135 14 l 135 931 q 178 972 135 972 l 451 972 q 688 904 608 972 q 767 700 767 836 q 745 590 767 639 q 683 511 724 542 q 588 471 643 481 l 588 465 q 658 413 631 453 q 710 313 686 374 l 818 39 q 822 28 821 33 q 822 19 822 22 q 808 3 822 10 q 764 -3 794 -3 l 750 -3 q 714 3 729 -3 q 694 19 699 10 l 579 317 q 542 383 564 358 q 489 417 521 407 q 410 428 457 428 l 260 428 l 260 28 q 247 6 260 14 q 203 -3 235 -3 l 192 -3 m 260 533 l 451 533 q 596 571 551 533 q 640 693 640 608 q 596 826 640 785 q 451 867 551 867 l 260 867 l 260 533 z "},"Ŕ":{"ha":847,"x_min":135,"x_max":822,"o":"m 192 -3 q 148 6 161 -3 q 135 28 135 14 l 135 931 q 178 972 135 972 l 451 972 q 688 904 608 972 q 767 700 767 836 q 745 590 767 639 q 683 511 724 542 q 588 471 643 481 l 588 465 q 658 413 631 453 q 710 313 686 374 l 818 39 q 822 28 821 33 q 822 19 822 22 q 808 3 822 10 q 764 -3 794 -3 l 750 -3 q 714 3 729 -3 q 694 19 699 10 l 579 317 q 542 383 564 358 q 489 417 521 407 q 410 428 457 428 l 260 428 l 260 28 q 247 6 260 14 q 203 -3 235 -3 l 192 -3 m 260 533 l 451 533 q 596 571 551 533 q 640 693 640 608 q 596 826 640 785 q 451 867 551 867 l 260 867 l 260 533 m 350 1044 q 324 1049 333 1044 q 314 1063 314 1054 q 317 1074 314 1068 q 329 1089 321 1081 l 404 1168 q 444 1194 422 1188 q 510 1200 467 1200 q 563 1194 542 1200 q 583 1175 583 1188 q 574 1153 583 1164 q 528 1119 564 1143 l 453 1074 q 404 1050 424 1056 q 350 1044 385 1044 z "},"Ř":{"ha":847,"x_min":135,"x_max":822,"o":"m 192 -3 q 148 6 161 -3 q 135 28 135 14 l 135 931 q 178 972 135 972 l 451 972 q 688 904 608 972 q 767 700 767 836 q 745 590 767 639 q 683 511 724 542 q 588 471 643 481 l 588 465 q 658 413 631 453 q 710 313 686 374 l 818 39 q 822 28 821 33 q 822 19 822 22 q 808 3 822 10 q 764 -3 794 -3 l 750 -3 q 714 3 729 -3 q 694 19 699 10 l 579 317 q 542 383 564 358 q 489 417 521 407 q 410 428 457 428 l 260 428 l 260 28 q 247 6 260 14 q 203 -3 235 -3 l 192 -3 m 260 533 l 451 533 q 596 571 551 533 q 640 693 640 608 q 596 826 640 785 q 451 867 551 867 l 260 867 l 260 533 m 582 1186 q 607 1181 600 1186 q 614 1169 614 1176 q 608 1154 614 1163 q 590 1133 603 1146 l 508 1051 q 491 1039 500 1043 q 468 1033 482 1035 q 433 1031 454 1031 q 399 1033 413 1031 q 376 1039 386 1035 q 358 1051 367 1043 l 276 1133 q 258 1154 264 1146 q 253 1169 253 1163 q 260 1181 253 1176 q 285 1186 267 1186 q 309 1184 300 1186 q 335 1171 318 1182 l 433 1111 l 531 1171 q 556 1183 544 1179 q 582 1186 568 1186 z "},"Ŗ":{"ha":847,"x_min":135,"x_max":822,"o":"m 192 -3 q 148 6 161 -3 q 135 28 135 14 l 135 931 q 178 972 135 972 l 451 972 q 688 904 608 972 q 767 700 767 836 q 745 590 767 639 q 683 511 724 542 q 588 471 643 481 l 588 465 q 658 413 631 453 q 710 313 686 374 l 818 39 q 822 28 821 33 q 822 19 822 22 q 808 3 822 10 q 764 -3 794 -3 l 750 -3 q 714 3 729 -3 q 694 19 699 10 l 579 317 q 542 383 564 358 q 489 417 521 407 q 410 428 457 428 l 260 428 l 260 28 q 247 6 260 14 q 203 -3 235 -3 l 192 -3 m 260 533 l 451 533 q 596 571 551 533 q 640 693 640 608 q 596 826 640 785 q 451 867 551 867 l 260 867 l 260 533 m 404 -312 q 381 -308 394 -312 q 368 -292 368 -304 q 374 -265 368 -281 q 389 -226 381 -249 q 403 -173 397 -203 q 410 -106 410 -143 q 423 -79 410 -87 q 465 -71 436 -71 q 521 -106 521 -71 q 499 -212 521 -165 q 451 -286 478 -260 q 404 -312 424 -312 z "},"Ȑ":{"ha":847,"x_min":117,"x_max":822,"o":"m 192 -3 q 148 6 161 -3 q 135 28 135 14 l 135 931 q 178 972 135 972 l 451 972 q 688 904 608 972 q 767 700 767 836 q 745 590 767 639 q 683 511 724 542 q 588 471 643 481 l 588 465 q 658 413 631 453 q 710 313 686 374 l 818 39 q 822 28 821 33 q 822 19 822 22 q 808 3 822 10 q 764 -3 794 -3 l 750 -3 q 714 3 729 -3 q 694 19 699 10 l 579 317 q 542 383 564 358 q 489 417 521 407 q 410 428 457 428 l 260 428 l 260 28 q 247 6 260 14 q 203 -3 235 -3 l 192 -3 m 260 533 l 451 533 q 596 571 551 533 q 640 693 640 608 q 596 826 640 785 q 451 867 551 867 l 260 867 l 260 533 m 350 1044 q 296 1050 315 1044 q 247 1074 276 1056 l 172 1119 q 126 1153 136 1143 q 117 1175 117 1164 q 138 1194 117 1188 q 190 1200 158 1200 q 256 1194 235 1200 q 296 1168 278 1188 l 371 1089 q 383 1074 379 1081 q 386 1063 386 1068 q 376 1049 386 1054 q 350 1044 367 1044 m 581 1044 q 526 1050 546 1044 q 478 1074 507 1056 l 403 1119 q 357 1153 367 1143 q 347 1175 347 1164 q 368 1194 347 1188 q 421 1200 389 1200 q 487 1194 465 1200 q 526 1168 508 1188 l 601 1089 q 613 1074 610 1081 q 617 1063 617 1068 q 607 1049 617 1054 q 581 1044 597 1044 z "},"Ṛ":{"ha":847,"x_min":135,"x_max":822,"o":"m 192 -3 q 148 6 161 -3 q 135 28 135 14 l 135 931 q 178 972 135 972 l 451 972 q 688 904 608 972 q 767 700 767 836 q 745 590 767 639 q 683 511 724 542 q 588 471 643 481 l 588 465 q 658 413 631 453 q 710 313 686 374 l 818 39 q 822 28 821 33 q 822 19 822 22 q 808 3 822 10 q 764 -3 794 -3 l 750 -3 q 714 3 729 -3 q 694 19 699 10 l 579 317 q 542 383 564 358 q 489 417 521 407 q 410 428 457 428 l 260 428 l 260 28 q 247 6 260 14 q 203 -3 235 -3 l 192 -3 m 260 533 l 451 533 q 596 571 551 533 q 640 693 640 608 q 596 826 640 785 q 451 867 551 867 l 260 867 l 260 533 m 465 -243 q 420 -235 435 -243 q 406 -212 406 -228 l 406 -142 q 420 -119 406 -126 q 465 -111 435 -111 q 511 -119 497 -111 q 525 -142 525 -126 l 525 -212 q 511 -235 525 -228 q 465 -243 497 -243 z "},"Ȓ":{"ha":847,"x_min":135,"x_max":822,"o":"m 192 -3 q 148 6 161 -3 q 135 28 135 14 l 135 931 q 178 972 135 972 l 451 972 q 688 904 608 972 q 767 700 767 836 q 745 590 767 639 q 683 511 724 542 q 588 471 643 481 l 588 465 q 658 413 631 453 q 710 313 686 374 l 818 39 q 822 28 821 33 q 822 19 822 22 q 808 3 822 10 q 764 -3 794 -3 l 750 -3 q 714 3 729 -3 q 694 19 699 10 l 579 317 q 542 383 564 358 q 489 417 521 407 q 410 428 457 428 l 260 428 l 260 28 q 247 6 260 14 q 203 -3 235 -3 l 192 -3 m 260 533 l 451 533 q 596 571 551 533 q 640 693 640 608 q 596 826 640 785 q 451 867 551 867 l 260 867 l 260 533 m 276 1033 q 256 1042 263 1033 q 250 1068 250 1050 q 272 1143 250 1110 q 336 1195 294 1176 q 433 1214 378 1214 q 530 1195 489 1214 q 593 1143 571 1176 q 615 1068 615 1110 q 610 1042 615 1050 q 592 1033 604 1033 q 563 1056 572 1033 q 516 1106 550 1089 q 433 1122 482 1122 q 349 1106 383 1122 q 304 1056 315 1089 q 293 1038 299 1043 q 276 1033 288 1033 z "},"S":{"ha":694,"x_min":50,"x_max":646,"o":"m 338 -8 q 228 3 279 -8 q 140 30 178 14 q 81 61 103 46 q 59 78 68 69 q 50 97 50 88 q 53 116 50 104 q 60 140 56 128 q 72 161 65 153 q 86 169 78 169 q 134 151 100 169 q 220 115 168 133 q 338 97 272 97 q 439 115 399 97 q 499 170 479 133 q 519 261 519 207 q 502 332 519 303 q 455 382 485 361 q 388 419 425 403 q 310 450 350 435 q 222 487 265 467 q 144 536 179 507 q 89 610 110 565 q 68 724 68 656 q 90 826 68 779 q 153 908 113 874 q 250 962 194 943 q 372 981 306 981 q 444 974 407 981 q 515 956 482 967 q 572 929 549 944 q 592 913 585 922 q 599 897 599 904 q 596 876 599 889 q 588 851 593 864 q 576 831 583 839 q 563 822 569 822 q 522 835 550 822 q 456 862 494 849 q 369 875 418 875 q 276 856 315 875 q 216 803 238 838 q 194 722 194 769 q 221 640 194 671 q 290 591 247 610 q 383 553 333 572 q 476 513 429 535 q 561 460 522 492 q 623 380 600 428 q 646 261 646 332 q 625 149 646 199 q 564 63 604 99 q 467 10 524 28 q 338 -8 410 -8 z "},"Ś":{"ha":694,"x_min":50,"x_max":646,"o":"m 338 -8 q 228 3 279 -8 q 140 30 178 14 q 81 61 103 46 q 59 78 68 69 q 50 97 50 88 q 53 116 50 104 q 60 140 56 128 q 72 161 65 153 q 86 169 78 169 q 134 151 100 169 q 220 115 168 133 q 338 97 272 97 q 439 115 399 97 q 499 170 479 133 q 519 261 519 207 q 502 332 519 303 q 455 382 485 361 q 388 419 425 403 q 310 450 350 435 q 222 487 265 467 q 144 536 179 507 q 89 610 110 565 q 68 724 68 656 q 90 826 68 779 q 153 908 113 874 q 250 962 194 943 q 372 981 306 981 q 444 974 407 981 q 515 956 482 967 q 572 929 549 944 q 592 913 585 922 q 599 897 599 904 q 596 876 599 889 q 588 851 593 864 q 576 831 583 839 q 563 822 569 822 q 522 835 550 822 q 456 862 494 849 q 369 875 418 875 q 276 856 315 875 q 216 803 238 838 q 194 722 194 769 q 221 640 194 671 q 290 591 247 610 q 383 553 333 572 q 476 513 429 535 q 561 460 522 492 q 623 380 600 428 q 646 261 646 332 q 625 149 646 199 q 564 63 604 99 q 467 10 524 28 q 338 -8 410 -8 m 264 1044 q 238 1049 247 1044 q 228 1063 228 1054 q 231 1074 228 1068 q 243 1089 235 1081 l 318 1168 q 358 1194 336 1188 q 424 1200 381 1200 q 476 1194 456 1200 q 497 1175 497 1188 q 488 1153 497 1164 q 442 1119 478 1143 l 367 1074 q 318 1050 338 1056 q 264 1044 299 1044 z "},"Š":{"ha":694,"x_min":50,"x_max":646,"o":"m 338 -8 q 228 3 279 -8 q 140 30 178 14 q 81 61 103 46 q 59 78 68 69 q 50 97 50 88 q 53 116 50 104 q 60 140 56 128 q 72 161 65 153 q 86 169 78 169 q 134 151 100 169 q 220 115 168 133 q 338 97 272 97 q 439 115 399 97 q 499 170 479 133 q 519 261 519 207 q 502 332 519 303 q 455 382 485 361 q 388 419 425 403 q 310 450 350 435 q 222 487 265 467 q 144 536 179 507 q 89 610 110 565 q 68 724 68 656 q 90 826 68 779 q 153 908 113 874 q 250 962 194 943 q 372 981 306 981 q 444 974 407 981 q 515 956 482 967 q 572 929 549 944 q 592 913 585 922 q 599 897 599 904 q 596 876 599 889 q 588 851 593 864 q 576 831 583 839 q 563 822 569 822 q 522 835 550 822 q 456 862 494 849 q 369 875 418 875 q 276 856 315 875 q 216 803 238 838 q 194 722 194 769 q 221 640 194 671 q 290 591 247 610 q 383 553 333 572 q 476 513 429 535 q 561 460 522 492 q 623 380 600 428 q 646 261 646 332 q 625 149 646 199 q 564 63 604 99 q 467 10 524 28 q 338 -8 410 -8 m 496 1186 q 521 1181 514 1186 q 528 1169 528 1176 q 522 1154 528 1163 q 504 1133 517 1146 l 422 1051 q 405 1039 414 1043 q 382 1033 396 1035 q 347 1031 368 1031 q 313 1033 326 1031 q 290 1039 300 1035 q 272 1051 281 1043 l 190 1133 q 172 1154 178 1146 q 167 1169 167 1163 q 174 1181 167 1176 q 199 1186 181 1186 q 223 1184 214 1186 q 249 1171 232 1182 l 347 1111 l 444 1171 q 470 1183 458 1179 q 496 1186 482 1186 z "},"Ş":{"ha":694,"x_min":50,"x_max":646,"o":"m 338 -8 q 228 3 279 -8 q 140 30 178 14 q 81 61 103 46 q 59 78 68 69 q 50 97 50 88 q 53 116 50 104 q 60 140 56 128 q 72 161 65 153 q 86 169 78 169 q 134 151 100 169 q 220 115 168 133 q 338 97 272 97 q 439 115 399 97 q 499 170 479 133 q 519 261 519 207 q 502 332 519 303 q 455 382 485 361 q 388 419 425 403 q 310 450 350 435 q 222 487 265 467 q 144 536 179 507 q 89 610 110 565 q 68 724 68 656 q 90 826 68 779 q 153 908 113 874 q 250 962 194 943 q 372 981 306 981 q 444 974 407 981 q 515 956 482 967 q 572 929 549 944 q 592 913 585 922 q 599 897 599 904 q 596 876 599 889 q 588 851 593 864 q 576 831 583 839 q 563 822 569 822 q 522 835 550 822 q 456 862 494 849 q 369 875 418 875 q 276 856 315 875 q 216 803 238 838 q 194 722 194 769 q 221 640 194 671 q 290 591 247 610 q 383 553 333 572 q 476 513 429 535 q 561 460 522 492 q 623 380 600 428 q 646 261 646 332 q 625 149 646 199 q 564 63 604 99 q 467 10 524 28 q 338 -8 410 -8 m 335 -292 q 267 -285 304 -292 q 202 -267 229 -279 q 175 -240 175 -256 q 178 -223 175 -233 q 187 -204 181 -212 q 200 -196 193 -196 q 229 -203 211 -196 q 272 -217 247 -210 q 331 -224 297 -224 q 360 -220 343 -224 q 392 -206 378 -217 q 406 -175 406 -196 q 390 -142 406 -151 q 353 -131 374 -133 q 317 -123 333 -128 q 301 -104 301 -118 q 305 -86 301 -99 q 316 -51 308 -74 q 333 8 324 -28 l 393 8 l 367 -82 l 354 -75 q 459 -101 424 -75 q 494 -174 494 -126 q 469 -250 494 -225 q 406 -283 443 -275 q 335 -292 369 -292 z "},"Ŝ":{"ha":694,"x_min":50,"x_max":646,"o":"m 338 -8 q 228 3 279 -8 q 140 30 178 14 q 81 61 103 46 q 59 78 68 69 q 50 97 50 88 q 53 116 50 104 q 60 140 56 128 q 72 161 65 153 q 86 169 78 169 q 134 151 100 169 q 220 115 168 133 q 338 97 272 97 q 439 115 399 97 q 499 170 479 133 q 519 261 519 207 q 502 332 519 303 q 455 382 485 361 q 388 419 425 403 q 310 450 350 435 q 222 487 265 467 q 144 536 179 507 q 89 610 110 565 q 68 724 68 656 q 90 826 68 779 q 153 908 113 874 q 250 962 194 943 q 372 981 306 981 q 444 974 407 981 q 515 956 482 967 q 572 929 549 944 q 592 913 585 922 q 599 897 599 904 q 596 876 599 889 q 588 851 593 864 q 576 831 583 839 q 563 822 569 822 q 522 835 550 822 q 456 862 494 849 q 369 875 418 875 q 276 856 315 875 q 216 803 238 838 q 194 722 194 769 q 221 640 194 671 q 290 591 247 610 q 383 553 333 572 q 476 513 429 535 q 561 460 522 492 q 623 380 600 428 q 646 261 646 332 q 625 149 646 199 q 564 63 604 99 q 467 10 524 28 q 338 -8 410 -8 m 199 1031 q 174 1035 181 1031 q 167 1047 167 1040 q 172 1063 167 1054 q 190 1083 178 1071 l 272 1165 q 290 1178 281 1174 q 313 1184 299 1182 q 347 1186 326 1186 q 381 1184 368 1186 q 404 1178 394 1182 q 422 1165 414 1174 l 504 1083 q 522 1063 517 1071 q 528 1047 528 1054 q 521 1035 528 1040 q 496 1031 514 1031 q 472 1033 482 1031 q 446 1046 463 1036 l 347 1106 l 250 1046 q 225 1034 236 1038 q 199 1031 214 1031 z "},"Ș":{"ha":694,"x_min":50,"x_max":646,"o":"m 338 -8 q 228 3 279 -8 q 140 30 178 14 q 81 61 103 46 q 59 78 68 69 q 50 97 50 88 q 53 116 50 104 q 60 140 56 128 q 72 161 65 153 q 86 169 78 169 q 134 151 100 169 q 220 115 168 133 q 338 97 272 97 q 439 115 399 97 q 499 170 479 133 q 519 261 519 207 q 502 332 519 303 q 455 382 485 361 q 388 419 425 403 q 310 450 350 435 q 222 487 265 467 q 144 536 179 507 q 89 610 110 565 q 68 724 68 656 q 90 826 68 779 q 153 908 113 874 q 250 962 194 943 q 372 981 306 981 q 444 974 407 981 q 515 956 482 967 q 572 929 549 944 q 592 913 585 922 q 599 897 599 904 q 596 876 599 889 q 588 851 593 864 q 576 831 583 839 q 563 822 569 822 q 522 835 550 822 q 456 862 494 849 q 369 875 418 875 q 276 856 315 875 q 216 803 238 838 q 194 722 194 769 q 221 640 194 671 q 290 591 247 610 q 383 553 333 572 q 476 513 429 535 q 561 460 522 492 q 623 380 600 428 q 646 261 646 332 q 625 149 646 199 q 564 63 604 99 q 467 10 524 28 q 338 -8 410 -8 m 299 -312 q 276 -308 289 -312 q 263 -292 263 -304 q 269 -265 263 -281 q 283 -226 275 -249 q 298 -173 292 -203 q 304 -106 304 -143 q 317 -79 304 -87 q 360 -71 331 -71 q 415 -106 415 -71 q 394 -212 415 -165 q 345 -286 372 -260 q 299 -312 318 -312 z "},"Ṣ":{"ha":694,"x_min":50,"x_max":646,"o":"m 338 -8 q 228 3 279 -8 q 140 30 178 14 q 81 61 103 46 q 59 78 68 69 q 50 97 50 88 q 53 116 50 104 q 60 140 56 128 q 72 161 65 153 q 86 169 78 169 q 134 151 100 169 q 220 115 168 133 q 338 97 272 97 q 439 115 399 97 q 499 170 479 133 q 519 261 519 207 q 502 332 519 303 q 455 382 485 361 q 388 419 425 403 q 310 450 350 435 q 222 487 265 467 q 144 536 179 507 q 89 610 110 565 q 68 724 68 656 q 90 826 68 779 q 153 908 113 874 q 250 962 194 943 q 372 981 306 981 q 444 974 407 981 q 515 956 482 967 q 572 929 549 944 q 592 913 585 922 q 599 897 599 904 q 596 876 599 889 q 588 851 593 864 q 576 831 583 839 q 563 822 569 822 q 522 835 550 822 q 456 862 494 849 q 369 875 418 875 q 276 856 315 875 q 216 803 238 838 q 194 722 194 769 q 221 640 194 671 q 290 591 247 610 q 383 553 333 572 q 476 513 429 535 q 561 460 522 492 q 623 380 600 428 q 646 261 646 332 q 625 149 646 199 q 564 63 604 99 q 467 10 524 28 q 338 -8 410 -8 m 360 -243 q 315 -235 329 -243 q 300 -212 300 -228 l 300 -142 q 315 -119 300 -126 q 360 -111 329 -111 q 406 -119 392 -111 q 419 -142 419 -126 l 419 -212 q 406 -235 419 -228 q 360 -243 392 -243 z "},"ẞ":{"ha":958,"x_min":121,"x_max":910,"o":"m 586 -8 q 491 -1 535 -8 q 415 19 447 7 q 366 44 383 31 q 349 71 349 58 q 356 101 349 85 q 372 128 363 117 q 392 140 382 140 q 424 128 400 140 q 488 104 449 117 q 575 92 526 92 q 646 101 608 92 q 715 131 683 110 q 768 190 747 153 q 789 283 789 226 q 729 418 789 369 q 567 467 669 467 l 524 467 q 505 479 514 467 q 490 509 496 492 q 485 540 485 526 q 486 551 485 546 q 492 561 488 556 l 728 885 l 721 839 q 667 856 699 849 q 594 869 635 864 q 504 875 554 875 q 309 809 372 875 q 246 596 246 743 l 246 28 q 233 6 246 14 q 189 -3 221 -3 l 178 -3 q 134 6 147 -3 q 121 28 121 14 l 121 597 q 218 883 121 788 q 501 979 315 979 q 676 965 596 979 q 803 933 756 950 q 823 915 815 929 q 835 885 831 901 q 839 858 839 869 q 838 849 839 853 q 832 839 836 844 l 599 518 l 604 561 q 768 528 700 561 q 873 432 836 494 q 910 282 910 369 q 880 146 910 201 q 801 56 850 90 q 697 7 753 22 q 586 -8 640 -8 z "},"T":{"ha":763,"x_min":28,"x_max":735,"o":"m 374 -3 q 333 6 346 -3 q 321 28 321 14 l 321 867 l 54 867 q 28 908 28 867 l 28 931 q 54 972 28 972 l 707 972 q 735 931 735 972 l 735 908 q 707 867 735 867 l 446 867 l 446 28 q 433 6 446 14 q 393 -3 421 -3 l 374 -3 z "},"Ŧ":{"ha":763,"x_min":28,"x_max":735,"o":"m 132 453 q 104 494 104 453 l 104 508 q 132 550 104 550 l 632 550 q 660 508 660 550 l 660 494 q 632 453 660 453 l 132 453 m 374 -3 q 333 6 346 -3 q 321 28 321 14 l 321 867 l 54 867 q 28 908 28 867 l 28 931 q 54 972 28 972 l 707 972 q 735 931 735 972 l 735 908 q 707 867 735 867 l 446 867 l 446 28 q 433 6 446 14 q 393 -3 421 -3 l 374 -3 z "},"Ť":{"ha":763,"x_min":28,"x_max":735,"o":"m 374 -3 q 333 6 346 -3 q 321 28 321 14 l 321 867 l 54 867 q 28 908 28 867 l 28 931 q 54 972 28 972 l 707 972 q 735 931 735 972 l 735 908 q 707 867 735 867 l 446 867 l 446 28 q 433 6 446 14 q 393 -3 421 -3 l 374 -3 m 531 1186 q 556 1181 549 1186 q 563 1169 563 1176 q 557 1154 563 1163 q 539 1133 551 1146 l 457 1051 q 440 1039 449 1043 q 417 1033 431 1035 q 382 1031 403 1031 q 348 1033 361 1031 q 325 1039 335 1035 q 307 1051 315 1043 l 225 1133 q 207 1154 213 1146 q 201 1169 201 1163 q 208 1181 201 1176 q 233 1186 215 1186 q 258 1184 249 1186 q 283 1171 267 1182 l 382 1111 l 479 1171 q 505 1183 493 1179 q 531 1186 517 1186 z "},"Ţ":{"ha":763,"x_min":28,"x_max":735,"o":"m 374 -3 q 333 6 346 -3 q 321 28 321 14 l 321 867 l 54 867 q 28 908 28 867 l 28 931 q 54 972 28 972 l 707 972 q 735 931 735 972 l 735 908 q 707 867 735 867 l 446 867 l 446 28 q 433 6 446 14 q 393 -3 421 -3 l 374 -3 m 357 -292 q 289 -285 326 -292 q 224 -267 251 -279 q 197 -240 197 -256 q 200 -223 197 -233 q 209 -204 203 -212 q 222 -196 215 -196 q 251 -203 233 -196 q 294 -217 269 -210 q 353 -224 319 -224 q 383 -220 365 -224 q 414 -206 400 -217 q 428 -175 428 -196 q 412 -142 428 -151 q 376 -131 396 -133 q 340 -123 356 -128 q 324 -104 324 -118 q 327 -86 324 -99 q 338 -51 331 -74 q 356 8 346 -28 l 415 8 l 389 -82 l 376 -75 q 481 -101 446 -75 q 517 -174 517 -126 q 491 -250 517 -225 q 428 -283 465 -275 q 357 -292 392 -292 z "},"Ț":{"ha":763,"x_min":28,"x_max":735,"o":"m 374 -3 q 333 6 346 -3 q 321 28 321 14 l 321 867 l 54 867 q 28 908 28 867 l 28 931 q 54 972 28 972 l 707 972 q 735 931 735 972 l 735 908 q 707 867 735 867 l 446 867 l 446 28 q 433 6 446 14 q 393 -3 421 -3 l 374 -3 m 321 -312 q 298 -308 311 -312 q 285 -292 285 -304 q 291 -265 285 -281 q 306 -226 297 -249 q 320 -173 314 -203 q 326 -106 326 -143 q 340 -79 326 -87 q 382 -71 353 -71 q 438 -106 438 -71 q 416 -212 438 -165 q 367 -286 394 -260 q 321 -312 340 -312 z "},"Ṭ":{"ha":763,"x_min":28,"x_max":735,"o":"m 374 -3 q 333 6 346 -3 q 321 28 321 14 l 321 867 l 54 867 q 28 908 28 867 l 28 931 q 54 972 28 972 l 707 972 q 735 931 735 972 l 735 908 q 707 867 735 867 l 446 867 l 446 28 q 433 6 446 14 q 393 -3 421 -3 l 374 -3 m 382 -243 q 337 -235 351 -243 q 322 -212 322 -228 l 322 -142 q 337 -119 322 -126 q 382 -111 351 -111 q 428 -119 414 -111 q 442 -142 442 -126 l 442 -212 q 428 -235 442 -228 q 382 -243 414 -243 z "},"U":{"ha":989,"x_min":121,"x_max":869,"o":"m 494 -8 q 221 77 321 -8 q 121 311 121 163 l 121 944 q 134 967 121 960 q 178 975 147 975 l 189 975 q 233 967 221 975 q 246 944 246 960 l 246 311 q 313 154 246 211 q 494 97 379 97 q 678 154 611 97 q 744 311 744 211 l 744 944 q 758 967 744 960 q 801 975 771 975 l 813 975 q 857 967 844 975 q 869 944 869 960 l 869 311 q 769 77 869 163 q 494 -8 669 -8 z "},"Ú":{"ha":989,"x_min":121,"x_max":869,"o":"m 494 -8 q 221 77 321 -8 q 121 311 121 163 l 121 944 q 134 967 121 960 q 178 975 147 975 l 189 975 q 233 967 221 975 q 246 944 246 960 l 246 311 q 313 154 246 211 q 494 97 379 97 q 678 154 611 97 q 744 311 744 211 l 744 944 q 758 967 744 960 q 801 975 771 975 l 813 975 q 857 967 844 975 q 869 944 869 960 l 869 311 q 769 77 869 163 q 494 -8 669 -8 m 411 1044 q 385 1049 394 1044 q 375 1063 375 1054 q 378 1074 375 1068 q 390 1089 382 1081 l 465 1168 q 506 1194 483 1188 q 571 1200 528 1200 q 624 1194 603 1200 q 644 1175 644 1188 q 635 1153 644 1164 q 589 1119 625 1143 l 514 1074 q 465 1050 485 1056 q 411 1044 446 1044 z "},"Ŭ":{"ha":989,"x_min":121,"x_max":869,"o":"m 494 -8 q 221 77 321 -8 q 121 311 121 163 l 121 944 q 134 967 121 960 q 178 975 147 975 l 189 975 q 233 967 221 975 q 246 944 246 960 l 246 311 q 313 154 246 211 q 494 97 379 97 q 678 154 611 97 q 744 311 744 211 l 744 944 q 758 967 744 960 q 801 975 771 975 l 813 975 q 857 967 844 975 q 869 944 869 960 l 869 311 q 769 77 869 163 q 494 -8 669 -8 m 494 1033 q 397 1053 439 1033 q 333 1105 356 1072 q 311 1179 311 1138 q 317 1206 311 1199 q 338 1214 324 1214 q 354 1209 349 1214 q 365 1192 360 1204 q 410 1142 376 1158 q 494 1125 444 1125 q 577 1142 543 1125 q 624 1192 611 1158 q 653 1214 633 1214 q 671 1206 665 1214 q 676 1179 676 1199 q 654 1105 676 1138 q 591 1053 632 1072 q 494 1033 550 1033 z "},"Ǔ":{"ha":989,"x_min":121,"x_max":869,"o":"m 494 -8 q 221 77 321 -8 q 121 311 121 163 l 121 944 q 134 967 121 960 q 178 975 147 975 l 189 975 q 233 967 221 975 q 246 944 246 960 l 246 311 q 313 154 246 211 q 494 97 379 97 q 678 154 611 97 q 744 311 744 211 l 744 944 q 758 967 744 960 q 801 975 771 975 l 813 975 q 857 967 844 975 q 869 944 869 960 l 869 311 q 769 77 869 163 q 494 -8 669 -8 m 643 1186 q 668 1181 661 1186 q 675 1169 675 1176 q 669 1154 675 1163 q 651 1133 664 1146 l 569 1051 q 552 1039 561 1043 q 529 1033 543 1035 q 494 1031 515 1031 q 460 1033 474 1031 q 438 1039 447 1035 q 419 1051 428 1043 l 338 1133 q 319 1154 325 1146 q 314 1169 314 1163 q 321 1181 314 1176 q 346 1186 328 1186 q 370 1184 361 1186 q 396 1171 379 1182 l 494 1111 l 592 1171 q 617 1183 606 1179 q 643 1186 629 1186 z "},"Û":{"ha":989,"x_min":121,"x_max":869,"o":"m 494 -8 q 221 77 321 -8 q 121 311 121 163 l 121 944 q 134 967 121 960 q 178 975 147 975 l 189 975 q 233 967 221 975 q 246 944 246 960 l 246 311 q 313 154 246 211 q 494 97 379 97 q 678 154 611 97 q 744 311 744 211 l 744 944 q 758 967 744 960 q 801 975 771 975 l 813 975 q 857 967 844 975 q 869 944 869 960 l 869 311 q 769 77 869 163 q 494 -8 669 -8 m 346 1031 q 321 1035 328 1031 q 314 1047 314 1040 q 319 1063 314 1054 q 338 1083 325 1071 l 419 1165 q 437 1178 428 1174 q 460 1184 446 1182 q 494 1186 474 1186 q 528 1184 515 1186 q 551 1178 542 1182 q 569 1165 561 1174 l 651 1083 q 669 1063 664 1071 q 675 1047 675 1054 q 668 1035 675 1040 q 643 1031 661 1031 q 619 1033 629 1031 q 593 1046 610 1036 l 494 1106 l 397 1046 q 372 1034 383 1038 q 346 1031 361 1031 z "},"Ȕ":{"ha":989,"x_min":121,"x_max":869,"o":"m 494 -8 q 221 77 321 -8 q 121 311 121 163 l 121 944 q 134 967 121 960 q 178 975 147 975 l 189 975 q 233 967 221 975 q 246 944 246 960 l 246 311 q 313 154 246 211 q 494 97 379 97 q 678 154 611 97 q 744 311 744 211 l 744 944 q 758 967 744 960 q 801 975 771 975 l 813 975 q 857 967 844 975 q 869 944 869 960 l 869 311 q 769 77 869 163 q 494 -8 669 -8 m 411 1044 q 357 1050 376 1044 q 308 1074 338 1056 l 233 1119 q 188 1153 197 1143 q 178 1175 178 1164 q 199 1194 178 1188 q 251 1200 219 1200 q 317 1194 296 1200 q 357 1168 339 1188 l 432 1089 q 444 1074 440 1081 q 447 1063 447 1068 q 438 1049 447 1054 q 411 1044 428 1044 m 642 1044 q 588 1050 607 1044 q 539 1074 568 1056 l 464 1119 q 418 1153 428 1143 q 408 1175 408 1164 q 429 1194 408 1188 q 482 1200 450 1200 q 548 1194 526 1200 q 588 1168 569 1188 l 663 1089 q 674 1074 671 1081 q 678 1063 678 1068 q 668 1049 678 1054 q 642 1044 658 1044 z "},"Ü":{"ha":989,"x_min":121,"x_max":869,"o":"m 494 -8 q 221 77 321 -8 q 121 311 121 163 l 121 944 q 134 967 121 960 q 178 975 147 975 l 189 975 q 233 967 221 975 q 246 944 246 960 l 246 311 q 313 154 246 211 q 494 97 379 97 q 678 154 611 97 q 744 311 744 211 l 744 944 q 758 967 744 960 q 801 975 771 975 l 813 975 q 857 967 844 975 q 869 944 869 960 l 869 311 q 769 77 869 163 q 494 -8 669 -8 m 607 1053 q 560 1060 575 1053 q 546 1083 546 1068 l 546 1161 q 560 1184 546 1176 q 607 1192 575 1192 q 653 1184 639 1192 q 668 1161 668 1176 l 668 1083 q 653 1060 668 1068 q 607 1053 639 1053 m 382 1053 q 335 1060 350 1053 q 321 1083 321 1068 l 321 1161 q 335 1184 321 1176 q 382 1192 350 1192 q 428 1184 414 1192 q 443 1161 443 1176 l 443 1083 q 428 1060 443 1068 q 382 1053 414 1053 z "},"Ǘ":{"ha":989,"x_min":121,"x_max":869,"o":"m 494 -8 q 221 77 321 -8 q 121 311 121 163 l 121 944 q 134 967 121 960 q 178 975 147 975 l 189 975 q 233 967 221 975 q 246 944 246 960 l 246 311 q 313 154 246 211 q 494 97 379 97 q 678 154 611 97 q 744 311 744 211 l 744 944 q 758 967 744 960 q 801 975 771 975 l 813 975 q 857 967 844 975 q 869 944 869 960 l 869 311 q 769 77 869 163 q 494 -8 669 -8 m 607 1053 q 560 1060 575 1053 q 546 1083 546 1068 l 546 1161 q 560 1184 546 1176 q 607 1192 575 1192 q 653 1184 639 1192 q 668 1161 668 1176 l 668 1083 q 653 1060 668 1068 q 607 1053 639 1053 m 382 1053 q 335 1060 350 1053 q 321 1083 321 1068 l 321 1161 q 335 1184 321 1176 q 382 1192 350 1192 q 428 1184 414 1192 q 443 1161 443 1176 l 443 1083 q 428 1060 443 1068 q 382 1053 414 1053 m 411 1242 q 385 1247 394 1242 q 375 1260 375 1251 q 378 1272 375 1265 q 390 1286 382 1278 l 465 1365 q 506 1391 483 1385 q 571 1397 528 1397 q 624 1391 603 1397 q 644 1372 644 1385 q 635 1351 644 1361 q 589 1317 625 1340 l 514 1271 q 465 1247 485 1253 q 411 1242 446 1242 z "},"Ǚ":{"ha":989,"x_min":121,"x_max":869,"o":"m 494 -8 q 221 77 321 -8 q 121 311 121 163 l 121 944 q 134 967 121 960 q 178 975 147 975 l 189 975 q 233 967 221 975 q 246 944 246 960 l 246 311 q 313 154 246 211 q 494 97 379 97 q 678 154 611 97 q 744 311 744 211 l 744 944 q 758 967 744 960 q 801 975 771 975 l 813 975 q 857 967 844 975 q 869 944 869 960 l 869 311 q 769 77 869 163 q 494 -8 669 -8 m 607 1053 q 560 1060 575 1053 q 546 1083 546 1068 l 546 1161 q 560 1184 546 1176 q 607 1192 575 1192 q 653 1184 639 1192 q 668 1161 668 1176 l 668 1083 q 653 1060 668 1068 q 607 1053 639 1053 m 382 1053 q 335 1060 350 1053 q 321 1083 321 1068 l 321 1161 q 335 1184 321 1176 q 382 1192 350 1192 q 428 1184 414 1192 q 443 1161 443 1176 l 443 1083 q 428 1060 443 1068 q 382 1053 414 1053 m 643 1383 q 668 1378 661 1383 q 675 1367 675 1374 q 669 1351 675 1360 q 651 1331 664 1343 l 569 1249 q 552 1236 561 1240 q 529 1230 543 1232 q 494 1228 515 1228 q 460 1230 474 1228 q 438 1236 447 1232 q 419 1249 428 1240 l 338 1331 q 319 1351 325 1343 q 314 1367 314 1360 q 321 1378 314 1374 q 346 1383 328 1383 q 370 1381 361 1383 q 396 1368 379 1379 l 494 1308 l 592 1368 q 617 1380 606 1376 q 643 1383 629 1383 z "},"Ǜ":{"ha":989,"x_min":121,"x_max":869,"o":"m 494 -8 q 221 77 321 -8 q 121 311 121 163 l 121 944 q 134 967 121 960 q 178 975 147 975 l 189 975 q 233 967 221 975 q 246 944 246 960 l 246 311 q 313 154 246 211 q 494 97 379 97 q 678 154 611 97 q 744 311 744 211 l 744 944 q 758 967 744 960 q 801 975 771 975 l 813 975 q 857 967 844 975 q 869 944 869 960 l 869 311 q 769 77 869 163 q 494 -8 669 -8 m 607 1053 q 560 1060 575 1053 q 546 1083 546 1068 l 546 1161 q 560 1184 546 1176 q 607 1192 575 1192 q 653 1184 639 1192 q 668 1161 668 1176 l 668 1083 q 653 1060 668 1068 q 607 1053 639 1053 m 382 1053 q 335 1060 350 1053 q 321 1083 321 1068 l 321 1161 q 335 1184 321 1176 q 382 1192 350 1192 q 428 1184 414 1192 q 443 1161 443 1176 l 443 1083 q 428 1060 443 1068 q 382 1053 414 1053 m 578 1242 q 524 1247 543 1242 q 475 1271 504 1253 l 400 1317 q 354 1351 364 1340 q 344 1372 344 1361 q 365 1391 344 1385 q 418 1397 386 1397 q 484 1391 463 1397 q 524 1365 506 1385 l 599 1286 q 610 1272 607 1278 q 614 1260 614 1265 q 604 1247 614 1251 q 578 1242 594 1242 z "},"Ǖ":{"ha":989,"x_min":121,"x_max":869,"o":"m 494 -8 q 221 77 321 -8 q 121 311 121 163 l 121 944 q 134 967 121 960 q 178 975 147 975 l 189 975 q 233 967 221 975 q 246 944 246 960 l 246 311 q 313 154 246 211 q 494 97 379 97 q 678 154 611 97 q 744 311 744 211 l 744 944 q 758 967 744 960 q 801 975 771 975 l 813 975 q 857 967 844 975 q 869 944 869 960 l 869 311 q 769 77 869 163 q 494 -8 669 -8 m 607 1053 q 560 1060 575 1053 q 546 1083 546 1068 l 546 1161 q 560 1184 546 1176 q 607 1192 575 1192 q 653 1184 639 1192 q 668 1161 668 1176 l 668 1083 q 653 1060 668 1068 q 607 1053 639 1053 m 382 1053 q 335 1060 350 1053 q 321 1083 321 1068 l 321 1161 q 335 1184 321 1176 q 382 1192 350 1192 q 428 1184 414 1192 q 443 1161 443 1176 l 443 1083 q 428 1060 443 1068 q 382 1053 414 1053 m 333 1272 q 307 1314 307 1272 l 307 1328 q 333 1369 307 1369 l 656 1369 q 682 1328 682 1369 l 682 1314 q 656 1272 682 1272 l 333 1272 z "},"Ụ":{"ha":989,"x_min":121,"x_max":869,"o":"m 494 -8 q 221 77 321 -8 q 121 311 121 163 l 121 944 q 134 967 121 960 q 178 975 147 975 l 189 975 q 233 967 221 975 q 246 944 246 960 l 246 311 q 313 154 246 211 q 494 97 379 97 q 678 154 611 97 q 744 311 744 211 l 744 944 q 758 967 744 960 q 801 975 771 975 l 813 975 q 857 967 844 975 q 869 944 869 960 l 869 311 q 769 77 869 163 q 494 -8 669 -8 m 496 -243 q 451 -235 465 -243 q 436 -212 436 -228 l 436 -142 q 451 -119 436 -126 q 496 -111 465 -111 q 542 -119 528 -111 q 556 -142 556 -126 l 556 -212 q 542 -235 556 -228 q 496 -243 528 -243 z "},"Ù":{"ha":989,"x_min":121,"x_max":869,"o":"m 494 -8 q 221 77 321 -8 q 121 311 121 163 l 121 944 q 134 967 121 960 q 178 975 147 975 l 189 975 q 233 967 221 975 q 246 944 246 960 l 246 311 q 313 154 246 211 q 494 97 379 97 q 678 154 611 97 q 744 311 744 211 l 744 944 q 758 967 744 960 q 801 975 771 975 l 813 975 q 857 967 844 975 q 869 944 869 960 l 869 311 q 769 77 869 163 q 494 -8 669 -8 m 578 1044 q 524 1050 543 1044 q 475 1074 504 1056 l 400 1119 q 354 1153 364 1143 q 344 1175 344 1164 q 365 1194 344 1188 q 418 1200 386 1200 q 484 1194 463 1200 q 524 1168 506 1188 l 599 1089 q 610 1074 607 1081 q 614 1063 614 1068 q 604 1049 614 1054 q 578 1044 594 1044 z "},"Ủ":{"ha":989,"x_min":121,"x_max":869,"o":"m 494 -8 q 221 77 321 -8 q 121 311 121 163 l 121 944 q 134 967 121 960 q 178 975 147 975 l 189 975 q 233 967 221 975 q 246 944 246 960 l 246 311 q 313 154 246 211 q 494 97 379 97 q 678 154 611 97 q 744 311 744 211 l 744 944 q 758 967 744 960 q 801 975 771 975 l 813 975 q 857 967 844 975 q 869 944 869 960 l 869 311 q 769 77 869 163 q 494 -8 669 -8 m 482 1028 q 461 1040 472 1028 q 450 1063 450 1053 q 464 1076 450 1068 q 496 1095 478 1085 q 528 1119 514 1106 q 542 1151 542 1133 q 522 1181 542 1174 q 474 1189 503 1189 q 426 1180 443 1189 q 403 1171 410 1171 q 390 1179 397 1171 q 376 1199 382 1188 q 369 1217 369 1210 q 388 1235 369 1225 q 433 1252 406 1244 q 489 1260 460 1260 q 547 1252 517 1260 q 599 1224 578 1244 q 621 1168 621 1204 q 603 1114 621 1139 q 561 1069 586 1089 q 514 1039 536 1050 q 482 1028 492 1028 z "},"Ư":{"ha":989,"x_min":121,"x_max":989,"o":"m 494 -8 q 221 77 321 -8 q 121 311 121 163 l 121 944 q 134 967 121 960 q 178 975 147 975 l 189 975 q 233 967 221 975 q 246 944 246 960 l 246 311 q 313 154 246 211 q 494 97 379 97 q 678 154 611 97 q 744 311 744 211 l 744 944 q 758 967 744 960 q 801 975 771 975 l 813 975 q 857 967 844 975 q 869 944 869 960 l 869 311 q 769 77 869 163 q 494 -8 669 -8 m 801 922 l 801 975 l 844 975 q 894 990 885 975 q 904 1021 904 1004 q 896 1060 904 1043 q 879 1092 888 1078 q 871 1114 871 1106 q 883 1135 871 1125 q 909 1151 894 1144 q 932 1157 924 1157 q 960 1140 947 1157 q 981 1099 974 1122 q 989 1054 989 1075 q 960 959 989 996 q 844 922 931 922 l 801 922 z "},"Ứ":{"ha":989,"x_min":121,"x_max":989,"o":"m 494 -8 q 221 77 321 -8 q 121 311 121 163 l 121 944 q 134 967 121 960 q 178 975 147 975 l 189 975 q 233 967 221 975 q 246 944 246 960 l 246 311 q 313 154 246 211 q 494 97 379 97 q 678 154 611 97 q 744 311 744 211 l 744 944 q 758 967 744 960 q 801 975 771 975 l 813 975 q 857 967 844 975 q 869 944 869 960 l 869 311 q 769 77 869 163 q 494 -8 669 -8 m 801 922 l 801 975 l 844 975 q 894 990 885 975 q 904 1021 904 1004 q 896 1060 904 1043 q 879 1092 888 1078 q 871 1114 871 1106 q 883 1135 871 1125 q 909 1151 894 1144 q 932 1157 924 1157 q 960 1140 947 1157 q 981 1099 974 1122 q 989 1054 989 1075 q 960 959 989 996 q 844 922 931 922 l 801 922 m 411 1044 q 385 1049 394 1044 q 375 1063 375 1054 q 378 1074 375 1068 q 390 1089 382 1081 l 465 1168 q 506 1194 483 1188 q 571 1200 528 1200 q 624 1194 603 1200 q 644 1175 644 1188 q 635 1153 644 1164 q 589 1119 625 1143 l 514 1074 q 465 1050 485 1056 q 411 1044 446 1044 z "},"Ự":{"ha":989,"x_min":121,"x_max":989,"o":"m 494 -8 q 221 77 321 -8 q 121 311 121 163 l 121 944 q 134 967 121 960 q 178 975 147 975 l 189 975 q 233 967 221 975 q 246 944 246 960 l 246 311 q 313 154 246 211 q 494 97 379 97 q 678 154 611 97 q 744 311 744 211 l 744 944 q 758 967 744 960 q 801 975 771 975 l 813 975 q 857 967 844 975 q 869 944 869 960 l 869 311 q 769 77 869 163 q 494 -8 669 -8 m 801 922 l 801 975 l 844 975 q 894 990 885 975 q 904 1021 904 1004 q 896 1060 904 1043 q 879 1092 888 1078 q 871 1114 871 1106 q 883 1135 871 1125 q 909 1151 894 1144 q 932 1157 924 1157 q 960 1140 947 1157 q 981 1099 974 1122 q 989 1054 989 1075 q 960 959 989 996 q 844 922 931 922 l 801 922 m 494 -243 q 449 -235 464 -243 q 435 -212 435 -228 l 435 -142 q 449 -119 435 -126 q 494 -111 464 -111 q 540 -119 526 -111 q 554 -142 554 -126 l 554 -212 q 540 -235 554 -228 q 494 -243 526 -243 z "},"Ừ":{"ha":989,"x_min":121,"x_max":989,"o":"m 494 -8 q 221 77 321 -8 q 121 311 121 163 l 121 944 q 134 967 121 960 q 178 975 147 975 l 189 975 q 233 967 221 975 q 246 944 246 960 l 246 311 q 313 154 246 211 q 494 97 379 97 q 678 154 611 97 q 744 311 744 211 l 744 944 q 758 967 744 960 q 801 975 771 975 l 813 975 q 857 967 844 975 q 869 944 869 960 l 869 311 q 769 77 869 163 q 494 -8 669 -8 m 801 922 l 801 975 l 844 975 q 894 990 885 975 q 904 1021 904 1004 q 896 1060 904 1043 q 879 1092 888 1078 q 871 1114 871 1106 q 883 1135 871 1125 q 909 1151 894 1144 q 932 1157 924 1157 q 960 1140 947 1157 q 981 1099 974 1122 q 989 1054 989 1075 q 960 959 989 996 q 844 922 931 922 l 801 922 m 578 1044 q 524 1050 543 1044 q 475 1074 504 1056 l 400 1119 q 354 1153 364 1143 q 344 1175 344 1164 q 365 1194 344 1188 q 418 1200 386 1200 q 484 1194 463 1200 q 524 1168 506 1188 l 599 1089 q 610 1074 607 1081 q 614 1063 614 1068 q 604 1049 614 1054 q 578 1044 594 1044 z "},"Ử":{"ha":989,"x_min":121,"x_max":989,"o":"m 494 -8 q 221 77 321 -8 q 121 311 121 163 l 121 944 q 134 967 121 960 q 178 975 147 975 l 189 975 q 233 967 221 975 q 246 944 246 960 l 246 311 q 313 154 246 211 q 494 97 379 97 q 678 154 611 97 q 744 311 744 211 l 744 944 q 758 967 744 960 q 801 975 771 975 l 813 975 q 857 967 844 975 q 869 944 869 960 l 869 311 q 769 77 869 163 q 494 -8 669 -8 m 801 922 l 801 975 l 844 975 q 894 990 885 975 q 904 1021 904 1004 q 896 1060 904 1043 q 879 1092 888 1078 q 871 1114 871 1106 q 883 1135 871 1125 q 909 1151 894 1144 q 932 1157 924 1157 q 960 1140 947 1157 q 981 1099 974 1122 q 989 1054 989 1075 q 960 959 989 996 q 844 922 931 922 l 801 922 m 482 1028 q 461 1040 472 1028 q 450 1063 450 1053 q 464 1076 450 1068 q 496 1095 478 1085 q 528 1119 514 1106 q 542 1151 542 1133 q 522 1181 542 1174 q 474 1189 503 1189 q 426 1180 443 1189 q 403 1171 410 1171 q 390 1179 397 1171 q 376 1199 382 1188 q 369 1217 369 1210 q 388 1235 369 1225 q 433 1252 406 1244 q 489 1260 460 1260 q 547 1252 517 1260 q 599 1224 578 1244 q 621 1168 621 1204 q 603 1114 621 1139 q 561 1069 586 1089 q 514 1039 536 1050 q 482 1028 492 1028 z "},"Ữ":{"ha":989,"x_min":121,"x_max":989,"o":"m 494 -8 q 221 77 321 -8 q 121 311 121 163 l 121 944 q 134 967 121 960 q 178 975 147 975 l 189 975 q 233 967 221 975 q 246 944 246 960 l 246 311 q 313 154 246 211 q 494 97 379 97 q 678 154 611 97 q 744 311 744 211 l 744 944 q 758 967 744 960 q 801 975 771 975 l 813 975 q 857 967 844 975 q 869 944 869 960 l 869 311 q 769 77 869 163 q 494 -8 669 -8 m 801 922 l 801 975 l 844 975 q 894 990 885 975 q 904 1021 904 1004 q 896 1060 904 1043 q 879 1092 888 1078 q 871 1114 871 1106 q 883 1135 871 1125 q 909 1151 894 1144 q 932 1157 924 1157 q 960 1140 947 1157 q 981 1099 974 1122 q 989 1054 989 1075 q 960 959 989 996 q 844 922 931 922 l 801 922 m 301 1046 q 285 1049 296 1046 q 267 1058 275 1053 q 258 1071 258 1064 q 260 1081 258 1076 q 263 1092 261 1086 q 319 1163 286 1143 q 385 1182 353 1182 q 465 1169 425 1182 q 542 1144 506 1157 q 607 1131 579 1131 q 649 1145 635 1131 q 669 1174 663 1160 q 685 1188 676 1188 q 713 1179 696 1188 q 731 1163 731 1171 q 728 1148 731 1158 q 715 1118 725 1138 q 675 1068 697 1086 q 604 1050 653 1050 q 519 1063 561 1050 q 442 1089 478 1076 q 378 1101 406 1101 q 341 1088 354 1101 q 319 1060 328 1074 q 301 1046 311 1046 z "},"Ű":{"ha":989,"x_min":121,"x_max":869,"o":"m 494 -8 q 221 77 321 -8 q 121 311 121 163 l 121 944 q 134 967 121 960 q 178 975 147 975 l 189 975 q 233 967 221 975 q 246 944 246 960 l 246 311 q 313 154 246 211 q 494 97 379 97 q 678 154 611 97 q 744 311 744 211 l 744 944 q 758 967 744 960 q 801 975 771 975 l 813 975 q 857 967 844 975 q 869 944 869 960 l 869 311 q 769 77 869 163 q 494 -8 669 -8 m 329 1044 q 303 1049 313 1044 q 293 1063 293 1054 q 297 1074 293 1068 q 308 1089 300 1081 l 383 1168 q 424 1194 401 1188 q 489 1200 446 1200 q 542 1194 521 1200 q 563 1175 563 1188 q 553 1153 563 1164 q 507 1119 543 1143 l 432 1074 q 383 1050 403 1056 q 329 1044 364 1044 m 560 1044 q 533 1049 543 1044 q 524 1063 524 1054 q 527 1074 524 1068 q 539 1089 531 1081 l 614 1168 q 654 1194 632 1188 q 719 1200 676 1200 q 772 1194 751 1200 q 793 1175 793 1188 q 783 1153 793 1164 q 738 1119 774 1143 l 663 1074 q 614 1050 633 1056 q 560 1044 594 1044 z "},"Ȗ":{"ha":989,"x_min":121,"x_max":869,"o":"m 494 -8 q 221 77 321 -8 q 121 311 121 163 l 121 944 q 134 967 121 960 q 178 975 147 975 l 189 975 q 233 967 221 975 q 246 944 246 960 l 246 311 q 313 154 246 211 q 494 97 379 97 q 678 154 611 97 q 744 311 744 211 l 744 944 q 758 967 744 960 q 801 975 771 975 l 813 975 q 857 967 844 975 q 869 944 869 960 l 869 311 q 769 77 869 163 q 494 -8 669 -8 m 338 1033 q 317 1042 324 1033 q 311 1068 311 1050 q 333 1143 311 1110 q 397 1195 356 1176 q 494 1214 439 1214 q 591 1195 550 1214 q 654 1143 632 1176 q 676 1068 676 1110 q 671 1042 676 1050 q 653 1033 665 1033 q 624 1056 633 1033 q 577 1106 611 1089 q 494 1122 543 1122 q 410 1106 444 1122 q 365 1056 376 1089 q 354 1038 360 1043 q 338 1033 349 1033 z "},"Ū":{"ha":989,"x_min":121,"x_max":869,"o":"m 494 -8 q 221 77 321 -8 q 121 311 121 163 l 121 944 q 134 967 121 960 q 178 975 147 975 l 189 975 q 233 967 221 975 q 246 944 246 960 l 246 311 q 313 154 246 211 q 494 97 379 97 q 678 154 611 97 q 744 311 744 211 l 744 944 q 758 967 744 960 q 801 975 771 975 l 813 975 q 857 967 844 975 q 869 944 869 960 l 869 311 q 769 77 869 163 q 494 -8 669 -8 m 333 1075 q 307 1117 307 1075 l 307 1131 q 333 1172 307 1172 l 656 1172 q 682 1131 682 1172 l 682 1117 q 656 1075 682 1075 l 333 1075 z "},"Ų":{"ha":989,"x_min":121,"x_max":869,"o":"m 494 -8 q 221 77 321 -8 q 121 311 121 163 l 121 944 q 134 967 121 960 q 178 975 147 975 l 189 975 q 233 967 221 975 q 246 944 246 960 l 246 311 q 313 154 246 211 q 494 97 379 97 q 678 154 611 97 q 744 311 744 211 l 744 944 q 758 967 744 960 q 801 975 771 975 l 813 975 q 857 967 844 975 q 869 944 869 960 l 869 311 q 769 77 869 163 q 494 -8 669 -8 m 585 -254 q 489 -222 524 -254 q 454 -146 454 -190 q 469 -83 454 -115 q 513 -23 483 -51 q 585 24 542 6 l 654 14 q 577 -47 606 -12 q 549 -122 549 -82 q 562 -153 549 -142 q 600 -165 575 -165 q 635 -160 619 -165 q 662 -149 650 -154 q 682 -143 674 -143 q 697 -153 690 -143 q 708 -175 704 -162 q 711 -197 711 -187 q 690 -224 711 -211 q 640 -246 669 -237 q 585 -254 611 -254 z "},"Ů":{"ha":989,"x_min":121,"x_max":869,"o":"m 494 -8 q 221 77 321 -8 q 121 311 121 163 l 121 944 q 134 967 121 960 q 178 975 147 975 l 189 975 q 233 967 221 975 q 246 944 246 960 l 246 311 q 313 154 246 211 q 494 97 379 97 q 678 154 611 97 q 744 311 744 211 l 744 944 q 758 967 744 960 q 801 975 771 975 l 813 975 q 857 967 844 975 q 869 944 869 960 l 869 311 q 769 77 869 163 q 494 -8 669 -8 m 494 1038 q 405 1069 439 1038 q 371 1154 371 1101 q 405 1240 371 1208 q 494 1272 439 1272 q 585 1240 551 1272 q 618 1154 618 1208 q 585 1069 618 1101 q 494 1038 551 1038 m 494 1104 q 532 1117 518 1104 q 546 1154 546 1131 q 532 1192 546 1178 q 494 1206 518 1206 q 458 1192 472 1206 q 443 1154 443 1178 q 458 1117 443 1131 q 494 1104 472 1104 z "},"Ũ":{"ha":989,"x_min":121,"x_max":869,"o":"m 494 -8 q 221 77 321 -8 q 121 311 121 163 l 121 944 q 134 967 121 960 q 178 975 147 975 l 189 975 q 233 967 221 975 q 246 944 246 960 l 246 311 q 313 154 246 211 q 494 97 379 97 q 678 154 611 97 q 744 311 744 211 l 744 944 q 758 967 744 960 q 801 975 771 975 l 813 975 q 857 967 844 975 q 869 944 869 960 l 869 311 q 769 77 869 163 q 494 -8 669 -8 m 301 1046 q 285 1049 296 1046 q 267 1058 275 1053 q 258 1071 258 1064 q 260 1081 258 1076 q 263 1092 261 1086 q 319 1163 286 1143 q 385 1182 353 1182 q 465 1169 425 1182 q 542 1144 506 1157 q 607 1131 579 1131 q 649 1145 635 1131 q 669 1174 663 1160 q 685 1188 676 1188 q 713 1179 696 1188 q 731 1163 731 1171 q 728 1148 731 1158 q 715 1118 725 1138 q 675 1068 697 1086 q 604 1050 653 1050 q 519 1063 561 1050 q 442 1089 478 1076 q 378 1101 406 1101 q 341 1088 354 1101 q 319 1060 328 1074 q 301 1046 311 1046 z "},"V":{"ha":857,"x_min":19,"x_max":838,"o":"m 408 -3 q 371 3 385 -3 q 353 19 357 10 l 24 933 q 21 943 22 939 q 19 951 19 947 q 34 969 19 963 q 79 975 49 975 l 90 975 q 126 970 111 975 q 146 953 142 965 l 429 125 l 435 125 l 715 953 q 735 970 719 965 q 771 975 750 975 l 778 975 q 824 969 810 975 q 838 951 838 963 q 837 943 838 947 q 833 932 836 939 l 504 19 q 486 3 500 10 q 449 -3 472 -3 l 408 -3 z "},"W":{"ha":1264,"x_min":19,"x_max":1244,"o":"m 335 -3 q 297 4 311 -3 q 279 26 283 11 l 24 932 q 21 942 22 936 q 19 951 19 947 q 33 969 19 963 q 76 975 47 975 l 90 975 q 127 970 111 975 q 146 953 143 965 l 358 125 l 364 125 l 550 946 q 567 968 553 961 q 606 975 582 975 l 651 975 q 692 968 675 975 q 711 946 708 961 l 900 125 l 906 125 l 1118 953 q 1137 970 1121 965 q 1174 975 1153 975 l 1188 975 q 1231 969 1217 975 q 1244 951 1244 963 q 1243 942 1244 947 q 1240 932 1242 936 l 985 26 q 967 4 981 11 q 929 -3 953 -3 l 878 -3 q 838 4 854 -3 q 818 26 822 11 l 633 821 l 628 821 l 446 26 q 426 4 443 11 q 386 -3 410 -3 l 335 -3 z "},"Ẃ":{"ha":1264,"x_min":19,"x_max":1244,"o":"m 335 -3 q 297 4 311 -3 q 279 26 283 11 l 24 932 q 21 942 22 936 q 19 951 19 947 q 33 969 19 963 q 76 975 47 975 l 90 975 q 127 970 111 975 q 146 953 143 965 l 358 125 l 364 125 l 550 946 q 567 968 553 961 q 606 975 582 975 l 651 975 q 692 968 675 975 q 711 946 708 961 l 900 125 l 906 125 l 1118 953 q 1137 970 1121 965 q 1174 975 1153 975 l 1188 975 q 1231 969 1217 975 q 1244 951 1244 963 q 1243 942 1244 947 q 1240 932 1242 936 l 985 26 q 967 4 981 11 q 929 -3 953 -3 l 878 -3 q 838 4 854 -3 q 818 26 822 11 l 633 821 l 628 821 l 446 26 q 426 4 443 11 q 386 -3 410 -3 l 335 -3 m 549 1044 q 522 1049 532 1044 q 513 1063 513 1054 q 516 1074 513 1068 q 528 1089 519 1081 l 603 1168 q 643 1194 621 1188 q 708 1200 665 1200 q 761 1194 740 1200 q 782 1175 782 1188 q 772 1153 782 1164 q 726 1119 763 1143 l 651 1074 q 603 1050 622 1056 q 549 1044 583 1044 z "},"Ŵ":{"ha":1264,"x_min":19,"x_max":1244,"o":"m 335 -3 q 297 4 311 -3 q 279 26 283 11 l 24 932 q 21 942 22 936 q 19 951 19 947 q 33 969 19 963 q 76 975 47 975 l 90 975 q 127 970 111 975 q 146 953 143 965 l 358 125 l 364 125 l 550 946 q 567 968 553 961 q 606 975 582 975 l 651 975 q 692 968 675 975 q 711 946 708 961 l 900 125 l 906 125 l 1118 953 q 1137 970 1121 965 q 1174 975 1153 975 l 1188 975 q 1231 969 1217 975 q 1244 951 1244 963 q 1243 942 1244 947 q 1240 932 1242 936 l 985 26 q 967 4 981 11 q 929 -3 953 -3 l 878 -3 q 838 4 854 -3 q 818 26 822 11 l 633 821 l 628 821 l 446 26 q 426 4 443 11 q 386 -3 410 -3 l 335 -3 m 483 1031 q 458 1035 465 1031 q 451 1047 451 1040 q 457 1063 451 1054 q 475 1083 463 1071 l 557 1165 q 574 1178 565 1174 q 597 1184 583 1182 q 632 1186 611 1186 q 666 1184 653 1186 q 689 1178 679 1182 q 707 1165 699 1174 l 789 1083 q 807 1063 801 1071 q 813 1047 813 1054 q 806 1035 813 1040 q 781 1031 799 1031 q 757 1033 767 1031 q 731 1046 747 1036 l 632 1106 l 535 1046 q 510 1034 521 1038 q 483 1031 499 1031 z "},"Ẅ":{"ha":1264,"x_min":19,"x_max":1244,"o":"m 335 -3 q 297 4 311 -3 q 279 26 283 11 l 24 932 q 21 942 22 936 q 19 951 19 947 q 33 969 19 963 q 76 975 47 975 l 90 975 q 127 970 111 975 q 146 953 143 965 l 358 125 l 364 125 l 550 946 q 567 968 553 961 q 606 975 582 975 l 651 975 q 692 968 675 975 q 711 946 708 961 l 900 125 l 906 125 l 1118 953 q 1137 970 1121 965 q 1174 975 1153 975 l 1188 975 q 1231 969 1217 975 q 1244 951 1244 963 q 1243 942 1244 947 q 1240 932 1242 936 l 985 26 q 967 4 981 11 q 929 -3 953 -3 l 878 -3 q 838 4 854 -3 q 818 26 822 11 l 633 821 l 628 821 l 446 26 q 426 4 443 11 q 386 -3 410 -3 l 335 -3 m 744 1053 q 698 1060 713 1053 q 683 1083 683 1068 l 683 1161 q 698 1184 683 1176 q 744 1192 713 1192 q 791 1184 776 1192 q 806 1161 806 1176 l 806 1083 q 791 1060 806 1068 q 744 1053 776 1053 m 519 1053 q 473 1060 488 1053 q 458 1083 458 1068 l 458 1161 q 473 1184 458 1176 q 519 1192 488 1192 q 566 1184 551 1192 q 581 1161 581 1176 l 581 1083 q 566 1060 581 1068 q 519 1053 551 1053 z "},"Ẁ":{"ha":1264,"x_min":19,"x_max":1244,"o":"m 335 -3 q 297 4 311 -3 q 279 26 283 11 l 24 932 q 21 942 22 936 q 19 951 19 947 q 33 969 19 963 q 76 975 47 975 l 90 975 q 127 970 111 975 q 146 953 143 965 l 358 125 l 364 125 l 550 946 q 567 968 553 961 q 606 975 582 975 l 651 975 q 692 968 675 975 q 711 946 708 961 l 900 125 l 906 125 l 1118 953 q 1137 970 1121 965 q 1174 975 1153 975 l 1188 975 q 1231 969 1217 975 q 1244 951 1244 963 q 1243 942 1244 947 q 1240 932 1242 936 l 985 26 q 967 4 981 11 q 929 -3 953 -3 l 878 -3 q 838 4 854 -3 q 818 26 822 11 l 633 821 l 628 821 l 446 26 q 426 4 443 11 q 386 -3 410 -3 l 335 -3 m 715 1044 q 661 1050 681 1044 q 613 1074 642 1056 l 538 1119 q 492 1153 501 1143 q 482 1175 482 1164 q 503 1194 482 1188 q 556 1200 524 1200 q 622 1194 600 1200 q 661 1168 643 1188 l 736 1089 q 748 1074 744 1081 q 751 1063 751 1068 q 742 1049 751 1054 q 715 1044 732 1044 z "},"X":{"ha":849,"x_min":28,"x_max":822,"o":"m 92 -3 q 42 3 57 -3 q 28 21 28 8 q 31 33 28 26 q 39 46 33 39 l 350 510 l 72 926 q 64 940 67 933 q 61 951 61 946 q 76 969 61 963 q 125 975 90 975 l 144 975 q 181 971 167 975 q 204 954 196 967 l 429 615 l 656 956 q 680 971 663 967 q 715 975 697 975 l 724 975 q 773 969 758 975 q 788 951 788 964 q 785 940 788 946 q 776 926 782 933 l 500 513 l 811 46 q 819 33 817 39 q 822 21 822 26 q 808 3 822 10 q 758 -3 794 -3 l 736 -3 q 699 1 714 -3 q 676 18 685 6 l 419 406 l 163 17 q 139 1 156 6 q 103 -3 122 -3 l 92 -3 z "},"Y":{"ha":776,"x_min":25,"x_max":751,"o":"m 382 -3 q 338 6 351 -3 q 325 28 325 14 l 325 485 l 36 926 q 28 940 31 933 q 25 951 25 946 q 39 969 25 963 q 88 975 53 975 l 103 975 q 140 971 125 975 q 163 954 154 967 l 417 558 l 365 558 l 622 956 q 647 971 629 967 q 685 975 664 975 l 696 975 q 739 969 726 975 q 751 951 751 963 q 749 940 751 946 q 740 926 746 933 l 450 481 l 450 28 q 438 6 450 14 q 393 -3 425 -3 l 382 -3 z "},"Ý":{"ha":776,"x_min":25,"x_max":751,"o":"m 382 -3 q 338 6 351 -3 q 325 28 325 14 l 325 485 l 36 926 q 28 940 31 933 q 25 951 25 946 q 39 969 25 963 q 88 975 53 975 l 103 975 q 140 971 125 975 q 163 954 154 967 l 417 558 l 365 558 l 622 956 q 647 971 629 967 q 685 975 664 975 l 696 975 q 739 969 726 975 q 751 951 751 963 q 749 940 751 946 q 740 926 746 933 l 450 481 l 450 28 q 438 6 450 14 q 393 -3 425 -3 l 382 -3 m 306 1044 q 279 1049 289 1044 q 269 1063 269 1054 q 273 1074 269 1068 q 285 1089 276 1081 l 360 1168 q 400 1194 378 1188 q 465 1200 422 1200 q 518 1194 497 1200 q 539 1175 539 1188 q 529 1153 539 1164 q 483 1119 519 1143 l 408 1074 q 360 1050 379 1056 q 306 1044 340 1044 z "},"Ŷ":{"ha":776,"x_min":25,"x_max":751,"o":"m 382 -3 q 338 6 351 -3 q 325 28 325 14 l 325 485 l 36 926 q 28 940 31 933 q 25 951 25 946 q 39 969 25 963 q 88 975 53 975 l 103 975 q 140 971 125 975 q 163 954 154 967 l 417 558 l 365 558 l 622 956 q 647 971 629 967 q 685 975 664 975 l 696 975 q 739 969 726 975 q 751 951 751 963 q 749 940 751 946 q 740 926 746 933 l 450 481 l 450 28 q 438 6 450 14 q 393 -3 425 -3 l 382 -3 m 240 1031 q 215 1035 222 1031 q 208 1047 208 1040 q 214 1063 208 1054 q 232 1083 219 1071 l 314 1165 q 331 1178 322 1174 q 354 1184 340 1182 q 389 1186 368 1186 q 423 1184 410 1186 q 446 1178 436 1182 q 464 1165 456 1174 l 546 1083 q 564 1063 558 1071 q 569 1047 569 1054 q 563 1035 569 1040 q 538 1031 556 1031 q 514 1033 524 1031 q 488 1046 504 1036 l 389 1106 l 292 1046 q 267 1034 278 1038 q 240 1031 256 1031 z "},"Ÿ":{"ha":776,"x_min":25,"x_max":751,"o":"m 382 -3 q 338 6 351 -3 q 325 28 325 14 l 325 485 l 36 926 q 28 940 31 933 q 25 951 25 946 q 39 969 25 963 q 88 975 53 975 l 103 975 q 140 971 125 975 q 163 954 154 967 l 417 558 l 365 558 l 622 956 q 647 971 629 967 q 685 975 664 975 l 696 975 q 739 969 726 975 q 751 951 751 963 q 749 940 751 946 q 740 926 746 933 l 450 481 l 450 28 q 438 6 450 14 q 393 -3 425 -3 l 382 -3 m 501 1053 q 455 1060 469 1053 q 440 1083 440 1068 l 440 1161 q 455 1184 440 1176 q 501 1192 469 1192 q 548 1184 533 1192 q 563 1161 563 1176 l 563 1083 q 548 1060 563 1068 q 501 1053 533 1053 m 276 1053 q 230 1060 244 1053 q 215 1083 215 1068 l 215 1161 q 230 1184 215 1176 q 276 1192 244 1192 q 323 1184 308 1192 q 338 1161 338 1176 l 338 1083 q 323 1060 338 1068 q 276 1053 308 1053 z "},"Ỵ":{"ha":776,"x_min":25,"x_max":751,"o":"m 382 -3 q 338 6 351 -3 q 325 28 325 14 l 325 485 l 36 926 q 28 940 31 933 q 25 951 25 946 q 39 969 25 963 q 88 975 53 975 l 103 975 q 140 971 125 975 q 163 954 154 967 l 417 558 l 365 558 l 622 956 q 647 971 629 967 q 685 975 664 975 l 696 975 q 739 969 726 975 q 751 951 751 963 q 749 940 751 946 q 740 926 746 933 l 450 481 l 450 28 q 438 6 450 14 q 393 -3 425 -3 l 382 -3 m 389 -243 q 344 -235 358 -243 q 329 -212 329 -228 l 329 -142 q 344 -119 329 -126 q 389 -111 358 -111 q 435 -119 421 -111 q 449 -142 449 -126 l 449 -212 q 435 -235 449 -228 q 389 -243 421 -243 z "},"Ỳ":{"ha":776,"x_min":25,"x_max":751,"o":"m 382 -3 q 338 6 351 -3 q 325 28 325 14 l 325 485 l 36 926 q 28 940 31 933 q 25 951 25 946 q 39 969 25 963 q 88 975 53 975 l 103 975 q 140 971 125 975 q 163 954 154 967 l 417 558 l 365 558 l 622 956 q 647 971 629 967 q 685 975 664 975 l 696 975 q 739 969 726 975 q 751 951 751 963 q 749 940 751 946 q 740 926 746 933 l 450 481 l 450 28 q 438 6 450 14 q 393 -3 425 -3 l 382 -3 m 472 1044 q 418 1050 438 1044 q 369 1074 399 1056 l 294 1119 q 249 1153 258 1143 q 239 1175 239 1164 q 260 1194 239 1188 q 313 1200 281 1200 q 378 1194 357 1200 q 418 1168 400 1188 l 493 1089 q 505 1074 501 1081 q 508 1063 508 1068 q 499 1049 508 1054 q 472 1044 489 1044 z "},"Ỷ":{"ha":776,"x_min":25,"x_max":751,"o":"m 382 -3 q 338 6 351 -3 q 325 28 325 14 l 325 485 l 36 926 q 28 940 31 933 q 25 951 25 946 q 39 969 25 963 q 88 975 53 975 l 103 975 q 140 971 125 975 q 163 954 154 967 l 417 558 l 365 558 l 622 956 q 647 971 629 967 q 685 975 664 975 l 696 975 q 739 969 726 975 q 751 951 751 963 q 749 940 751 946 q 740 926 746 933 l 450 481 l 450 28 q 438 6 450 14 q 393 -3 425 -3 l 382 -3 m 376 1028 q 356 1040 367 1028 q 344 1063 344 1053 q 358 1076 344 1068 q 390 1095 372 1085 q 422 1119 408 1106 q 436 1151 436 1133 q 417 1181 436 1174 q 368 1189 397 1189 q 321 1180 338 1189 q 297 1171 304 1171 q 284 1179 292 1171 q 270 1199 276 1188 q 264 1217 264 1210 q 282 1235 264 1225 q 327 1252 300 1244 q 383 1260 354 1260 q 442 1252 411 1260 q 494 1224 472 1244 q 515 1168 515 1204 q 498 1114 515 1139 q 456 1069 481 1089 q 408 1039 431 1050 q 376 1028 386 1028 z "},"Ȳ":{"ha":776,"x_min":25,"x_max":751,"o":"m 382 -3 q 338 6 351 -3 q 325 28 325 14 l 325 485 l 36 926 q 28 940 31 933 q 25 951 25 946 q 39 969 25 963 q 88 975 53 975 l 103 975 q 140 971 125 975 q 163 954 154 967 l 417 558 l 365 558 l 622 956 q 647 971 629 967 q 685 975 664 975 l 696 975 q 739 969 726 975 q 751 951 751 963 q 749 940 751 946 q 740 926 746 933 l 450 481 l 450 28 q 438 6 450 14 q 393 -3 425 -3 l 382 -3 m 228 1075 q 201 1117 201 1075 l 201 1131 q 228 1172 201 1172 l 550 1172 q 576 1131 576 1172 l 576 1117 q 550 1075 576 1075 l 228 1075 z "},"Ỹ":{"ha":776,"x_min":25,"x_max":751,"o":"m 382 -3 q 338 6 351 -3 q 325 28 325 14 l 325 485 l 36 926 q 28 940 31 933 q 25 951 25 946 q 39 969 25 963 q 88 975 53 975 l 103 975 q 140 971 125 975 q 163 954 154 967 l 417 558 l 365 558 l 622 956 q 647 971 629 967 q 685 975 664 975 l 696 975 q 739 969 726 975 q 751 951 751 963 q 749 940 751 946 q 740 926 746 933 l 450 481 l 450 28 q 438 6 450 14 q 393 -3 425 -3 l 382 -3 m 196 1046 q 180 1049 190 1046 q 161 1058 169 1053 q 153 1071 153 1064 q 154 1081 153 1076 q 157 1092 156 1086 q 214 1163 181 1143 q 279 1182 247 1182 q 360 1169 319 1182 q 437 1144 400 1157 q 501 1131 474 1131 q 543 1145 529 1131 q 564 1174 557 1160 q 579 1188 571 1188 q 608 1179 590 1188 q 625 1163 625 1171 q 622 1148 625 1158 q 610 1118 619 1138 q 569 1068 592 1086 q 499 1050 547 1050 q 414 1063 456 1050 q 336 1089 372 1076 q 272 1101 300 1101 q 235 1088 249 1101 q 214 1060 222 1074 q 196 1046 206 1046 z "},"Z":{"ha":800,"x_min":57,"x_max":743,"o":"m 97 0 q 81 6 89 0 q 69 24 74 13 q 60 47 64 35 q 57 72 57 60 q 58 85 57 79 q 65 100 60 92 l 613 913 l 643 867 l 97 867 q 71 908 71 867 l 71 931 q 97 972 71 972 l 703 972 q 719 966 711 972 q 731 949 726 960 q 740 925 736 938 q 743 900 743 913 q 742 887 743 893 q 735 872 742 881 l 188 60 l 160 106 l 713 106 q 740 64 740 106 l 740 42 q 713 0 740 0 l 97 0 z "},"Ź":{"ha":800,"x_min":57,"x_max":743,"o":"m 97 0 q 81 6 89 0 q 69 24 74 13 q 60 47 64 35 q 57 72 57 60 q 58 85 57 79 q 65 100 60 92 l 613 913 l 643 867 l 97 867 q 71 908 71 867 l 71 931 q 97 972 71 972 l 703 972 q 719 966 711 972 q 731 949 726 960 q 740 925 736 938 q 743 900 743 913 q 742 887 743 893 q 735 872 742 881 l 188 60 l 160 106 l 713 106 q 740 64 740 106 l 740 42 q 713 0 740 0 l 97 0 m 317 1044 q 290 1049 300 1044 q 281 1063 281 1054 q 284 1074 281 1068 q 296 1089 288 1081 l 371 1168 q 411 1194 389 1188 q 476 1200 433 1200 q 529 1194 508 1200 q 550 1175 550 1188 q 540 1153 550 1164 q 494 1119 531 1143 l 419 1074 q 371 1050 390 1056 q 317 1044 351 1044 z "},"Ž":{"ha":800,"x_min":57,"x_max":743,"o":"m 97 0 q 81 6 89 0 q 69 24 74 13 q 60 47 64 35 q 57 72 57 60 q 58 85 57 79 q 65 100 60 92 l 613 913 l 643 867 l 97 867 q 71 908 71 867 l 71 931 q 97 972 71 972 l 703 972 q 719 966 711 972 q 731 949 726 960 q 740 925 736 938 q 743 900 743 913 q 742 887 743 893 q 735 872 742 881 l 188 60 l 160 106 l 713 106 q 740 64 740 106 l 740 42 q 713 0 740 0 l 97 0 m 549 1186 q 574 1181 567 1186 q 581 1169 581 1176 q 575 1154 581 1163 q 557 1133 569 1146 l 475 1051 q 458 1039 467 1043 q 435 1033 449 1035 q 400 1031 421 1031 q 366 1033 379 1031 q 343 1039 353 1035 q 325 1051 333 1043 l 243 1133 q 225 1154 231 1146 q 219 1169 219 1163 q 226 1181 219 1176 q 251 1186 233 1186 q 276 1184 267 1186 q 301 1171 285 1182 l 400 1111 l 497 1171 q 523 1183 511 1179 q 549 1186 535 1186 z "},"Ż":{"ha":800,"x_min":57,"x_max":743,"o":"m 97 0 q 81 6 89 0 q 69 24 74 13 q 60 47 64 35 q 57 72 57 60 q 58 85 57 79 q 65 100 60 92 l 613 913 l 643 867 l 97 867 q 71 908 71 867 l 71 931 q 97 972 71 972 l 703 972 q 719 966 711 972 q 731 949 726 960 q 740 925 736 938 q 743 900 743 913 q 742 887 743 893 q 735 872 742 881 l 188 60 l 160 106 l 713 106 q 740 64 740 106 l 740 42 q 713 0 740 0 l 97 0 m 400 1051 q 351 1060 365 1051 q 338 1082 338 1068 l 338 1165 q 351 1188 338 1179 q 400 1196 365 1196 q 449 1188 435 1196 q 463 1165 463 1181 l 463 1082 q 449 1060 463 1068 q 400 1051 435 1051 z "},"Ẓ":{"ha":800,"x_min":57,"x_max":743,"o":"m 97 0 q 81 6 89 0 q 69 24 74 13 q 60 47 64 35 q 57 72 57 60 q 58 85 57 79 q 65 100 60 92 l 613 913 l 643 867 l 97 867 q 71 908 71 867 l 71 931 q 97 972 71 972 l 703 972 q 719 966 711 972 q 731 949 726 960 q 740 925 736 938 q 743 900 743 913 q 742 887 743 893 q 735 872 742 881 l 188 60 l 160 106 l 713 106 q 740 64 740 106 l 740 42 q 713 0 740 0 l 97 0 m 400 -243 q 355 -235 369 -243 q 340 -212 340 -228 l 340 -142 q 355 -119 340 -126 q 400 -111 369 -111 q 446 -119 432 -111 q 460 -142 460 -126 l 460 -212 q 446 -235 460 -228 q 400 -243 432 -243 z "},"a":{"ha":757,"x_min":68,"x_max":660,"o":"m 306 -8 q 136 42 204 -8 q 68 200 68 93 q 92 319 68 271 q 169 397 115 368 q 310 440 222 426 q 526 453 399 453 l 526 518 q 513 576 526 550 q 466 619 499 603 q 376 635 433 635 q 266 621 314 635 q 188 593 218 607 q 149 579 158 579 q 135 586 142 579 q 124 605 129 593 q 115 629 118 617 q 111 651 111 642 q 135 676 111 663 q 198 703 158 690 q 285 726 238 717 q 382 735 333 735 q 494 720 444 735 q 576 677 543 706 q 628 608 610 649 q 646 517 646 568 l 646 208 q 649 115 646 151 q 656 59 653 79 q 660 29 660 39 q 651 17 660 22 q 631 8 643 11 q 604 2 618 4 q 579 0 590 0 q 560 9 567 0 q 547 40 553 18 q 535 96 542 61 q 476 43 510 67 q 399 6 442 19 q 306 -8 357 -8 m 311 93 q 399 107 361 93 q 469 142 438 121 q 526 189 500 164 l 526 353 q 358 345 424 353 q 257 321 293 338 q 207 276 221 304 q 193 207 193 247 q 223 122 193 151 q 311 93 253 93 z "},"á":{"ha":757,"x_min":68,"x_max":660,"o":"m 306 -8 q 136 42 204 -8 q 68 200 68 93 q 92 319 68 271 q 169 397 115 368 q 310 440 222 426 q 526 453 399 453 l 526 518 q 513 576 526 550 q 466 619 499 603 q 376 635 433 635 q 266 621 314 635 q 188 593 218 607 q 149 579 158 579 q 135 586 142 579 q 124 605 129 593 q 115 629 118 617 q 111 651 111 642 q 135 676 111 663 q 198 703 158 690 q 285 726 238 717 q 382 735 333 735 q 494 720 444 735 q 576 677 543 706 q 628 608 610 649 q 646 517 646 568 l 646 208 q 649 115 646 151 q 656 59 653 79 q 660 29 660 39 q 651 17 660 22 q 631 8 643 11 q 604 2 618 4 q 579 0 590 0 q 560 9 567 0 q 547 40 553 18 q 535 96 542 61 q 476 43 510 67 q 399 6 442 19 q 306 -8 357 -8 m 311 93 q 399 107 361 93 q 469 142 438 121 q 526 189 500 164 l 526 353 q 358 345 424 353 q 257 321 293 338 q 207 276 221 304 q 193 207 193 247 q 223 122 193 151 q 311 93 253 93 m 321 800 q 298 805 306 800 q 290 818 290 810 q 295 834 290 825 q 306 856 300 843 l 361 961 q 376 981 368 974 q 401 993 385 989 q 447 997 418 997 q 497 992 479 997 q 514 975 514 988 q 506 953 514 965 q 476 917 497 940 l 401 833 q 377 812 389 819 q 353 802 365 804 q 321 800 340 800 z "},"ă":{"ha":757,"x_min":68,"x_max":660,"o":"m 306 -8 q 136 42 204 -8 q 68 200 68 93 q 92 319 68 271 q 169 397 115 368 q 310 440 222 426 q 526 453 399 453 l 526 518 q 513 576 526 550 q 466 619 499 603 q 376 635 433 635 q 266 621 314 635 q 188 593 218 607 q 149 579 158 579 q 135 586 142 579 q 124 605 129 593 q 115 629 118 617 q 111 651 111 642 q 135 676 111 663 q 198 703 158 690 q 285 726 238 717 q 382 735 333 735 q 494 720 444 735 q 576 677 543 706 q 628 608 610 649 q 646 517 646 568 l 646 208 q 649 115 646 151 q 656 59 653 79 q 660 29 660 39 q 651 17 660 22 q 631 8 643 11 q 604 2 618 4 q 579 0 590 0 q 560 9 567 0 q 547 40 553 18 q 535 96 542 61 q 476 43 510 67 q 399 6 442 19 q 306 -8 357 -8 m 311 93 q 399 107 361 93 q 469 142 438 121 q 526 189 500 164 l 526 353 q 358 345 424 353 q 257 321 293 338 q 207 276 221 304 q 193 207 193 247 q 223 122 193 151 q 311 93 253 93 m 383 810 q 291 827 333 810 q 222 877 249 844 q 196 956 196 910 q 202 982 196 974 q 221 990 208 990 q 238 987 232 990 q 251 968 244 983 q 298 917 268 933 q 383 901 328 901 q 469 917 440 901 q 513 968 499 933 q 526 987 518 983 q 544 990 535 990 q 563 982 557 990 q 569 956 569 974 q 544 877 569 910 q 478 827 519 844 q 383 810 436 810 z "},"ắ":{"ha":757,"x_min":68,"x_max":660,"o":"m 306 -8 q 136 42 204 -8 q 68 200 68 93 q 92 319 68 271 q 169 397 115 368 q 310 440 222 426 q 526 453 399 453 l 526 518 q 513 576 526 550 q 466 619 499 603 q 376 635 433 635 q 266 621 314 635 q 188 593 218 607 q 149 579 158 579 q 135 586 142 579 q 124 605 129 593 q 115 629 118 617 q 111 651 111 642 q 135 676 111 663 q 198 703 158 690 q 285 726 238 717 q 382 735 333 735 q 494 720 444 735 q 576 677 543 706 q 628 608 610 649 q 646 517 646 568 l 646 208 q 649 115 646 151 q 656 59 653 79 q 660 29 660 39 q 651 17 660 22 q 631 8 643 11 q 604 2 618 4 q 579 0 590 0 q 560 9 567 0 q 547 40 553 18 q 535 96 542 61 q 476 43 510 67 q 399 6 442 19 q 306 -8 357 -8 m 311 93 q 399 107 361 93 q 469 142 438 121 q 526 189 500 164 l 526 353 q 358 345 424 353 q 257 321 293 338 q 207 276 221 304 q 193 207 193 247 q 223 122 193 151 q 311 93 253 93 m 383 810 q 291 827 333 810 q 222 877 249 844 q 196 956 196 910 q 202 982 196 974 q 221 990 208 990 q 238 987 232 990 q 251 968 244 983 q 298 917 268 933 q 383 901 328 901 q 469 917 440 901 q 513 968 499 933 q 526 987 518 983 q 544 990 535 990 q 563 982 557 990 q 569 956 569 974 q 544 877 569 910 q 478 827 519 844 q 383 810 436 810 m 321 997 q 298 1002 306 997 q 290 1015 290 1007 q 295 1031 290 1022 q 306 1053 300 1040 l 361 1158 q 376 1178 368 1171 q 401 1190 385 1186 q 447 1194 418 1194 q 497 1190 479 1194 q 514 1172 514 1185 q 506 1150 514 1163 q 476 1114 497 1138 l 401 1031 q 377 1009 389 1017 q 353 999 365 1001 q 321 997 340 997 z "},"ặ":{"ha":757,"x_min":68,"x_max":660,"o":"m 306 -8 q 136 42 204 -8 q 68 200 68 93 q 92 319 68 271 q 169 397 115 368 q 310 440 222 426 q 526 453 399 453 l 526 518 q 513 576 526 550 q 466 619 499 603 q 376 635 433 635 q 266 621 314 635 q 188 593 218 607 q 149 579 158 579 q 135 586 142 579 q 124 605 129 593 q 115 629 118 617 q 111 651 111 642 q 135 676 111 663 q 198 703 158 690 q 285 726 238 717 q 382 735 333 735 q 494 720 444 735 q 576 677 543 706 q 628 608 610 649 q 646 517 646 568 l 646 208 q 649 115 646 151 q 656 59 653 79 q 660 29 660 39 q 651 17 660 22 q 631 8 643 11 q 604 2 618 4 q 579 0 590 0 q 560 9 567 0 q 547 40 553 18 q 535 96 542 61 q 476 43 510 67 q 399 6 442 19 q 306 -8 357 -8 m 311 93 q 399 107 361 93 q 469 142 438 121 q 526 189 500 164 l 526 353 q 358 345 424 353 q 257 321 293 338 q 207 276 221 304 q 193 207 193 247 q 223 122 193 151 q 311 93 253 93 m 367 -243 q 322 -235 336 -243 q 307 -212 307 -228 l 307 -142 q 322 -119 307 -126 q 367 -111 336 -111 q 413 -119 399 -111 q 426 -142 426 -126 l 426 -212 q 413 -235 426 -228 q 367 -243 399 -243 m 383 810 q 291 827 333 810 q 222 877 249 844 q 196 956 196 910 q 202 982 196 974 q 221 990 208 990 q 238 987 232 990 q 251 968 244 983 q 298 917 268 933 q 383 901 328 901 q 469 917 440 901 q 513 968 499 933 q 526 987 518 983 q 544 990 535 990 q 563 982 557 990 q 569 956 569 974 q 544 877 569 910 q 478 827 519 844 q 383 810 436 810 z "},"ằ":{"ha":757,"x_min":68,"x_max":660,"o":"m 306 -8 q 136 42 204 -8 q 68 200 68 93 q 92 319 68 271 q 169 397 115 368 q 310 440 222 426 q 526 453 399 453 l 526 518 q 513 576 526 550 q 466 619 499 603 q 376 635 433 635 q 266 621 314 635 q 188 593 218 607 q 149 579 158 579 q 135 586 142 579 q 124 605 129 593 q 115 629 118 617 q 111 651 111 642 q 135 676 111 663 q 198 703 158 690 q 285 726 238 717 q 382 735 333 735 q 494 720 444 735 q 576 677 543 706 q 628 608 610 649 q 646 517 646 568 l 646 208 q 649 115 646 151 q 656 59 653 79 q 660 29 660 39 q 651 17 660 22 q 631 8 643 11 q 604 2 618 4 q 579 0 590 0 q 560 9 567 0 q 547 40 553 18 q 535 96 542 61 q 476 43 510 67 q 399 6 442 19 q 306 -8 357 -8 m 311 93 q 399 107 361 93 q 469 142 438 121 q 526 189 500 164 l 526 353 q 358 345 424 353 q 257 321 293 338 q 207 276 221 304 q 193 207 193 247 q 223 122 193 151 q 311 93 253 93 m 383 810 q 291 827 333 810 q 222 877 249 844 q 196 956 196 910 q 202 982 196 974 q 221 990 208 990 q 238 987 232 990 q 251 968 244 983 q 298 917 268 933 q 383 901 328 901 q 469 917 440 901 q 513 968 499 933 q 526 987 518 983 q 544 990 535 990 q 563 982 557 990 q 569 956 569 974 q 544 877 569 910 q 478 827 519 844 q 383 810 436 810 m 446 997 q 415 999 428 997 q 390 1009 401 1001 q 365 1031 379 1017 l 290 1114 q 261 1150 269 1138 q 253 1172 253 1163 q 271 1190 253 1185 q 319 1194 289 1194 q 365 1190 349 1194 q 391 1178 382 1186 q 406 1158 400 1171 l 461 1053 q 472 1031 468 1040 q 476 1015 476 1022 q 469 1002 476 1007 q 446 997 461 997 z "},"ẳ":{"ha":757,"x_min":68,"x_max":660,"o":"m 306 -8 q 136 42 204 -8 q 68 200 68 93 q 92 319 68 271 q 169 397 115 368 q 310 440 222 426 q 526 453 399 453 l 526 518 q 513 576 526 550 q 466 619 499 603 q 376 635 433 635 q 266 621 314 635 q 188 593 218 607 q 149 579 158 579 q 135 586 142 579 q 124 605 129 593 q 115 629 118 617 q 111 651 111 642 q 135 676 111 663 q 198 703 158 690 q 285 726 238 717 q 382 735 333 735 q 494 720 444 735 q 576 677 543 706 q 628 608 610 649 q 646 517 646 568 l 646 208 q 649 115 646 151 q 656 59 653 79 q 660 29 660 39 q 651 17 660 22 q 631 8 643 11 q 604 2 618 4 q 579 0 590 0 q 560 9 567 0 q 547 40 553 18 q 535 96 542 61 q 476 43 510 67 q 399 6 442 19 q 306 -8 357 -8 m 311 93 q 399 107 361 93 q 469 142 438 121 q 526 189 500 164 l 526 353 q 358 345 424 353 q 257 321 293 338 q 207 276 221 304 q 193 207 193 247 q 223 122 193 151 q 311 93 253 93 m 383 810 q 291 827 333 810 q 222 877 249 844 q 196 956 196 910 q 202 982 196 974 q 221 990 208 990 q 238 987 232 990 q 251 968 244 983 q 298 917 268 933 q 383 901 328 901 q 469 917 440 901 q 513 968 499 933 q 526 987 518 983 q 544 990 535 990 q 563 982 557 990 q 569 956 569 974 q 544 877 569 910 q 478 827 519 844 q 383 810 436 810 m 374 979 q 353 992 364 979 q 342 1014 342 1004 q 354 1030 342 1021 q 383 1052 367 1039 q 411 1083 399 1065 q 424 1124 424 1100 q 408 1158 424 1147 q 372 1168 392 1168 q 326 1159 340 1168 q 301 1150 311 1150 q 288 1158 296 1150 q 274 1178 281 1167 q 268 1196 268 1189 q 285 1215 268 1206 q 327 1232 301 1225 q 381 1239 353 1239 q 435 1230 407 1239 q 483 1200 463 1221 q 503 1140 503 1179 q 486 1076 503 1106 q 447 1026 469 1047 q 403 992 424 1004 q 374 979 382 979 z "},"ẵ":{"ha":757,"x_min":68,"x_max":660,"o":"m 306 -8 q 136 42 204 -8 q 68 200 68 93 q 92 319 68 271 q 169 397 115 368 q 310 440 222 426 q 526 453 399 453 l 526 518 q 513 576 526 550 q 466 619 499 603 q 376 635 433 635 q 266 621 314 635 q 188 593 218 607 q 149 579 158 579 q 135 586 142 579 q 124 605 129 593 q 115 629 118 617 q 111 651 111 642 q 135 676 111 663 q 198 703 158 690 q 285 726 238 717 q 382 735 333 735 q 494 720 444 735 q 576 677 543 706 q 628 608 610 649 q 646 517 646 568 l 646 208 q 649 115 646 151 q 656 59 653 79 q 660 29 660 39 q 651 17 660 22 q 631 8 643 11 q 604 2 618 4 q 579 0 590 0 q 560 9 567 0 q 547 40 553 18 q 535 96 542 61 q 476 43 510 67 q 399 6 442 19 q 306 -8 357 -8 m 311 93 q 399 107 361 93 q 469 142 438 121 q 526 189 500 164 l 526 353 q 358 345 424 353 q 257 321 293 338 q 207 276 221 304 q 193 207 193 247 q 223 122 193 151 q 311 93 253 93 m 383 810 q 291 827 333 810 q 222 877 249 844 q 196 956 196 910 q 202 982 196 974 q 221 990 208 990 q 238 987 232 990 q 251 968 244 983 q 298 917 268 933 q 383 901 328 901 q 469 917 440 901 q 513 968 499 933 q 526 987 518 983 q 544 990 535 990 q 563 982 557 990 q 569 956 569 974 q 544 877 569 910 q 478 827 519 844 q 383 810 436 810 m 196 1015 q 180 1018 190 1015 q 161 1027 169 1021 q 153 1040 153 1033 q 154 1049 153 1044 q 157 1058 156 1053 q 212 1140 181 1117 q 286 1163 243 1163 q 353 1147 319 1163 q 419 1117 386 1132 q 486 1101 453 1101 q 528 1117 514 1101 q 551 1149 542 1133 q 571 1165 560 1165 q 597 1157 579 1165 q 615 1139 615 1149 q 614 1131 615 1135 q 610 1119 613 1126 q 553 1041 583 1065 q 482 1017 524 1017 q 410 1032 447 1017 q 340 1063 374 1047 q 278 1078 306 1078 q 239 1062 253 1078 q 217 1031 225 1046 q 196 1015 208 1015 z "},"ǎ":{"ha":757,"x_min":68,"x_max":660,"o":"m 306 -8 q 136 42 204 -8 q 68 200 68 93 q 92 319 68 271 q 169 397 115 368 q 310 440 222 426 q 526 453 399 453 l 526 518 q 513 576 526 550 q 466 619 499 603 q 376 635 433 635 q 266 621 314 635 q 188 593 218 607 q 149 579 158 579 q 135 586 142 579 q 124 605 129 593 q 115 629 118 617 q 111 651 111 642 q 135 676 111 663 q 198 703 158 690 q 285 726 238 717 q 382 735 333 735 q 494 720 444 735 q 576 677 543 706 q 628 608 610 649 q 646 517 646 568 l 646 208 q 649 115 646 151 q 656 59 653 79 q 660 29 660 39 q 651 17 660 22 q 631 8 643 11 q 604 2 618 4 q 579 0 590 0 q 560 9 567 0 q 547 40 553 18 q 535 96 542 61 q 476 43 510 67 q 399 6 442 19 q 306 -8 357 -8 m 311 93 q 399 107 361 93 q 469 142 438 121 q 526 189 500 164 l 526 353 q 358 345 424 353 q 257 321 293 338 q 207 276 221 304 q 193 207 193 247 q 223 122 193 151 q 311 93 253 93 m 521 997 q 544 992 536 997 q 551 979 551 988 q 547 964 551 974 q 536 942 543 954 l 481 836 q 465 817 475 825 q 437 804 456 808 q 383 800 418 800 q 330 804 349 800 q 302 817 311 808 q 286 836 293 825 l 231 942 q 220 964 225 954 q 215 979 215 974 q 223 992 215 988 q 246 997 231 997 q 282 992 269 997 q 313 964 294 986 l 382 879 l 451 964 q 483 991 469 985 q 521 997 497 997 z "},"â":{"ha":757,"x_min":68,"x_max":660,"o":"m 306 -8 q 136 42 204 -8 q 68 200 68 93 q 92 319 68 271 q 169 397 115 368 q 310 440 222 426 q 526 453 399 453 l 526 518 q 513 576 526 550 q 466 619 499 603 q 376 635 433 635 q 266 621 314 635 q 188 593 218 607 q 149 579 158 579 q 135 586 142 579 q 124 605 129 593 q 115 629 118 617 q 111 651 111 642 q 135 676 111 663 q 198 703 158 690 q 285 726 238 717 q 382 735 333 735 q 494 720 444 735 q 576 677 543 706 q 628 608 610 649 q 646 517 646 568 l 646 208 q 649 115 646 151 q 656 59 653 79 q 660 29 660 39 q 651 17 660 22 q 631 8 643 11 q 604 2 618 4 q 579 0 590 0 q 560 9 567 0 q 547 40 553 18 q 535 96 542 61 q 476 43 510 67 q 399 6 442 19 q 306 -8 357 -8 m 311 93 q 399 107 361 93 q 469 142 438 121 q 526 189 500 164 l 526 353 q 358 345 424 353 q 257 321 293 338 q 207 276 221 304 q 193 207 193 247 q 223 122 193 151 q 311 93 253 93 m 246 800 q 223 805 231 800 q 215 818 215 810 q 220 834 215 825 q 231 856 225 843 l 286 961 q 302 981 293 974 q 330 993 311 989 q 383 997 349 997 q 437 993 418 997 q 465 981 456 989 q 481 961 475 974 l 536 856 q 547 834 543 843 q 551 818 551 825 q 544 805 551 810 q 521 800 536 800 q 485 806 499 800 q 454 833 472 811 l 385 918 l 315 833 q 283 806 297 813 q 246 800 269 800 z "},"ấ":{"ha":757,"x_min":68,"x_max":660,"o":"m 306 -8 q 136 42 204 -8 q 68 200 68 93 q 92 319 68 271 q 169 397 115 368 q 310 440 222 426 q 526 453 399 453 l 526 518 q 513 576 526 550 q 466 619 499 603 q 376 635 433 635 q 266 621 314 635 q 188 593 218 607 q 149 579 158 579 q 135 586 142 579 q 124 605 129 593 q 115 629 118 617 q 111 651 111 642 q 135 676 111 663 q 198 703 158 690 q 285 726 238 717 q 382 735 333 735 q 494 720 444 735 q 576 677 543 706 q 628 608 610 649 q 646 517 646 568 l 646 208 q 649 115 646 151 q 656 59 653 79 q 660 29 660 39 q 651 17 660 22 q 631 8 643 11 q 604 2 618 4 q 579 0 590 0 q 560 9 567 0 q 547 40 553 18 q 535 96 542 61 q 476 43 510 67 q 399 6 442 19 q 306 -8 357 -8 m 311 93 q 399 107 361 93 q 469 142 438 121 q 526 189 500 164 l 526 353 q 358 345 424 353 q 257 321 293 338 q 207 276 221 304 q 193 207 193 247 q 223 122 193 151 q 311 93 253 93 m 246 800 q 223 805 231 800 q 215 818 215 810 q 220 834 215 825 q 231 856 225 843 l 286 961 q 302 981 293 974 q 330 993 311 989 q 383 997 349 997 q 437 993 418 997 q 465 981 456 989 q 481 961 475 974 l 536 856 q 547 834 543 843 q 551 818 551 825 q 544 805 551 810 q 521 800 536 800 q 485 806 499 800 q 454 833 472 811 l 385 918 l 315 833 q 283 806 297 813 q 246 800 269 800 m 321 1046 q 298 1051 306 1046 q 290 1064 290 1056 q 295 1080 290 1071 q 306 1101 300 1089 l 361 1207 q 376 1227 368 1219 q 401 1239 385 1235 q 447 1243 418 1243 q 497 1238 479 1243 q 514 1221 514 1233 q 506 1199 514 1211 q 476 1163 497 1186 l 401 1079 q 377 1058 389 1065 q 353 1048 365 1050 q 321 1046 340 1046 z "},"ậ":{"ha":757,"x_min":68,"x_max":660,"o":"m 306 -8 q 136 42 204 -8 q 68 200 68 93 q 92 319 68 271 q 169 397 115 368 q 310 440 222 426 q 526 453 399 453 l 526 518 q 513 576 526 550 q 466 619 499 603 q 376 635 433 635 q 266 621 314 635 q 188 593 218 607 q 149 579 158 579 q 135 586 142 579 q 124 605 129 593 q 115 629 118 617 q 111 651 111 642 q 135 676 111 663 q 198 703 158 690 q 285 726 238 717 q 382 735 333 735 q 494 720 444 735 q 576 677 543 706 q 628 608 610 649 q 646 517 646 568 l 646 208 q 649 115 646 151 q 656 59 653 79 q 660 29 660 39 q 651 17 660 22 q 631 8 643 11 q 604 2 618 4 q 579 0 590 0 q 560 9 567 0 q 547 40 553 18 q 535 96 542 61 q 476 43 510 67 q 399 6 442 19 q 306 -8 357 -8 m 311 93 q 399 107 361 93 q 469 142 438 121 q 526 189 500 164 l 526 353 q 358 345 424 353 q 257 321 293 338 q 207 276 221 304 q 193 207 193 247 q 223 122 193 151 q 311 93 253 93 m 367 -243 q 322 -235 336 -243 q 307 -212 307 -228 l 307 -142 q 322 -119 307 -126 q 367 -111 336 -111 q 413 -119 399 -111 q 426 -142 426 -126 l 426 -212 q 413 -235 426 -228 q 367 -243 399 -243 m 246 800 q 223 805 231 800 q 215 818 215 810 q 220 834 215 825 q 231 856 225 843 l 286 961 q 302 981 293 974 q 330 993 311 989 q 383 997 349 997 q 437 993 418 997 q 465 981 456 989 q 481 961 475 974 l 536 856 q 547 834 543 843 q 551 818 551 825 q 544 805 551 810 q 521 800 536 800 q 485 806 499 800 q 454 833 472 811 l 385 918 l 315 833 q 283 806 297 813 q 246 800 269 800 z "},"ầ":{"ha":757,"x_min":68,"x_max":660,"o":"m 306 -8 q 136 42 204 -8 q 68 200 68 93 q 92 319 68 271 q 169 397 115 368 q 310 440 222 426 q 526 453 399 453 l 526 518 q 513 576 526 550 q 466 619 499 603 q 376 635 433 635 q 266 621 314 635 q 188 593 218 607 q 149 579 158 579 q 135 586 142 579 q 124 605 129 593 q 115 629 118 617 q 111 651 111 642 q 135 676 111 663 q 198 703 158 690 q 285 726 238 717 q 382 735 333 735 q 494 720 444 735 q 576 677 543 706 q 628 608 610 649 q 646 517 646 568 l 646 208 q 649 115 646 151 q 656 59 653 79 q 660 29 660 39 q 651 17 660 22 q 631 8 643 11 q 604 2 618 4 q 579 0 590 0 q 560 9 567 0 q 547 40 553 18 q 535 96 542 61 q 476 43 510 67 q 399 6 442 19 q 306 -8 357 -8 m 311 93 q 399 107 361 93 q 469 142 438 121 q 526 189 500 164 l 526 353 q 358 345 424 353 q 257 321 293 338 q 207 276 221 304 q 193 207 193 247 q 223 122 193 151 q 311 93 253 93 m 246 800 q 223 805 231 800 q 215 818 215 810 q 220 834 215 825 q 231 856 225 843 l 286 961 q 302 981 293 974 q 330 993 311 989 q 383 997 349 997 q 437 993 418 997 q 465 981 456 989 q 481 961 475 974 l 536 856 q 547 834 543 843 q 551 818 551 825 q 544 805 551 810 q 521 800 536 800 q 485 806 499 800 q 454 833 472 811 l 385 918 l 315 833 q 283 806 297 813 q 246 800 269 800 m 446 1046 q 415 1048 428 1046 q 390 1058 401 1050 q 365 1079 379 1065 l 290 1163 q 261 1199 269 1186 q 253 1221 253 1211 q 271 1238 253 1233 q 319 1243 289 1243 q 365 1239 349 1243 q 391 1227 382 1235 q 406 1207 400 1219 l 461 1101 q 472 1080 468 1089 q 476 1064 476 1071 q 469 1051 476 1056 q 446 1046 461 1046 z "},"ẩ":{"ha":757,"x_min":68,"x_max":660,"o":"m 306 -8 q 136 42 204 -8 q 68 200 68 93 q 92 319 68 271 q 169 397 115 368 q 310 440 222 426 q 526 453 399 453 l 526 518 q 513 576 526 550 q 466 619 499 603 q 376 635 433 635 q 266 621 314 635 q 188 593 218 607 q 149 579 158 579 q 135 586 142 579 q 124 605 129 593 q 115 629 118 617 q 111 651 111 642 q 135 676 111 663 q 198 703 158 690 q 285 726 238 717 q 382 735 333 735 q 494 720 444 735 q 576 677 543 706 q 628 608 610 649 q 646 517 646 568 l 646 208 q 649 115 646 151 q 656 59 653 79 q 660 29 660 39 q 651 17 660 22 q 631 8 643 11 q 604 2 618 4 q 579 0 590 0 q 560 9 567 0 q 547 40 553 18 q 535 96 542 61 q 476 43 510 67 q 399 6 442 19 q 306 -8 357 -8 m 311 93 q 399 107 361 93 q 469 142 438 121 q 526 189 500 164 l 526 353 q 358 345 424 353 q 257 321 293 338 q 207 276 221 304 q 193 207 193 247 q 223 122 193 151 q 311 93 253 93 m 246 800 q 223 805 231 800 q 215 818 215 810 q 220 834 215 825 q 231 856 225 843 l 286 961 q 302 981 293 974 q 330 993 311 989 q 383 997 349 997 q 437 993 418 997 q 465 981 456 989 q 481 961 475 974 l 536 856 q 547 834 543 843 q 551 818 551 825 q 544 805 551 810 q 521 800 536 800 q 485 806 499 800 q 454 833 472 811 l 385 918 l 315 833 q 283 806 297 813 q 246 800 269 800 m 374 1028 q 353 1040 364 1028 q 342 1063 342 1053 q 354 1078 342 1069 q 383 1101 367 1088 q 411 1131 399 1114 q 424 1172 424 1149 q 408 1206 424 1196 q 372 1217 392 1217 q 326 1208 340 1217 q 301 1199 311 1199 q 288 1207 296 1199 q 274 1226 281 1215 q 268 1244 268 1238 q 285 1264 268 1254 q 327 1281 301 1274 q 381 1288 353 1288 q 435 1278 407 1288 q 483 1249 463 1269 q 503 1189 503 1228 q 486 1125 503 1154 q 447 1074 469 1096 q 403 1040 424 1053 q 374 1028 382 1028 z "}}}
